%
M48
M72
T01C0.01969
T02C0.02362
T03C0.02756
T04C0.03543
T05C0.04000
T06C0.04724
%
T01
X51986Y74000
X78236Y98375
X69486Y108375
X45736Y121500
T02
X73861Y92750
X78861Y72750
T03
X32611Y59000
X41361Y59000
X50736Y59000
X59486Y59000
X59486Y160875
X50111Y160875
X41361Y160875
X32611Y160875
T04
X31780Y119610
X31780Y99925
T05
X81986Y85250
X91986Y85250
X101986Y85250
X111986Y85250
X111986Y134000
X101986Y134000
X91986Y134000
X81986Y134000
X56986Y144000
X46986Y144000
T06
X20756Y123941
X20756Y95594
M30
