G75*
%MOIN*%
%OFA0B0*%
%FSLAX25Y25*%
%IPPOS*%
%LPD*%
%AMOC8*
5,1,8,0,0,1.08239X$1,22.5*
%
%ADD10C,0.00000*%
%ADD11C,0.00300*%
%ADD12C,0.00400*%
%ADD13R,0.03740X0.01969*%
%ADD14C,0.01200*%
%ADD15R,0.02953X0.05709*%
%ADD16C,0.00500*%
%ADD17R,0.01969X0.03740*%
%ADD18R,0.01280X0.01969*%
%ADD19R,0.00591X0.00984*%
%ADD20R,0.01575X0.00689*%
%ADD21R,0.01181X0.01031*%
%ADD22R,0.01280X0.00295*%
%ADD23R,0.03500X0.00750*%
%ADD24C,0.00100*%
%ADD25C,0.00600*%
%ADD26R,0.05512X0.00787*%
%ADD27R,0.02000X0.02000*%
%ADD28R,0.01969X0.01280*%
%ADD29R,0.00984X0.00591*%
%ADD30R,0.00689X0.01575*%
%ADD31R,0.01031X0.01181*%
%ADD32R,0.00295X0.01280*%
%ADD33R,0.00750X0.03500*%
%ADD34C,0.00800*%
%ADD35R,0.03937X0.00787*%
%ADD36R,0.01400X0.04000*%
%ADD37R,0.01908X0.09962*%
%ADD38R,0.09750X0.01696*%
%ADD39R,0.01400X0.05600*%
D10*
X0030421Y0001500D02*
X0325697Y0001500D01*
X0326173Y0001506D01*
X0326648Y0001523D01*
X0327123Y0001552D01*
X0327597Y0001592D01*
X0328070Y0001644D01*
X0328541Y0001707D01*
X0329011Y0001781D01*
X0329479Y0001867D01*
X0329945Y0001964D01*
X0330408Y0002072D01*
X0330868Y0002191D01*
X0331326Y0002322D01*
X0331780Y0002463D01*
X0332231Y0002616D01*
X0332677Y0002779D01*
X0333120Y0002953D01*
X0333558Y0003138D01*
X0333992Y0003333D01*
X0334421Y0003539D01*
X0334845Y0003755D01*
X0335264Y0003981D01*
X0335677Y0004217D01*
X0336084Y0004463D01*
X0336485Y0004719D01*
X0336879Y0004985D01*
X0337268Y0005260D01*
X0337649Y0005544D01*
X0338023Y0005837D01*
X0338391Y0006139D01*
X0338751Y0006451D01*
X0339103Y0006770D01*
X0339447Y0007098D01*
X0339784Y0007435D01*
X0340112Y0007779D01*
X0340431Y0008131D01*
X0340743Y0008491D01*
X0341045Y0008859D01*
X0341338Y0009233D01*
X0341622Y0009614D01*
X0341897Y0010003D01*
X0342163Y0010397D01*
X0342419Y0010798D01*
X0342665Y0011205D01*
X0342901Y0011618D01*
X0343127Y0012037D01*
X0343343Y0012461D01*
X0343549Y0012890D01*
X0343744Y0013324D01*
X0343929Y0013762D01*
X0344103Y0014205D01*
X0344266Y0014651D01*
X0344419Y0015102D01*
X0344560Y0015556D01*
X0344691Y0016014D01*
X0344810Y0016474D01*
X0344918Y0016937D01*
X0345015Y0017403D01*
X0345101Y0017871D01*
X0345175Y0018341D01*
X0345238Y0018812D01*
X0345290Y0019285D01*
X0345330Y0019759D01*
X0345359Y0020234D01*
X0345376Y0020709D01*
X0345382Y0021185D01*
X0345382Y0198350D01*
X0345376Y0198826D01*
X0345359Y0199301D01*
X0345330Y0199776D01*
X0345290Y0200250D01*
X0345238Y0200723D01*
X0345175Y0201194D01*
X0345101Y0201664D01*
X0345015Y0202132D01*
X0344918Y0202598D01*
X0344810Y0203061D01*
X0344691Y0203521D01*
X0344560Y0203979D01*
X0344419Y0204433D01*
X0344266Y0204884D01*
X0344103Y0205330D01*
X0343929Y0205773D01*
X0343744Y0206211D01*
X0343549Y0206645D01*
X0343343Y0207074D01*
X0343127Y0207498D01*
X0342901Y0207917D01*
X0342665Y0208330D01*
X0342419Y0208737D01*
X0342163Y0209138D01*
X0341897Y0209532D01*
X0341622Y0209921D01*
X0341338Y0210302D01*
X0341045Y0210676D01*
X0340743Y0211044D01*
X0340431Y0211404D01*
X0340112Y0211756D01*
X0339784Y0212100D01*
X0339447Y0212437D01*
X0339103Y0212765D01*
X0338751Y0213084D01*
X0338391Y0213396D01*
X0338023Y0213698D01*
X0337649Y0213991D01*
X0337268Y0214275D01*
X0336879Y0214550D01*
X0336485Y0214816D01*
X0336084Y0215072D01*
X0335677Y0215318D01*
X0335264Y0215554D01*
X0334845Y0215780D01*
X0334421Y0215996D01*
X0333992Y0216202D01*
X0333558Y0216397D01*
X0333120Y0216582D01*
X0332677Y0216756D01*
X0332231Y0216919D01*
X0331780Y0217072D01*
X0331326Y0217213D01*
X0330868Y0217344D01*
X0330408Y0217463D01*
X0329945Y0217571D01*
X0329479Y0217668D01*
X0329011Y0217754D01*
X0328541Y0217828D01*
X0328070Y0217891D01*
X0327597Y0217943D01*
X0327123Y0217983D01*
X0326648Y0218012D01*
X0326173Y0218029D01*
X0325697Y0218035D01*
X0030421Y0218035D01*
X0029945Y0218029D01*
X0029470Y0218012D01*
X0028995Y0217983D01*
X0028521Y0217943D01*
X0028048Y0217891D01*
X0027577Y0217828D01*
X0027107Y0217754D01*
X0026639Y0217668D01*
X0026173Y0217571D01*
X0025710Y0217463D01*
X0025250Y0217344D01*
X0024792Y0217213D01*
X0024338Y0217072D01*
X0023887Y0216919D01*
X0023441Y0216756D01*
X0022998Y0216582D01*
X0022560Y0216397D01*
X0022126Y0216202D01*
X0021697Y0215996D01*
X0021273Y0215780D01*
X0020854Y0215554D01*
X0020441Y0215318D01*
X0020034Y0215072D01*
X0019633Y0214816D01*
X0019239Y0214550D01*
X0018850Y0214275D01*
X0018469Y0213991D01*
X0018095Y0213698D01*
X0017727Y0213396D01*
X0017367Y0213084D01*
X0017015Y0212765D01*
X0016671Y0212437D01*
X0016334Y0212100D01*
X0016006Y0211756D01*
X0015687Y0211404D01*
X0015375Y0211044D01*
X0015073Y0210676D01*
X0014780Y0210302D01*
X0014496Y0209921D01*
X0014221Y0209532D01*
X0013955Y0209138D01*
X0013699Y0208737D01*
X0013453Y0208330D01*
X0013217Y0207917D01*
X0012991Y0207498D01*
X0012775Y0207074D01*
X0012569Y0206645D01*
X0012374Y0206211D01*
X0012189Y0205773D01*
X0012015Y0205330D01*
X0011852Y0204884D01*
X0011699Y0204433D01*
X0011558Y0203979D01*
X0011427Y0203521D01*
X0011308Y0203061D01*
X0011200Y0202598D01*
X0011103Y0202132D01*
X0011017Y0201664D01*
X0010943Y0201194D01*
X0010880Y0200723D01*
X0010828Y0200250D01*
X0010788Y0199776D01*
X0010759Y0199301D01*
X0010742Y0198826D01*
X0010736Y0198350D01*
X0010736Y0127750D01*
X0010866Y0127748D01*
X0010995Y0127742D01*
X0011124Y0127733D01*
X0011253Y0127719D01*
X0011382Y0127702D01*
X0011510Y0127681D01*
X0011637Y0127656D01*
X0011764Y0127628D01*
X0011889Y0127595D01*
X0012014Y0127559D01*
X0012137Y0127520D01*
X0012259Y0127476D01*
X0012380Y0127429D01*
X0012500Y0127379D01*
X0012618Y0127325D01*
X0012734Y0127267D01*
X0012848Y0127206D01*
X0012961Y0127142D01*
X0013071Y0127074D01*
X0013180Y0127004D01*
X0013287Y0126930D01*
X0013391Y0126852D01*
X0013493Y0126772D01*
X0013592Y0126689D01*
X0013689Y0126603D01*
X0013783Y0126514D01*
X0013875Y0126422D01*
X0013964Y0126328D01*
X0014050Y0126231D01*
X0014133Y0126132D01*
X0014213Y0126030D01*
X0014291Y0125926D01*
X0014365Y0125819D01*
X0014435Y0125710D01*
X0014503Y0125600D01*
X0014567Y0125487D01*
X0014628Y0125373D01*
X0014686Y0125257D01*
X0014740Y0125139D01*
X0014790Y0125019D01*
X0014837Y0124898D01*
X0014881Y0124776D01*
X0014920Y0124653D01*
X0014956Y0124528D01*
X0014989Y0124403D01*
X0015017Y0124276D01*
X0015042Y0124149D01*
X0015063Y0124021D01*
X0015080Y0123892D01*
X0015094Y0123763D01*
X0015103Y0123634D01*
X0015109Y0123505D01*
X0015111Y0123375D01*
X0015111Y0095875D01*
X0015109Y0095745D01*
X0015103Y0095616D01*
X0015094Y0095487D01*
X0015080Y0095358D01*
X0015063Y0095229D01*
X0015042Y0095101D01*
X0015017Y0094974D01*
X0014989Y0094847D01*
X0014956Y0094722D01*
X0014920Y0094597D01*
X0014881Y0094474D01*
X0014837Y0094352D01*
X0014790Y0094231D01*
X0014740Y0094111D01*
X0014686Y0093993D01*
X0014628Y0093877D01*
X0014567Y0093763D01*
X0014503Y0093650D01*
X0014435Y0093540D01*
X0014365Y0093431D01*
X0014291Y0093324D01*
X0014213Y0093220D01*
X0014133Y0093118D01*
X0014050Y0093019D01*
X0013964Y0092922D01*
X0013875Y0092828D01*
X0013783Y0092736D01*
X0013689Y0092647D01*
X0013592Y0092561D01*
X0013493Y0092478D01*
X0013391Y0092398D01*
X0013287Y0092320D01*
X0013180Y0092246D01*
X0013071Y0092176D01*
X0012961Y0092108D01*
X0012848Y0092044D01*
X0012734Y0091983D01*
X0012618Y0091925D01*
X0012500Y0091871D01*
X0012380Y0091821D01*
X0012259Y0091774D01*
X0012137Y0091730D01*
X0012014Y0091691D01*
X0011889Y0091655D01*
X0011764Y0091622D01*
X0011637Y0091594D01*
X0011510Y0091569D01*
X0011382Y0091548D01*
X0011253Y0091531D01*
X0011124Y0091517D01*
X0010995Y0091508D01*
X0010866Y0091502D01*
X0010736Y0091500D01*
X0010736Y0021185D01*
X0010742Y0020709D01*
X0010759Y0020234D01*
X0010788Y0019759D01*
X0010828Y0019285D01*
X0010880Y0018812D01*
X0010943Y0018341D01*
X0011017Y0017871D01*
X0011103Y0017403D01*
X0011200Y0016937D01*
X0011308Y0016474D01*
X0011427Y0016014D01*
X0011558Y0015556D01*
X0011699Y0015102D01*
X0011852Y0014651D01*
X0012015Y0014205D01*
X0012189Y0013762D01*
X0012374Y0013324D01*
X0012569Y0012890D01*
X0012775Y0012461D01*
X0012991Y0012037D01*
X0013217Y0011618D01*
X0013453Y0011205D01*
X0013699Y0010798D01*
X0013955Y0010397D01*
X0014221Y0010003D01*
X0014496Y0009614D01*
X0014780Y0009233D01*
X0015073Y0008859D01*
X0015375Y0008491D01*
X0015687Y0008131D01*
X0016006Y0007779D01*
X0016334Y0007435D01*
X0016671Y0007098D01*
X0017015Y0006770D01*
X0017367Y0006451D01*
X0017727Y0006139D01*
X0018095Y0005837D01*
X0018469Y0005544D01*
X0018850Y0005260D01*
X0019239Y0004985D01*
X0019633Y0004719D01*
X0020034Y0004463D01*
X0020441Y0004217D01*
X0020854Y0003981D01*
X0021273Y0003755D01*
X0021697Y0003539D01*
X0022126Y0003333D01*
X0022560Y0003138D01*
X0022998Y0002953D01*
X0023441Y0002779D01*
X0023887Y0002616D01*
X0024338Y0002463D01*
X0024792Y0002322D01*
X0025250Y0002191D01*
X0025710Y0002072D01*
X0026173Y0001964D01*
X0026639Y0001867D01*
X0027107Y0001781D01*
X0027577Y0001707D01*
X0028048Y0001644D01*
X0028521Y0001592D01*
X0028995Y0001552D01*
X0029470Y0001523D01*
X0029945Y0001506D01*
X0030421Y0001500D01*
X0021937Y0094413D02*
X0019575Y0094413D01*
X0019509Y0094421D01*
X0019445Y0094433D01*
X0019381Y0094449D01*
X0019318Y0094468D01*
X0019257Y0094492D01*
X0019197Y0094519D01*
X0019139Y0094549D01*
X0019083Y0094583D01*
X0019029Y0094620D01*
X0018977Y0094661D01*
X0018928Y0094705D01*
X0018881Y0094751D01*
X0018838Y0094800D01*
X0018797Y0094852D01*
X0018760Y0094906D01*
X0018726Y0094962D01*
X0018696Y0095020D01*
X0018669Y0095080D01*
X0018645Y0095141D01*
X0018626Y0095204D01*
X0018610Y0095268D01*
X0018598Y0095332D01*
X0018590Y0095398D01*
X0018586Y0095463D01*
X0018586Y0095529D01*
X0018590Y0095594D01*
X0018590Y0095595D02*
X0018586Y0095660D01*
X0018586Y0095726D01*
X0018590Y0095791D01*
X0018598Y0095857D01*
X0018610Y0095921D01*
X0018626Y0095985D01*
X0018645Y0096048D01*
X0018669Y0096109D01*
X0018696Y0096169D01*
X0018726Y0096227D01*
X0018760Y0096283D01*
X0018797Y0096337D01*
X0018838Y0096389D01*
X0018881Y0096438D01*
X0018928Y0096484D01*
X0018977Y0096528D01*
X0019029Y0096569D01*
X0019083Y0096606D01*
X0019139Y0096640D01*
X0019197Y0096670D01*
X0019257Y0096697D01*
X0019318Y0096721D01*
X0019381Y0096740D01*
X0019445Y0096756D01*
X0019509Y0096768D01*
X0019575Y0096776D01*
X0021937Y0096776D01*
X0022000Y0096768D01*
X0022062Y0096757D01*
X0022124Y0096742D01*
X0022184Y0096724D01*
X0022244Y0096702D01*
X0022302Y0096677D01*
X0022358Y0096648D01*
X0022413Y0096616D01*
X0022465Y0096581D01*
X0022516Y0096543D01*
X0022564Y0096503D01*
X0022610Y0096459D01*
X0022653Y0096413D01*
X0022694Y0096364D01*
X0022732Y0096313D01*
X0022766Y0096261D01*
X0022798Y0096206D01*
X0022826Y0096149D01*
X0022851Y0096091D01*
X0022872Y0096031D01*
X0022890Y0095971D01*
X0022904Y0095909D01*
X0022915Y0095847D01*
X0022922Y0095784D01*
X0022926Y0095721D01*
X0022925Y0095658D01*
X0022922Y0095595D01*
X0022922Y0095594D02*
X0022925Y0095531D01*
X0022926Y0095468D01*
X0022922Y0095405D01*
X0022915Y0095342D01*
X0022904Y0095280D01*
X0022890Y0095218D01*
X0022872Y0095158D01*
X0022851Y0095098D01*
X0022826Y0095040D01*
X0022798Y0094983D01*
X0022766Y0094928D01*
X0022732Y0094876D01*
X0022694Y0094825D01*
X0022653Y0094776D01*
X0022610Y0094730D01*
X0022564Y0094686D01*
X0022516Y0094646D01*
X0022465Y0094608D01*
X0022413Y0094573D01*
X0022358Y0094541D01*
X0022302Y0094512D01*
X0022244Y0094487D01*
X0022184Y0094465D01*
X0022124Y0094447D01*
X0022062Y0094432D01*
X0022000Y0094421D01*
X0021937Y0094413D01*
X0021937Y0122760D02*
X0019575Y0122760D01*
X0019509Y0122768D01*
X0019445Y0122780D01*
X0019381Y0122796D01*
X0019318Y0122815D01*
X0019257Y0122839D01*
X0019197Y0122866D01*
X0019139Y0122896D01*
X0019083Y0122930D01*
X0019029Y0122967D01*
X0018977Y0123008D01*
X0018928Y0123052D01*
X0018881Y0123098D01*
X0018838Y0123147D01*
X0018797Y0123199D01*
X0018760Y0123253D01*
X0018726Y0123309D01*
X0018696Y0123367D01*
X0018669Y0123427D01*
X0018645Y0123488D01*
X0018626Y0123551D01*
X0018610Y0123615D01*
X0018598Y0123679D01*
X0018590Y0123745D01*
X0018586Y0123810D01*
X0018586Y0123876D01*
X0018590Y0123941D01*
X0018586Y0124006D01*
X0018586Y0124072D01*
X0018590Y0124137D01*
X0018598Y0124203D01*
X0018610Y0124267D01*
X0018626Y0124331D01*
X0018645Y0124394D01*
X0018669Y0124455D01*
X0018696Y0124515D01*
X0018726Y0124573D01*
X0018760Y0124629D01*
X0018797Y0124683D01*
X0018838Y0124735D01*
X0018881Y0124784D01*
X0018928Y0124830D01*
X0018977Y0124874D01*
X0019029Y0124915D01*
X0019083Y0124952D01*
X0019139Y0124986D01*
X0019197Y0125016D01*
X0019257Y0125043D01*
X0019318Y0125067D01*
X0019381Y0125086D01*
X0019445Y0125102D01*
X0019509Y0125114D01*
X0019575Y0125122D01*
X0021937Y0125122D01*
X0022000Y0125114D01*
X0022062Y0125103D01*
X0022124Y0125088D01*
X0022184Y0125070D01*
X0022244Y0125048D01*
X0022302Y0125023D01*
X0022358Y0124994D01*
X0022413Y0124962D01*
X0022465Y0124927D01*
X0022516Y0124889D01*
X0022564Y0124849D01*
X0022610Y0124805D01*
X0022653Y0124759D01*
X0022694Y0124710D01*
X0022732Y0124659D01*
X0022766Y0124607D01*
X0022798Y0124552D01*
X0022826Y0124495D01*
X0022851Y0124437D01*
X0022872Y0124377D01*
X0022890Y0124317D01*
X0022904Y0124255D01*
X0022915Y0124193D01*
X0022922Y0124130D01*
X0022926Y0124067D01*
X0022925Y0124004D01*
X0022922Y0123941D01*
X0022925Y0123878D01*
X0022926Y0123815D01*
X0022922Y0123752D01*
X0022915Y0123689D01*
X0022904Y0123627D01*
X0022890Y0123565D01*
X0022872Y0123505D01*
X0022851Y0123445D01*
X0022826Y0123387D01*
X0022798Y0123330D01*
X0022766Y0123275D01*
X0022732Y0123223D01*
X0022694Y0123172D01*
X0022653Y0123123D01*
X0022610Y0123077D01*
X0022564Y0123033D01*
X0022516Y0122993D01*
X0022465Y0122955D01*
X0022413Y0122920D01*
X0022358Y0122888D01*
X0022302Y0122859D01*
X0022244Y0122834D01*
X0022184Y0122812D01*
X0022124Y0122794D01*
X0022062Y0122779D01*
X0022000Y0122768D01*
X0021937Y0122760D01*
D11*
X0016878Y0114811D02*
X0016878Y0113944D01*
X0015577Y0113944D01*
X0015577Y0114811D01*
X0016228Y0114377D02*
X0016228Y0113944D01*
X0016228Y0113338D02*
X0016228Y0112904D01*
X0016228Y0113338D02*
X0016662Y0113338D01*
X0016878Y0113121D01*
X0016878Y0112687D01*
X0016662Y0112470D01*
X0015794Y0112470D01*
X0015577Y0112687D01*
X0015577Y0113121D01*
X0015794Y0113338D01*
X0015794Y0111865D02*
X0015577Y0111648D01*
X0015577Y0110997D01*
X0016878Y0110997D01*
X0016878Y0111648D01*
X0016662Y0111865D01*
X0015794Y0111865D01*
X0015577Y0110391D02*
X0015577Y0109524D01*
X0016878Y0109524D01*
X0016878Y0110391D01*
X0016228Y0109958D02*
X0016228Y0109524D01*
X0016445Y0107445D02*
X0016662Y0107445D01*
X0016878Y0107228D01*
X0016878Y0106577D01*
X0015577Y0106577D01*
X0015577Y0107228D01*
X0015794Y0107445D01*
X0016011Y0107445D01*
X0016228Y0107228D01*
X0016228Y0106577D01*
X0016228Y0107228D02*
X0016445Y0107445D01*
X0016662Y0105972D02*
X0016878Y0105755D01*
X0016878Y0105321D01*
X0016662Y0105104D01*
X0015794Y0105104D01*
X0015577Y0105321D01*
X0015577Y0105755D01*
X0015794Y0105972D01*
X0015794Y0104498D02*
X0016228Y0104498D01*
X0016445Y0104282D01*
X0016445Y0103631D01*
X0016878Y0103631D02*
X0015577Y0103631D01*
X0015577Y0104282D01*
X0015794Y0104498D01*
X0035886Y0090177D02*
X0037337Y0090177D01*
X0037821Y0089694D01*
X0037821Y0088726D01*
X0037337Y0088242D01*
X0035886Y0088242D01*
X0035886Y0087275D02*
X0035886Y0090177D01*
X0036854Y0088242D02*
X0037821Y0087275D01*
X0038833Y0087759D02*
X0038833Y0088726D01*
X0039316Y0089210D01*
X0040284Y0089210D01*
X0040768Y0088726D01*
X0040768Y0088242D01*
X0038833Y0088242D01*
X0038833Y0087759D02*
X0039316Y0087275D01*
X0040284Y0087275D01*
X0041779Y0087275D02*
X0043230Y0087275D01*
X0043714Y0087759D01*
X0043230Y0088242D01*
X0042263Y0088242D01*
X0041779Y0088726D01*
X0042263Y0089210D01*
X0043714Y0089210D01*
X0044726Y0088726D02*
X0045210Y0089210D01*
X0046177Y0089210D01*
X0046661Y0088726D01*
X0046661Y0088242D01*
X0044726Y0088242D01*
X0044726Y0087759D02*
X0044726Y0088726D01*
X0044726Y0087759D02*
X0045210Y0087275D01*
X0046177Y0087275D01*
X0048156Y0087759D02*
X0048640Y0087275D01*
X0048156Y0087759D02*
X0048156Y0089694D01*
X0047672Y0089210D02*
X0048640Y0089210D01*
X0047723Y0098838D02*
X0044821Y0098838D01*
X0044821Y0100289D01*
X0045305Y0100773D01*
X0047239Y0100773D01*
X0047723Y0100289D01*
X0047723Y0098838D01*
X0047723Y0101784D02*
X0047723Y0103719D01*
X0047723Y0102752D02*
X0044821Y0102752D01*
X0045788Y0101784D01*
X0044997Y0112319D02*
X0044997Y0113771D01*
X0045480Y0114254D01*
X0047415Y0114254D01*
X0047899Y0113771D01*
X0047899Y0112319D01*
X0044997Y0112319D01*
X0045480Y0115266D02*
X0044997Y0115750D01*
X0044997Y0116717D01*
X0045480Y0117201D01*
X0045964Y0117201D01*
X0046448Y0116717D01*
X0046932Y0117201D01*
X0047415Y0117201D01*
X0047899Y0116717D01*
X0047899Y0115750D01*
X0047415Y0115266D01*
X0046448Y0116233D02*
X0046448Y0116717D01*
X0045848Y0125088D02*
X0042946Y0125088D01*
X0042946Y0126539D01*
X0043430Y0127023D01*
X0045364Y0127023D01*
X0045848Y0126539D01*
X0045848Y0125088D01*
X0045848Y0128034D02*
X0043913Y0129969D01*
X0043430Y0129969D01*
X0042946Y0129485D01*
X0042946Y0128518D01*
X0043430Y0128034D01*
X0045848Y0128034D02*
X0045848Y0129969D01*
X0046034Y0133650D02*
X0046034Y0136552D01*
X0044583Y0135101D01*
X0046518Y0135101D01*
X0043571Y0135101D02*
X0043571Y0136069D01*
X0043087Y0136552D01*
X0041636Y0136552D01*
X0041636Y0133650D01*
X0041636Y0134617D02*
X0043087Y0134617D01*
X0043571Y0135101D01*
X0042604Y0134617D02*
X0043571Y0133650D01*
X0058184Y0129298D02*
X0058667Y0129781D01*
X0059151Y0129781D01*
X0059635Y0129298D01*
X0060119Y0129781D01*
X0060602Y0129781D01*
X0061086Y0129298D01*
X0061086Y0128330D01*
X0060602Y0127847D01*
X0061086Y0126835D02*
X0060119Y0125867D01*
X0060119Y0126351D02*
X0060119Y0124900D01*
X0061086Y0124900D02*
X0058184Y0124900D01*
X0058184Y0126351D01*
X0058667Y0126835D01*
X0059635Y0126835D01*
X0060119Y0126351D01*
X0058667Y0127847D02*
X0058184Y0128330D01*
X0058184Y0129298D01*
X0059635Y0129298D02*
X0059635Y0128814D01*
X0069434Y0116314D02*
X0072336Y0116314D01*
X0072336Y0115347D02*
X0072336Y0117281D01*
X0070401Y0115347D02*
X0069434Y0116314D01*
X0069917Y0114335D02*
X0069434Y0113851D01*
X0069434Y0112400D01*
X0072336Y0112400D01*
X0071369Y0112400D02*
X0071369Y0113851D01*
X0070885Y0114335D01*
X0069917Y0114335D01*
X0071369Y0113367D02*
X0072336Y0114335D01*
X0067036Y0106138D02*
X0067036Y0104203D01*
X0065101Y0106138D01*
X0064617Y0106138D01*
X0064134Y0105655D01*
X0064134Y0104687D01*
X0064617Y0104203D01*
X0064617Y0103192D02*
X0065585Y0103192D01*
X0066069Y0102708D01*
X0066069Y0101257D01*
X0067036Y0101257D02*
X0064134Y0101257D01*
X0064134Y0102708D01*
X0064617Y0103192D01*
X0066069Y0102224D02*
X0067036Y0103192D01*
X0067083Y0082802D02*
X0067083Y0081351D01*
X0068050Y0081835D01*
X0068534Y0081835D01*
X0069018Y0081351D01*
X0069018Y0080384D01*
X0068534Y0079900D01*
X0067566Y0079900D01*
X0067083Y0080384D01*
X0066071Y0079900D02*
X0065104Y0080867D01*
X0065587Y0080867D02*
X0064136Y0080867D01*
X0064136Y0079900D02*
X0064136Y0082802D01*
X0065587Y0082802D01*
X0066071Y0082319D01*
X0066071Y0081351D01*
X0065587Y0080867D01*
X0067083Y0082802D02*
X0069018Y0082802D01*
X0077761Y0078927D02*
X0077761Y0076025D01*
X0077761Y0076992D02*
X0079212Y0076992D01*
X0079696Y0077476D01*
X0079696Y0078444D01*
X0079212Y0078927D01*
X0077761Y0078927D01*
X0078729Y0076992D02*
X0079696Y0076025D01*
X0080708Y0076025D02*
X0080708Y0078927D01*
X0082643Y0078927D01*
X0083654Y0078444D02*
X0083654Y0077960D01*
X0084138Y0077476D01*
X0085105Y0077476D01*
X0085589Y0076992D01*
X0085589Y0076509D01*
X0085105Y0076025D01*
X0084138Y0076025D01*
X0083654Y0076509D01*
X0082643Y0076025D02*
X0080708Y0076025D01*
X0080708Y0077476D02*
X0081675Y0077476D01*
X0083654Y0078444D02*
X0084138Y0078927D01*
X0085105Y0078927D01*
X0085589Y0078444D01*
X0089636Y0078927D02*
X0089636Y0076025D01*
X0091087Y0076025D01*
X0091571Y0076509D01*
X0091571Y0076992D01*
X0091087Y0077476D01*
X0089636Y0077476D01*
X0091087Y0077476D02*
X0091571Y0077960D01*
X0091571Y0078444D01*
X0091087Y0078927D01*
X0089636Y0078927D01*
X0092583Y0078444D02*
X0093066Y0078927D01*
X0094034Y0078927D01*
X0094518Y0078444D01*
X0094518Y0077960D01*
X0094034Y0077476D01*
X0094518Y0076992D01*
X0094518Y0076509D01*
X0094034Y0076025D01*
X0093066Y0076025D01*
X0092583Y0076509D01*
X0093550Y0077476D02*
X0094034Y0077476D01*
X0099636Y0077476D02*
X0101087Y0077476D01*
X0101571Y0076992D01*
X0101571Y0076509D01*
X0101087Y0076025D01*
X0099636Y0076025D01*
X0099636Y0078927D01*
X0101087Y0078927D01*
X0101571Y0078444D01*
X0101571Y0077960D01*
X0101087Y0077476D01*
X0102583Y0077476D02*
X0104518Y0077476D01*
X0104034Y0076025D02*
X0104034Y0078927D01*
X0102583Y0077476D01*
X0108386Y0076509D02*
X0108870Y0076025D01*
X0109837Y0076025D01*
X0110321Y0076509D01*
X0110321Y0077476D01*
X0109354Y0077476D01*
X0110321Y0078444D02*
X0109837Y0078927D01*
X0108870Y0078927D01*
X0108386Y0078444D01*
X0108386Y0076509D01*
X0111333Y0076025D02*
X0111333Y0078927D01*
X0113268Y0076025D01*
X0113268Y0078927D01*
X0114279Y0078927D02*
X0115730Y0078927D01*
X0116214Y0078444D01*
X0116214Y0076509D01*
X0115730Y0076025D01*
X0114279Y0076025D01*
X0114279Y0078927D01*
X0104572Y0070569D02*
X0104088Y0071052D01*
X0102637Y0071052D01*
X0102637Y0068150D01*
X0104088Y0068150D01*
X0104572Y0068634D01*
X0104572Y0070569D01*
X0101625Y0071052D02*
X0099690Y0071052D01*
X0099690Y0068150D01*
X0101625Y0068150D01*
X0100658Y0069601D02*
X0099690Y0069601D01*
X0098679Y0068150D02*
X0096744Y0068150D01*
X0096744Y0071052D01*
X0095732Y0069601D02*
X0093797Y0069601D01*
X0092786Y0069601D02*
X0092302Y0069117D01*
X0090851Y0069117D01*
X0090851Y0068150D02*
X0090851Y0071052D01*
X0092302Y0071052D01*
X0092786Y0070569D01*
X0092786Y0069601D01*
X0091818Y0069117D02*
X0092786Y0068150D01*
X0089839Y0068150D02*
X0087904Y0068150D01*
X0087904Y0071052D01*
X0089839Y0071052D01*
X0088872Y0069601D02*
X0087904Y0069601D01*
X0086893Y0069117D02*
X0086893Y0068634D01*
X0086409Y0068150D01*
X0085441Y0068150D01*
X0084958Y0068634D01*
X0083946Y0068634D02*
X0083946Y0071052D01*
X0084958Y0070569D02*
X0084958Y0070085D01*
X0085441Y0069601D01*
X0086409Y0069601D01*
X0086893Y0069117D01*
X0086893Y0070569D02*
X0086409Y0071052D01*
X0085441Y0071052D01*
X0084958Y0070569D01*
X0083946Y0068634D02*
X0083462Y0068150D01*
X0082495Y0068150D01*
X0082011Y0068634D01*
X0082011Y0071052D01*
X0069927Y0071397D02*
X0069929Y0071437D01*
X0069935Y0071476D01*
X0069944Y0071515D01*
X0069958Y0071552D01*
X0069975Y0071588D01*
X0069995Y0071623D01*
X0070019Y0071655D01*
X0070046Y0071684D01*
X0070075Y0071711D01*
X0070107Y0071735D01*
X0070142Y0071755D01*
X0070178Y0071772D01*
X0070215Y0071786D01*
X0070254Y0071795D01*
X0070293Y0071801D01*
X0070333Y0071803D01*
X0070373Y0071801D01*
X0070412Y0071795D01*
X0070451Y0071786D01*
X0070488Y0071772D01*
X0070524Y0071755D01*
X0070559Y0071735D01*
X0070591Y0071711D01*
X0070620Y0071684D01*
X0070647Y0071655D01*
X0070671Y0071623D01*
X0070691Y0071588D01*
X0070708Y0071552D01*
X0070722Y0071515D01*
X0070731Y0071476D01*
X0070737Y0071437D01*
X0070739Y0071397D01*
X0070737Y0071357D01*
X0070731Y0071318D01*
X0070722Y0071279D01*
X0070708Y0071242D01*
X0070691Y0071206D01*
X0070671Y0071171D01*
X0070647Y0071139D01*
X0070620Y0071110D01*
X0070591Y0071083D01*
X0070559Y0071059D01*
X0070524Y0071039D01*
X0070488Y0071022D01*
X0070451Y0071008D01*
X0070412Y0070999D01*
X0070373Y0070993D01*
X0070333Y0070991D01*
X0070293Y0070993D01*
X0070254Y0070999D01*
X0070215Y0071008D01*
X0070178Y0071022D01*
X0070142Y0071039D01*
X0070107Y0071059D01*
X0070075Y0071083D01*
X0070046Y0071110D01*
X0070019Y0071139D01*
X0069995Y0071171D01*
X0069975Y0071206D01*
X0069958Y0071242D01*
X0069944Y0071279D01*
X0069935Y0071318D01*
X0069929Y0071357D01*
X0069927Y0071397D01*
X0017836Y0137150D02*
X0014934Y0137150D01*
X0014934Y0138601D01*
X0015417Y0139085D01*
X0016385Y0139085D01*
X0016869Y0138601D01*
X0016869Y0137150D01*
X0017836Y0140097D02*
X0014934Y0140097D01*
X0014934Y0142031D02*
X0017836Y0142031D01*
X0016869Y0141064D01*
X0017836Y0140097D01*
X0017836Y0143043D02*
X0014934Y0143043D01*
X0014934Y0144494D01*
X0015417Y0144978D01*
X0016385Y0144978D01*
X0016869Y0144494D01*
X0016869Y0143043D01*
X0016869Y0144011D02*
X0017836Y0144978D01*
X0019809Y0143596D02*
X0019811Y0143636D01*
X0019817Y0143675D01*
X0019826Y0143714D01*
X0019840Y0143751D01*
X0019857Y0143787D01*
X0019877Y0143822D01*
X0019901Y0143854D01*
X0019928Y0143883D01*
X0019957Y0143910D01*
X0019989Y0143934D01*
X0020024Y0143954D01*
X0020060Y0143971D01*
X0020097Y0143985D01*
X0020136Y0143994D01*
X0020175Y0144000D01*
X0020215Y0144002D01*
X0020255Y0144000D01*
X0020294Y0143994D01*
X0020333Y0143985D01*
X0020370Y0143971D01*
X0020406Y0143954D01*
X0020441Y0143934D01*
X0020473Y0143910D01*
X0020502Y0143883D01*
X0020529Y0143854D01*
X0020553Y0143822D01*
X0020573Y0143787D01*
X0020590Y0143751D01*
X0020604Y0143714D01*
X0020613Y0143675D01*
X0020619Y0143636D01*
X0020621Y0143596D01*
X0020619Y0143556D01*
X0020613Y0143517D01*
X0020604Y0143478D01*
X0020590Y0143441D01*
X0020573Y0143405D01*
X0020553Y0143370D01*
X0020529Y0143338D01*
X0020502Y0143309D01*
X0020473Y0143282D01*
X0020441Y0143258D01*
X0020406Y0143238D01*
X0020370Y0143221D01*
X0020333Y0143207D01*
X0020294Y0143198D01*
X0020255Y0143192D01*
X0020215Y0143190D01*
X0020175Y0143192D01*
X0020136Y0143198D01*
X0020097Y0143207D01*
X0020060Y0143221D01*
X0020024Y0143238D01*
X0019989Y0143258D01*
X0019957Y0143282D01*
X0019928Y0143309D01*
X0019901Y0143338D01*
X0019877Y0143370D01*
X0019857Y0143405D01*
X0019840Y0143441D01*
X0019826Y0143478D01*
X0019817Y0143517D01*
X0019811Y0143556D01*
X0019809Y0143596D01*
X0031993Y0149434D02*
X0032477Y0148950D01*
X0033444Y0148950D01*
X0033928Y0149434D01*
X0034940Y0149434D02*
X0035423Y0148950D01*
X0036391Y0148950D01*
X0036875Y0149434D01*
X0036875Y0149917D01*
X0036391Y0150401D01*
X0035423Y0150401D01*
X0034940Y0150885D01*
X0034940Y0151369D01*
X0035423Y0151852D01*
X0036391Y0151852D01*
X0036875Y0151369D01*
X0036875Y0150885D01*
X0036391Y0150401D01*
X0035423Y0150401D02*
X0034940Y0149917D01*
X0034940Y0149434D01*
X0033928Y0151369D02*
X0033444Y0151852D01*
X0032477Y0151852D01*
X0031993Y0151369D01*
X0031993Y0149434D01*
X0040586Y0151067D02*
X0041554Y0150100D01*
X0042521Y0151067D01*
X0042521Y0153002D01*
X0043533Y0153002D02*
X0044984Y0153002D01*
X0045468Y0152519D01*
X0045468Y0152035D01*
X0044984Y0151551D01*
X0043533Y0151551D01*
X0044984Y0151551D02*
X0045468Y0151067D01*
X0045468Y0150584D01*
X0044984Y0150100D01*
X0043533Y0150100D01*
X0043533Y0153002D01*
X0046479Y0153002D02*
X0046479Y0150584D01*
X0046963Y0150100D01*
X0047930Y0150100D01*
X0048414Y0150584D01*
X0048414Y0153002D01*
X0049426Y0152519D02*
X0049426Y0152035D01*
X0049910Y0151551D01*
X0050877Y0151551D01*
X0051361Y0151067D01*
X0051361Y0150584D01*
X0050877Y0150100D01*
X0049910Y0150100D01*
X0049426Y0150584D01*
X0049426Y0152519D02*
X0049910Y0153002D01*
X0050877Y0153002D01*
X0051361Y0152519D01*
X0053086Y0152519D02*
X0053086Y0150584D01*
X0053570Y0150100D01*
X0054537Y0150100D01*
X0055021Y0150584D01*
X0055021Y0151551D01*
X0054054Y0151551D01*
X0055021Y0152519D02*
X0054537Y0153002D01*
X0053570Y0153002D01*
X0053086Y0152519D01*
X0056033Y0153002D02*
X0057968Y0150100D01*
X0057968Y0153002D01*
X0058979Y0153002D02*
X0060430Y0153002D01*
X0060914Y0152519D01*
X0060914Y0150584D01*
X0060430Y0150100D01*
X0058979Y0150100D01*
X0058979Y0153002D01*
X0056033Y0153002D02*
X0056033Y0150100D01*
X0040586Y0151067D02*
X0040586Y0153002D01*
X0079011Y0142677D02*
X0079011Y0141226D01*
X0079979Y0141710D01*
X0080462Y0141710D01*
X0080946Y0141226D01*
X0080946Y0140259D01*
X0080462Y0139775D01*
X0079495Y0139775D01*
X0079011Y0140259D01*
X0079011Y0142677D02*
X0080946Y0142677D01*
X0081958Y0142677D02*
X0081958Y0140742D01*
X0082925Y0139775D01*
X0083893Y0140742D01*
X0083893Y0142677D01*
X0089636Y0142677D02*
X0089636Y0139775D01*
X0091087Y0139775D01*
X0091571Y0140259D01*
X0091571Y0140742D01*
X0091087Y0141226D01*
X0089636Y0141226D01*
X0091087Y0141226D02*
X0091571Y0141710D01*
X0091571Y0142194D01*
X0091087Y0142677D01*
X0089636Y0142677D01*
X0092583Y0142194D02*
X0093066Y0142677D01*
X0094034Y0142677D01*
X0094518Y0142194D01*
X0094518Y0141710D01*
X0092583Y0139775D01*
X0094518Y0139775D01*
X0099636Y0139775D02*
X0099636Y0142677D01*
X0101087Y0142677D01*
X0101571Y0142194D01*
X0101571Y0141710D01*
X0101087Y0141226D01*
X0099636Y0141226D01*
X0099636Y0139775D02*
X0101087Y0139775D01*
X0101571Y0140259D01*
X0101571Y0140742D01*
X0101087Y0141226D01*
X0102583Y0141710D02*
X0103550Y0142677D01*
X0103550Y0139775D01*
X0102583Y0139775D02*
X0104518Y0139775D01*
X0109636Y0139775D02*
X0109636Y0142677D01*
X0111087Y0142677D01*
X0111571Y0142194D01*
X0111571Y0141710D01*
X0111087Y0141226D01*
X0109636Y0141226D01*
X0109636Y0139775D02*
X0111087Y0139775D01*
X0111571Y0140259D01*
X0111571Y0140742D01*
X0111087Y0141226D01*
X0112583Y0140259D02*
X0114518Y0142194D01*
X0114518Y0140259D01*
X0114034Y0139775D01*
X0113066Y0139775D01*
X0112583Y0140259D01*
X0112583Y0142194D01*
X0113066Y0142677D01*
X0114034Y0142677D01*
X0114518Y0142194D01*
X0132261Y0159900D02*
X0133712Y0159900D01*
X0134196Y0160384D01*
X0134196Y0160867D01*
X0133712Y0161351D01*
X0132261Y0161351D01*
X0132261Y0159900D02*
X0132261Y0162802D01*
X0133712Y0162802D01*
X0134196Y0162319D01*
X0134196Y0161835D01*
X0133712Y0161351D01*
X0135208Y0161351D02*
X0137143Y0161351D01*
X0137143Y0161835D02*
X0137143Y0159900D01*
X0137143Y0161835D02*
X0136175Y0162802D01*
X0135208Y0161835D01*
X0135208Y0159900D01*
X0139122Y0159900D02*
X0139122Y0162802D01*
X0140089Y0162802D02*
X0138154Y0162802D01*
X0141101Y0161351D02*
X0143036Y0161351D01*
X0144047Y0162319D02*
X0144047Y0160384D01*
X0144531Y0159900D01*
X0145499Y0159900D01*
X0145982Y0160384D01*
X0146994Y0160384D02*
X0147478Y0159900D01*
X0148445Y0159900D01*
X0148929Y0160384D01*
X0148929Y0162319D01*
X0148445Y0162802D01*
X0147478Y0162802D01*
X0146994Y0162319D01*
X0146994Y0160384D01*
X0145982Y0162319D02*
X0145499Y0162802D01*
X0144531Y0162802D01*
X0144047Y0162319D01*
X0149940Y0162802D02*
X0151875Y0159900D01*
X0151875Y0162802D01*
X0149940Y0162802D02*
X0149940Y0159900D01*
D12*
X0142763Y0158201D02*
X0139960Y0158201D01*
X0139960Y0154850D02*
X0142763Y0154850D01*
X0067386Y0119152D02*
X0067386Y0116348D01*
X0064035Y0116348D02*
X0064035Y0119152D01*
X0061136Y0119152D02*
X0061136Y0116348D01*
X0057785Y0116348D02*
X0057785Y0119152D01*
X0035888Y0133600D02*
X0033085Y0133600D01*
X0033085Y0136951D02*
X0035888Y0136951D01*
X0035986Y0141402D02*
X0032986Y0141402D01*
X0032986Y0146598D02*
X0035888Y0146598D01*
X0024250Y0142317D02*
X0024250Y0138183D01*
X0023364Y0136608D02*
X0023350Y0136680D01*
X0023334Y0136751D01*
X0023313Y0136822D01*
X0023289Y0136891D01*
X0023261Y0136958D01*
X0023230Y0137025D01*
X0023195Y0137089D01*
X0023157Y0137151D01*
X0023116Y0137212D01*
X0023071Y0137270D01*
X0023024Y0137326D01*
X0022974Y0137379D01*
X0022921Y0137429D01*
X0022865Y0137477D01*
X0022807Y0137522D01*
X0022747Y0137563D01*
X0022685Y0137601D01*
X0022620Y0137636D01*
X0022554Y0137668D01*
X0022487Y0137696D01*
X0022418Y0137720D01*
X0022348Y0137741D01*
X0022277Y0137758D01*
X0022205Y0137772D01*
X0022132Y0137781D01*
X0022059Y0137787D01*
X0021986Y0137789D01*
X0021913Y0137787D01*
X0021840Y0137781D01*
X0021767Y0137772D01*
X0021695Y0137758D01*
X0021624Y0137741D01*
X0021554Y0137720D01*
X0021485Y0137696D01*
X0021418Y0137668D01*
X0021352Y0137636D01*
X0021287Y0137601D01*
X0021225Y0137563D01*
X0021165Y0137522D01*
X0021107Y0137477D01*
X0021051Y0137429D01*
X0020998Y0137379D01*
X0020948Y0137326D01*
X0020901Y0137270D01*
X0020856Y0137212D01*
X0020815Y0137151D01*
X0020777Y0137089D01*
X0020742Y0137025D01*
X0020711Y0136958D01*
X0020683Y0136891D01*
X0020659Y0136822D01*
X0020638Y0136751D01*
X0020622Y0136680D01*
X0020608Y0136608D01*
X0019722Y0138281D02*
X0019722Y0143892D01*
X0020608Y0143892D02*
X0020622Y0143820D01*
X0020638Y0143749D01*
X0020659Y0143678D01*
X0020683Y0143609D01*
X0020711Y0143542D01*
X0020742Y0143475D01*
X0020777Y0143411D01*
X0020815Y0143349D01*
X0020856Y0143288D01*
X0020901Y0143230D01*
X0020948Y0143174D01*
X0020998Y0143121D01*
X0021051Y0143071D01*
X0021107Y0143023D01*
X0021165Y0142978D01*
X0021225Y0142937D01*
X0021287Y0142899D01*
X0021352Y0142864D01*
X0021418Y0142832D01*
X0021485Y0142804D01*
X0021554Y0142780D01*
X0021624Y0142759D01*
X0021695Y0142742D01*
X0021767Y0142728D01*
X0021840Y0142719D01*
X0021913Y0142713D01*
X0021986Y0142711D01*
X0022059Y0142713D01*
X0022132Y0142719D01*
X0022205Y0142728D01*
X0022277Y0142742D01*
X0022348Y0142759D01*
X0022418Y0142780D01*
X0022487Y0142804D01*
X0022554Y0142832D01*
X0022620Y0142864D01*
X0022685Y0142899D01*
X0022747Y0142937D01*
X0022807Y0142978D01*
X0022865Y0143023D01*
X0022921Y0143071D01*
X0022974Y0143121D01*
X0023024Y0143174D01*
X0023071Y0143230D01*
X0023116Y0143288D01*
X0023157Y0143349D01*
X0023195Y0143411D01*
X0023230Y0143475D01*
X0023261Y0143542D01*
X0023289Y0143609D01*
X0023313Y0143678D01*
X0023334Y0143749D01*
X0023350Y0143820D01*
X0023364Y0143892D01*
X0057837Y0104152D02*
X0057837Y0101348D01*
X0061187Y0101348D02*
X0061187Y0104152D01*
X0065585Y0078201D02*
X0068388Y0078201D01*
X0068388Y0074850D02*
X0065585Y0074850D01*
X0065018Y0071889D02*
X0070628Y0071889D01*
X0070628Y0071003D02*
X0070556Y0070989D01*
X0070485Y0070973D01*
X0070414Y0070952D01*
X0070345Y0070928D01*
X0070278Y0070900D01*
X0070211Y0070869D01*
X0070147Y0070834D01*
X0070085Y0070796D01*
X0070024Y0070755D01*
X0069966Y0070710D01*
X0069910Y0070663D01*
X0069857Y0070613D01*
X0069807Y0070560D01*
X0069759Y0070504D01*
X0069714Y0070446D01*
X0069673Y0070386D01*
X0069635Y0070324D01*
X0069600Y0070259D01*
X0069568Y0070193D01*
X0069540Y0070126D01*
X0069516Y0070057D01*
X0069495Y0069987D01*
X0069478Y0069916D01*
X0069464Y0069844D01*
X0069455Y0069771D01*
X0069449Y0069698D01*
X0069447Y0069625D01*
X0069449Y0069552D01*
X0069455Y0069479D01*
X0069464Y0069406D01*
X0069478Y0069334D01*
X0069495Y0069263D01*
X0069516Y0069193D01*
X0069540Y0069124D01*
X0069568Y0069057D01*
X0069600Y0068991D01*
X0069635Y0068926D01*
X0069673Y0068864D01*
X0069714Y0068804D01*
X0069759Y0068746D01*
X0069807Y0068690D01*
X0069857Y0068637D01*
X0069910Y0068587D01*
X0069966Y0068540D01*
X0070024Y0068495D01*
X0070085Y0068454D01*
X0070147Y0068416D01*
X0070211Y0068381D01*
X0070278Y0068350D01*
X0070345Y0068322D01*
X0070414Y0068298D01*
X0070485Y0068277D01*
X0070556Y0068261D01*
X0070628Y0068247D01*
X0069053Y0067361D02*
X0064919Y0067361D01*
X0063344Y0068247D02*
X0063416Y0068261D01*
X0063487Y0068277D01*
X0063558Y0068298D01*
X0063627Y0068322D01*
X0063694Y0068350D01*
X0063761Y0068381D01*
X0063825Y0068416D01*
X0063887Y0068454D01*
X0063948Y0068495D01*
X0064006Y0068540D01*
X0064062Y0068587D01*
X0064115Y0068637D01*
X0064165Y0068690D01*
X0064213Y0068746D01*
X0064258Y0068804D01*
X0064299Y0068864D01*
X0064337Y0068926D01*
X0064372Y0068991D01*
X0064404Y0069057D01*
X0064432Y0069124D01*
X0064456Y0069193D01*
X0064477Y0069263D01*
X0064494Y0069334D01*
X0064508Y0069406D01*
X0064517Y0069479D01*
X0064523Y0069552D01*
X0064525Y0069625D01*
X0064523Y0069698D01*
X0064517Y0069771D01*
X0064508Y0069844D01*
X0064494Y0069916D01*
X0064477Y0069987D01*
X0064456Y0070057D01*
X0064432Y0070126D01*
X0064404Y0070193D01*
X0064372Y0070259D01*
X0064337Y0070324D01*
X0064299Y0070386D01*
X0064258Y0070446D01*
X0064213Y0070504D01*
X0064165Y0070560D01*
X0064115Y0070613D01*
X0064062Y0070663D01*
X0064006Y0070710D01*
X0063948Y0070755D01*
X0063887Y0070796D01*
X0063825Y0070834D01*
X0063761Y0070869D01*
X0063694Y0070900D01*
X0063627Y0070928D01*
X0063558Y0070952D01*
X0063487Y0070973D01*
X0063416Y0070989D01*
X0063344Y0071003D01*
D13*
X0059506Y0100466D03*
X0059506Y0105066D03*
X0059466Y0115434D03*
X0065716Y0115434D03*
X0065716Y0120034D03*
X0059466Y0120034D03*
D14*
X0034486Y0142000D02*
X0034486Y0146000D01*
D15*
X0037310Y0143995D03*
X0031610Y0143995D03*
D16*
X0035613Y0128065D02*
X0042109Y0128065D01*
X0042109Y0117435D01*
X0035613Y0117435D01*
X0035613Y0128065D01*
X0032370Y0123843D02*
X0031189Y0123843D01*
X0031189Y0123252D01*
X0030697Y0123252D01*
X0030598Y0122661D02*
X0030598Y0120890D01*
X0030598Y0119610D01*
X0030598Y0116264D01*
X0029220Y0116264D01*
X0029148Y0116266D01*
X0029076Y0116272D01*
X0029004Y0116281D01*
X0028933Y0116294D01*
X0028863Y0116311D01*
X0028794Y0116331D01*
X0028726Y0116356D01*
X0028660Y0116383D01*
X0028594Y0116414D01*
X0028531Y0116449D01*
X0028469Y0116486D01*
X0028410Y0116527D01*
X0028353Y0116571D01*
X0028298Y0116618D01*
X0028246Y0116668D01*
X0028196Y0116720D01*
X0028149Y0116775D01*
X0028105Y0116832D01*
X0028064Y0116891D01*
X0028027Y0116953D01*
X0027992Y0117016D01*
X0027961Y0117082D01*
X0027934Y0117148D01*
X0027909Y0117216D01*
X0027889Y0117285D01*
X0027872Y0117355D01*
X0027859Y0117426D01*
X0027850Y0117498D01*
X0027844Y0117570D01*
X0027842Y0117642D01*
X0027843Y0117642D02*
X0027845Y0117722D01*
X0027851Y0117801D01*
X0027860Y0117880D01*
X0027873Y0117959D01*
X0027890Y0118036D01*
X0027911Y0118113D01*
X0027935Y0118189D01*
X0027963Y0118264D01*
X0027994Y0118337D01*
X0028029Y0118409D01*
X0028067Y0118479D01*
X0028109Y0118546D01*
X0028153Y0118612D01*
X0028201Y0118676D01*
X0028252Y0118738D01*
X0028305Y0118797D01*
X0028361Y0118853D01*
X0028420Y0118906D01*
X0028482Y0118957D01*
X0028546Y0119005D01*
X0028612Y0119049D01*
X0028680Y0119091D01*
X0028749Y0119129D01*
X0028821Y0119164D01*
X0028894Y0119195D01*
X0028969Y0119223D01*
X0029045Y0119247D01*
X0029122Y0119268D01*
X0029199Y0119285D01*
X0029278Y0119298D01*
X0029357Y0119307D01*
X0029436Y0119313D01*
X0029516Y0119315D01*
X0030303Y0119315D01*
X0030336Y0119317D01*
X0030369Y0119322D01*
X0030400Y0119332D01*
X0030431Y0119344D01*
X0030460Y0119360D01*
X0030487Y0119379D01*
X0030512Y0119401D01*
X0030534Y0119426D01*
X0030553Y0119453D01*
X0030569Y0119482D01*
X0030581Y0119513D01*
X0030591Y0119544D01*
X0030596Y0119577D01*
X0030598Y0119610D01*
X0030599Y0120890D02*
X0030597Y0120936D01*
X0030592Y0120982D01*
X0030583Y0121028D01*
X0030570Y0121073D01*
X0030554Y0121116D01*
X0030535Y0121158D01*
X0030512Y0121199D01*
X0030486Y0121237D01*
X0030457Y0121274D01*
X0030426Y0121308D01*
X0030392Y0121339D01*
X0030355Y0121368D01*
X0030317Y0121394D01*
X0030276Y0121417D01*
X0030234Y0121436D01*
X0030191Y0121452D01*
X0030146Y0121465D01*
X0030100Y0121474D01*
X0030054Y0121479D01*
X0030008Y0121481D01*
X0030008Y0121480D02*
X0029122Y0121480D01*
X0029122Y0121481D02*
X0029068Y0121483D01*
X0029015Y0121488D01*
X0028962Y0121497D01*
X0028910Y0121510D01*
X0028858Y0121526D01*
X0028808Y0121546D01*
X0028760Y0121569D01*
X0028713Y0121596D01*
X0028668Y0121625D01*
X0028625Y0121658D01*
X0028585Y0121693D01*
X0028547Y0121731D01*
X0028512Y0121771D01*
X0028479Y0121814D01*
X0028450Y0121859D01*
X0028423Y0121906D01*
X0028400Y0121954D01*
X0028380Y0122004D01*
X0028364Y0122056D01*
X0028351Y0122108D01*
X0028342Y0122161D01*
X0028337Y0122214D01*
X0028335Y0122268D01*
X0028335Y0124433D01*
X0028728Y0124531D02*
X0011307Y0124531D01*
X0011307Y0124236D01*
X0009634Y0125417D01*
X0008945Y0124531D01*
X0010618Y0123350D01*
X0011307Y0123350D01*
X0011307Y0121874D01*
X0010421Y0121874D01*
X0011307Y0121874D02*
X0011307Y0097563D01*
X0010323Y0097563D01*
X0011307Y0097563D02*
X0011307Y0095201D01*
X0009634Y0094020D01*
X0008945Y0094906D01*
X0010520Y0095988D01*
X0011110Y0095988D01*
X0011307Y0095201D02*
X0011307Y0095004D01*
X0029024Y0095004D01*
X0028335Y0095102D02*
X0028335Y0097268D01*
X0028337Y0097319D01*
X0028343Y0097371D01*
X0028352Y0097421D01*
X0028366Y0097471D01*
X0028383Y0097520D01*
X0028403Y0097567D01*
X0028427Y0097613D01*
X0028455Y0097656D01*
X0028485Y0097698D01*
X0028519Y0097737D01*
X0028555Y0097773D01*
X0028594Y0097807D01*
X0028636Y0097837D01*
X0028680Y0097865D01*
X0028725Y0097889D01*
X0028772Y0097909D01*
X0028821Y0097926D01*
X0028871Y0097940D01*
X0028921Y0097949D01*
X0028973Y0097955D01*
X0029024Y0097957D01*
X0030303Y0097957D01*
X0030336Y0097959D01*
X0030369Y0097964D01*
X0030400Y0097974D01*
X0030431Y0097986D01*
X0030460Y0098002D01*
X0030487Y0098021D01*
X0030512Y0098043D01*
X0030534Y0098068D01*
X0030553Y0098095D01*
X0030569Y0098124D01*
X0030581Y0098155D01*
X0030591Y0098186D01*
X0030596Y0098219D01*
X0030598Y0098252D01*
X0030598Y0096579D01*
X0031287Y0096579D01*
X0031287Y0095594D01*
X0032370Y0095594D01*
X0032370Y0107701D01*
X0030598Y0107701D01*
X0029614Y0107701D01*
X0029560Y0107703D01*
X0029507Y0107708D01*
X0029454Y0107717D01*
X0029402Y0107730D01*
X0029350Y0107746D01*
X0029300Y0107766D01*
X0029252Y0107789D01*
X0029205Y0107816D01*
X0029160Y0107845D01*
X0029117Y0107878D01*
X0029077Y0107913D01*
X0029039Y0107951D01*
X0029004Y0107991D01*
X0028971Y0108034D01*
X0028942Y0108079D01*
X0028915Y0108126D01*
X0028892Y0108174D01*
X0028872Y0108224D01*
X0028856Y0108276D01*
X0028843Y0108328D01*
X0028834Y0108381D01*
X0028829Y0108434D01*
X0028827Y0108488D01*
X0028827Y0110949D01*
X0028829Y0111000D01*
X0028835Y0111052D01*
X0028844Y0111102D01*
X0028858Y0111152D01*
X0028875Y0111201D01*
X0028895Y0111248D01*
X0028919Y0111294D01*
X0028947Y0111337D01*
X0028977Y0111379D01*
X0029011Y0111418D01*
X0029047Y0111454D01*
X0029086Y0111488D01*
X0029128Y0111518D01*
X0029172Y0111546D01*
X0029217Y0111570D01*
X0029264Y0111590D01*
X0029313Y0111607D01*
X0029363Y0111621D01*
X0029413Y0111630D01*
X0029465Y0111636D01*
X0029516Y0111638D01*
X0030598Y0111638D01*
X0032370Y0111638D01*
X0032370Y0107701D01*
X0030598Y0107701D02*
X0030598Y0103173D01*
X0029417Y0103173D01*
X0030598Y0103173D02*
X0030598Y0100024D01*
X0030598Y0098252D01*
X0030598Y0100024D02*
X0029417Y0100024D01*
X0029417Y0100023D02*
X0029340Y0100025D01*
X0029263Y0100031D01*
X0029186Y0100040D01*
X0029110Y0100053D01*
X0029034Y0100070D01*
X0028960Y0100091D01*
X0028886Y0100115D01*
X0028814Y0100143D01*
X0028744Y0100174D01*
X0028675Y0100209D01*
X0028607Y0100247D01*
X0028542Y0100288D01*
X0028479Y0100333D01*
X0028418Y0100381D01*
X0028359Y0100431D01*
X0028303Y0100484D01*
X0028250Y0100540D01*
X0028200Y0100599D01*
X0028152Y0100660D01*
X0028107Y0100723D01*
X0028066Y0100788D01*
X0028028Y0100856D01*
X0027993Y0100925D01*
X0027962Y0100995D01*
X0027934Y0101067D01*
X0027910Y0101141D01*
X0027889Y0101215D01*
X0027872Y0101291D01*
X0027859Y0101367D01*
X0027850Y0101444D01*
X0027844Y0101521D01*
X0027842Y0101598D01*
X0027844Y0101675D01*
X0027850Y0101752D01*
X0027859Y0101829D01*
X0027872Y0101905D01*
X0027889Y0101981D01*
X0027910Y0102055D01*
X0027934Y0102129D01*
X0027962Y0102201D01*
X0027993Y0102271D01*
X0028028Y0102340D01*
X0028066Y0102408D01*
X0028107Y0102473D01*
X0028152Y0102536D01*
X0028200Y0102597D01*
X0028250Y0102656D01*
X0028303Y0102712D01*
X0028359Y0102765D01*
X0028418Y0102815D01*
X0028479Y0102863D01*
X0028542Y0102908D01*
X0028607Y0102949D01*
X0028675Y0102987D01*
X0028744Y0103022D01*
X0028814Y0103053D01*
X0028886Y0103081D01*
X0028960Y0103105D01*
X0029034Y0103126D01*
X0029110Y0103143D01*
X0029186Y0103156D01*
X0029263Y0103165D01*
X0029340Y0103171D01*
X0029417Y0103173D01*
X0021248Y0101008D02*
X0021248Y0100024D01*
X0021246Y0099962D01*
X0021240Y0099901D01*
X0021231Y0099840D01*
X0021217Y0099779D01*
X0021200Y0099720D01*
X0021179Y0099662D01*
X0021154Y0099605D01*
X0021126Y0099550D01*
X0021095Y0099497D01*
X0021060Y0099446D01*
X0021022Y0099397D01*
X0020981Y0099350D01*
X0020938Y0099307D01*
X0020891Y0099266D01*
X0020842Y0099228D01*
X0020791Y0099193D01*
X0020738Y0099162D01*
X0020683Y0099134D01*
X0020626Y0099109D01*
X0020568Y0099088D01*
X0020509Y0099071D01*
X0020448Y0099057D01*
X0020387Y0099048D01*
X0020326Y0099042D01*
X0020264Y0099040D01*
X0020264Y0099039D02*
X0016031Y0099039D01*
X0016031Y0098941D01*
X0016029Y0098908D01*
X0016024Y0098875D01*
X0016014Y0098844D01*
X0016002Y0098813D01*
X0015986Y0098784D01*
X0015967Y0098757D01*
X0015945Y0098732D01*
X0015920Y0098710D01*
X0015893Y0098691D01*
X0015864Y0098675D01*
X0015833Y0098663D01*
X0015802Y0098653D01*
X0015769Y0098648D01*
X0015736Y0098646D01*
X0015736Y0098645D02*
X0015690Y0098647D01*
X0015644Y0098652D01*
X0015598Y0098661D01*
X0015553Y0098674D01*
X0015510Y0098690D01*
X0015468Y0098709D01*
X0015427Y0098732D01*
X0015389Y0098758D01*
X0015352Y0098787D01*
X0015318Y0098818D01*
X0015287Y0098852D01*
X0015258Y0098889D01*
X0015232Y0098927D01*
X0015209Y0098968D01*
X0015190Y0099010D01*
X0015174Y0099053D01*
X0015161Y0099098D01*
X0015152Y0099144D01*
X0015147Y0099190D01*
X0015145Y0099236D01*
X0015146Y0099236D02*
X0013276Y0099236D01*
X0013276Y0101894D01*
X0015146Y0101894D01*
X0015146Y0099138D01*
X0017902Y0099138D02*
X0017902Y0102091D01*
X0020165Y0102091D01*
X0020228Y0102089D01*
X0020291Y0102084D01*
X0020353Y0102075D01*
X0020415Y0102062D01*
X0020476Y0102046D01*
X0020535Y0102026D01*
X0020594Y0102002D01*
X0020651Y0101976D01*
X0020707Y0101946D01*
X0020760Y0101913D01*
X0020812Y0101877D01*
X0020861Y0101838D01*
X0020908Y0101796D01*
X0020953Y0101751D01*
X0020995Y0101704D01*
X0021034Y0101655D01*
X0021070Y0101603D01*
X0021103Y0101550D01*
X0021133Y0101494D01*
X0021159Y0101437D01*
X0021183Y0101378D01*
X0021203Y0101319D01*
X0021219Y0101258D01*
X0021232Y0101196D01*
X0021241Y0101134D01*
X0021246Y0101071D01*
X0021248Y0101008D01*
X0017902Y0102091D02*
X0016031Y0102091D01*
X0016032Y0102091D02*
X0016030Y0102130D01*
X0016024Y0102168D01*
X0016015Y0102205D01*
X0016002Y0102242D01*
X0015985Y0102277D01*
X0015966Y0102310D01*
X0015943Y0102341D01*
X0015917Y0102370D01*
X0015888Y0102396D01*
X0015857Y0102419D01*
X0015824Y0102438D01*
X0015789Y0102455D01*
X0015752Y0102468D01*
X0015715Y0102477D01*
X0015677Y0102483D01*
X0015638Y0102485D01*
X0015638Y0102484D02*
X0015539Y0102484D01*
X0015539Y0102485D02*
X0015503Y0102488D01*
X0015467Y0102487D01*
X0015430Y0102483D01*
X0015395Y0102475D01*
X0015360Y0102463D01*
X0015327Y0102448D01*
X0015296Y0102429D01*
X0015267Y0102407D01*
X0015240Y0102382D01*
X0015216Y0102355D01*
X0015195Y0102325D01*
X0015178Y0102293D01*
X0015163Y0102260D01*
X0015153Y0102225D01*
X0015145Y0102189D01*
X0015146Y0102189D02*
X0015146Y0101894D01*
X0010323Y0097563D02*
X0010254Y0097565D01*
X0010185Y0097571D01*
X0010116Y0097580D01*
X0010048Y0097593D01*
X0009981Y0097610D01*
X0009914Y0097630D01*
X0009849Y0097654D01*
X0009786Y0097681D01*
X0009723Y0097712D01*
X0009663Y0097746D01*
X0009605Y0097784D01*
X0009548Y0097824D01*
X0009494Y0097867D01*
X0009443Y0097914D01*
X0009394Y0097963D01*
X0009347Y0098014D01*
X0009304Y0098068D01*
X0009264Y0098125D01*
X0009226Y0098183D01*
X0009192Y0098243D01*
X0009161Y0098306D01*
X0009134Y0098369D01*
X0009110Y0098434D01*
X0009090Y0098501D01*
X0009073Y0098568D01*
X0009060Y0098636D01*
X0009051Y0098705D01*
X0009045Y0098774D01*
X0009043Y0098843D01*
X0009043Y0120496D01*
X0009045Y0120568D01*
X0009051Y0120640D01*
X0009060Y0120712D01*
X0009073Y0120783D01*
X0009090Y0120853D01*
X0009110Y0120922D01*
X0009135Y0120990D01*
X0009162Y0121056D01*
X0009193Y0121122D01*
X0009228Y0121185D01*
X0009265Y0121247D01*
X0009306Y0121306D01*
X0009350Y0121363D01*
X0009397Y0121418D01*
X0009447Y0121470D01*
X0009499Y0121520D01*
X0009554Y0121567D01*
X0009611Y0121611D01*
X0009670Y0121652D01*
X0009732Y0121689D01*
X0009795Y0121724D01*
X0009861Y0121755D01*
X0009927Y0121782D01*
X0009995Y0121807D01*
X0010064Y0121827D01*
X0010134Y0121844D01*
X0010205Y0121857D01*
X0010277Y0121866D01*
X0010349Y0121872D01*
X0010421Y0121874D01*
X0011307Y0123350D02*
X0011307Y0124236D01*
X0015047Y0124728D02*
X0015047Y0094807D01*
X0018591Y0094807D01*
X0029024Y0095004D02*
X0029101Y0095006D01*
X0029178Y0095012D01*
X0029255Y0095021D01*
X0029331Y0095034D01*
X0029407Y0095051D01*
X0029481Y0095072D01*
X0029555Y0095096D01*
X0029627Y0095124D01*
X0029697Y0095155D01*
X0029766Y0095190D01*
X0029834Y0095228D01*
X0029899Y0095269D01*
X0029962Y0095314D01*
X0030023Y0095362D01*
X0030082Y0095412D01*
X0030138Y0095465D01*
X0030191Y0095521D01*
X0030241Y0095580D01*
X0030289Y0095641D01*
X0030334Y0095704D01*
X0030375Y0095769D01*
X0030413Y0095837D01*
X0030448Y0095906D01*
X0030479Y0095976D01*
X0030507Y0096048D01*
X0030531Y0096122D01*
X0030552Y0096196D01*
X0030569Y0096272D01*
X0030582Y0096348D01*
X0030591Y0096425D01*
X0030597Y0096502D01*
X0030599Y0096579D01*
X0023994Y0085811D02*
X0049978Y0085811D01*
X0049978Y0062189D01*
X0023994Y0062189D01*
X0023994Y0085811D01*
X0033049Y0074000D02*
X0033051Y0074125D01*
X0033057Y0074250D01*
X0033067Y0074374D01*
X0033081Y0074498D01*
X0033098Y0074622D01*
X0033120Y0074745D01*
X0033146Y0074867D01*
X0033175Y0074989D01*
X0033208Y0075109D01*
X0033246Y0075228D01*
X0033286Y0075347D01*
X0033331Y0075463D01*
X0033379Y0075578D01*
X0033431Y0075692D01*
X0033487Y0075804D01*
X0033546Y0075914D01*
X0033608Y0076022D01*
X0033674Y0076129D01*
X0033743Y0076233D01*
X0033816Y0076334D01*
X0033891Y0076434D01*
X0033970Y0076531D01*
X0034052Y0076625D01*
X0034137Y0076717D01*
X0034224Y0076806D01*
X0034315Y0076892D01*
X0034408Y0076975D01*
X0034504Y0077056D01*
X0034602Y0077133D01*
X0034702Y0077207D01*
X0034805Y0077278D01*
X0034910Y0077345D01*
X0035018Y0077410D01*
X0035127Y0077470D01*
X0035238Y0077528D01*
X0035351Y0077581D01*
X0035465Y0077631D01*
X0035581Y0077678D01*
X0035698Y0077720D01*
X0035817Y0077759D01*
X0035937Y0077795D01*
X0036058Y0077826D01*
X0036180Y0077854D01*
X0036302Y0077877D01*
X0036426Y0077897D01*
X0036550Y0077913D01*
X0036674Y0077925D01*
X0036799Y0077933D01*
X0036924Y0077937D01*
X0037048Y0077937D01*
X0037173Y0077933D01*
X0037298Y0077925D01*
X0037422Y0077913D01*
X0037546Y0077897D01*
X0037670Y0077877D01*
X0037792Y0077854D01*
X0037914Y0077826D01*
X0038035Y0077795D01*
X0038155Y0077759D01*
X0038274Y0077720D01*
X0038391Y0077678D01*
X0038507Y0077631D01*
X0038621Y0077581D01*
X0038734Y0077528D01*
X0038845Y0077470D01*
X0038955Y0077410D01*
X0039062Y0077345D01*
X0039167Y0077278D01*
X0039270Y0077207D01*
X0039370Y0077133D01*
X0039468Y0077056D01*
X0039564Y0076975D01*
X0039657Y0076892D01*
X0039748Y0076806D01*
X0039835Y0076717D01*
X0039920Y0076625D01*
X0040002Y0076531D01*
X0040081Y0076434D01*
X0040156Y0076334D01*
X0040229Y0076233D01*
X0040298Y0076129D01*
X0040364Y0076022D01*
X0040426Y0075914D01*
X0040485Y0075804D01*
X0040541Y0075692D01*
X0040593Y0075578D01*
X0040641Y0075463D01*
X0040686Y0075347D01*
X0040726Y0075228D01*
X0040764Y0075109D01*
X0040797Y0074989D01*
X0040826Y0074867D01*
X0040852Y0074745D01*
X0040874Y0074622D01*
X0040891Y0074498D01*
X0040905Y0074374D01*
X0040915Y0074250D01*
X0040921Y0074125D01*
X0040923Y0074000D01*
X0040921Y0073875D01*
X0040915Y0073750D01*
X0040905Y0073626D01*
X0040891Y0073502D01*
X0040874Y0073378D01*
X0040852Y0073255D01*
X0040826Y0073133D01*
X0040797Y0073011D01*
X0040764Y0072891D01*
X0040726Y0072772D01*
X0040686Y0072653D01*
X0040641Y0072537D01*
X0040593Y0072422D01*
X0040541Y0072308D01*
X0040485Y0072196D01*
X0040426Y0072086D01*
X0040364Y0071978D01*
X0040298Y0071871D01*
X0040229Y0071767D01*
X0040156Y0071666D01*
X0040081Y0071566D01*
X0040002Y0071469D01*
X0039920Y0071375D01*
X0039835Y0071283D01*
X0039748Y0071194D01*
X0039657Y0071108D01*
X0039564Y0071025D01*
X0039468Y0070944D01*
X0039370Y0070867D01*
X0039270Y0070793D01*
X0039167Y0070722D01*
X0039062Y0070655D01*
X0038954Y0070590D01*
X0038845Y0070530D01*
X0038734Y0070472D01*
X0038621Y0070419D01*
X0038507Y0070369D01*
X0038391Y0070322D01*
X0038274Y0070280D01*
X0038155Y0070241D01*
X0038035Y0070205D01*
X0037914Y0070174D01*
X0037792Y0070146D01*
X0037670Y0070123D01*
X0037546Y0070103D01*
X0037422Y0070087D01*
X0037298Y0070075D01*
X0037173Y0070067D01*
X0037048Y0070063D01*
X0036924Y0070063D01*
X0036799Y0070067D01*
X0036674Y0070075D01*
X0036550Y0070087D01*
X0036426Y0070103D01*
X0036302Y0070123D01*
X0036180Y0070146D01*
X0036058Y0070174D01*
X0035937Y0070205D01*
X0035817Y0070241D01*
X0035698Y0070280D01*
X0035581Y0070322D01*
X0035465Y0070369D01*
X0035351Y0070419D01*
X0035238Y0070472D01*
X0035127Y0070530D01*
X0035017Y0070590D01*
X0034910Y0070655D01*
X0034805Y0070722D01*
X0034702Y0070793D01*
X0034602Y0070867D01*
X0034504Y0070944D01*
X0034408Y0071025D01*
X0034315Y0071108D01*
X0034224Y0071194D01*
X0034137Y0071283D01*
X0034052Y0071375D01*
X0033970Y0071469D01*
X0033891Y0071566D01*
X0033816Y0071666D01*
X0033743Y0071767D01*
X0033674Y0071871D01*
X0033608Y0071978D01*
X0033546Y0072086D01*
X0033487Y0072196D01*
X0033431Y0072308D01*
X0033379Y0072422D01*
X0033331Y0072537D01*
X0033286Y0072653D01*
X0033246Y0072772D01*
X0033208Y0072891D01*
X0033175Y0073011D01*
X0033146Y0073133D01*
X0033120Y0073255D01*
X0033098Y0073378D01*
X0033081Y0073502D01*
X0033067Y0073626D01*
X0033057Y0073750D01*
X0033051Y0073875D01*
X0033049Y0074000D01*
X0031067Y0074000D02*
X0031069Y0074154D01*
X0031075Y0074307D01*
X0031085Y0074461D01*
X0031099Y0074614D01*
X0031117Y0074766D01*
X0031139Y0074918D01*
X0031164Y0075070D01*
X0031194Y0075221D01*
X0031228Y0075371D01*
X0031265Y0075520D01*
X0031307Y0075668D01*
X0031352Y0075814D01*
X0031401Y0075960D01*
X0031454Y0076104D01*
X0031510Y0076247D01*
X0031570Y0076389D01*
X0031634Y0076529D01*
X0031702Y0076667D01*
X0031773Y0076803D01*
X0031847Y0076937D01*
X0031925Y0077070D01*
X0032007Y0077200D01*
X0032091Y0077328D01*
X0032179Y0077454D01*
X0032271Y0077578D01*
X0032365Y0077699D01*
X0032463Y0077818D01*
X0032563Y0077934D01*
X0032667Y0078047D01*
X0032774Y0078158D01*
X0032883Y0078266D01*
X0032995Y0078371D01*
X0033110Y0078473D01*
X0033227Y0078572D01*
X0033347Y0078668D01*
X0033470Y0078761D01*
X0033594Y0078851D01*
X0033722Y0078937D01*
X0033851Y0079021D01*
X0033982Y0079100D01*
X0034116Y0079176D01*
X0034251Y0079249D01*
X0034388Y0079318D01*
X0034527Y0079384D01*
X0034668Y0079446D01*
X0034810Y0079504D01*
X0034954Y0079559D01*
X0035099Y0079610D01*
X0035245Y0079657D01*
X0035392Y0079700D01*
X0035541Y0079740D01*
X0035690Y0079775D01*
X0035841Y0079807D01*
X0035992Y0079835D01*
X0036144Y0079859D01*
X0036296Y0079879D01*
X0036449Y0079895D01*
X0036602Y0079907D01*
X0036756Y0079915D01*
X0036909Y0079919D01*
X0037063Y0079919D01*
X0037216Y0079915D01*
X0037370Y0079907D01*
X0037523Y0079895D01*
X0037676Y0079879D01*
X0037828Y0079859D01*
X0037980Y0079835D01*
X0038131Y0079807D01*
X0038282Y0079775D01*
X0038431Y0079740D01*
X0038580Y0079700D01*
X0038727Y0079657D01*
X0038873Y0079610D01*
X0039018Y0079559D01*
X0039162Y0079504D01*
X0039304Y0079446D01*
X0039445Y0079384D01*
X0039584Y0079318D01*
X0039721Y0079249D01*
X0039856Y0079176D01*
X0039990Y0079100D01*
X0040121Y0079021D01*
X0040250Y0078937D01*
X0040378Y0078851D01*
X0040502Y0078761D01*
X0040625Y0078668D01*
X0040745Y0078572D01*
X0040862Y0078473D01*
X0040977Y0078371D01*
X0041089Y0078266D01*
X0041198Y0078158D01*
X0041305Y0078047D01*
X0041409Y0077934D01*
X0041509Y0077818D01*
X0041607Y0077699D01*
X0041701Y0077578D01*
X0041793Y0077454D01*
X0041881Y0077328D01*
X0041965Y0077200D01*
X0042047Y0077070D01*
X0042125Y0076937D01*
X0042199Y0076803D01*
X0042270Y0076667D01*
X0042338Y0076529D01*
X0042402Y0076389D01*
X0042462Y0076247D01*
X0042518Y0076104D01*
X0042571Y0075960D01*
X0042620Y0075814D01*
X0042665Y0075668D01*
X0042707Y0075520D01*
X0042744Y0075371D01*
X0042778Y0075221D01*
X0042808Y0075070D01*
X0042833Y0074918D01*
X0042855Y0074766D01*
X0042873Y0074614D01*
X0042887Y0074461D01*
X0042897Y0074307D01*
X0042903Y0074154D01*
X0042905Y0074000D01*
X0042903Y0073846D01*
X0042897Y0073693D01*
X0042887Y0073539D01*
X0042873Y0073386D01*
X0042855Y0073234D01*
X0042833Y0073082D01*
X0042808Y0072930D01*
X0042778Y0072779D01*
X0042744Y0072629D01*
X0042707Y0072480D01*
X0042665Y0072332D01*
X0042620Y0072186D01*
X0042571Y0072040D01*
X0042518Y0071896D01*
X0042462Y0071753D01*
X0042402Y0071611D01*
X0042338Y0071471D01*
X0042270Y0071333D01*
X0042199Y0071197D01*
X0042125Y0071063D01*
X0042047Y0070930D01*
X0041965Y0070800D01*
X0041881Y0070672D01*
X0041793Y0070546D01*
X0041701Y0070422D01*
X0041607Y0070301D01*
X0041509Y0070182D01*
X0041409Y0070066D01*
X0041305Y0069953D01*
X0041198Y0069842D01*
X0041089Y0069734D01*
X0040977Y0069629D01*
X0040862Y0069527D01*
X0040745Y0069428D01*
X0040625Y0069332D01*
X0040502Y0069239D01*
X0040378Y0069149D01*
X0040250Y0069063D01*
X0040121Y0068979D01*
X0039990Y0068900D01*
X0039856Y0068824D01*
X0039721Y0068751D01*
X0039584Y0068682D01*
X0039445Y0068616D01*
X0039304Y0068554D01*
X0039162Y0068496D01*
X0039018Y0068441D01*
X0038873Y0068390D01*
X0038727Y0068343D01*
X0038580Y0068300D01*
X0038431Y0068260D01*
X0038282Y0068225D01*
X0038131Y0068193D01*
X0037980Y0068165D01*
X0037828Y0068141D01*
X0037676Y0068121D01*
X0037523Y0068105D01*
X0037370Y0068093D01*
X0037216Y0068085D01*
X0037063Y0068081D01*
X0036909Y0068081D01*
X0036756Y0068085D01*
X0036602Y0068093D01*
X0036449Y0068105D01*
X0036296Y0068121D01*
X0036144Y0068141D01*
X0035992Y0068165D01*
X0035841Y0068193D01*
X0035690Y0068225D01*
X0035541Y0068260D01*
X0035392Y0068300D01*
X0035245Y0068343D01*
X0035099Y0068390D01*
X0034954Y0068441D01*
X0034810Y0068496D01*
X0034668Y0068554D01*
X0034527Y0068616D01*
X0034388Y0068682D01*
X0034251Y0068751D01*
X0034116Y0068824D01*
X0033982Y0068900D01*
X0033851Y0068979D01*
X0033722Y0069063D01*
X0033594Y0069149D01*
X0033470Y0069239D01*
X0033347Y0069332D01*
X0033227Y0069428D01*
X0033110Y0069527D01*
X0032995Y0069629D01*
X0032883Y0069734D01*
X0032774Y0069842D01*
X0032667Y0069953D01*
X0032563Y0070066D01*
X0032463Y0070182D01*
X0032365Y0070301D01*
X0032271Y0070422D01*
X0032179Y0070546D01*
X0032091Y0070672D01*
X0032007Y0070800D01*
X0031925Y0070930D01*
X0031847Y0071063D01*
X0031773Y0071197D01*
X0031702Y0071333D01*
X0031634Y0071471D01*
X0031570Y0071611D01*
X0031510Y0071753D01*
X0031454Y0071896D01*
X0031401Y0072040D01*
X0031352Y0072186D01*
X0031307Y0072332D01*
X0031265Y0072480D01*
X0031228Y0072629D01*
X0031194Y0072779D01*
X0031164Y0072930D01*
X0031139Y0073082D01*
X0031117Y0073234D01*
X0031099Y0073386D01*
X0031085Y0073539D01*
X0031075Y0073693D01*
X0031069Y0073846D01*
X0031067Y0074000D01*
X0030795Y0109374D02*
X0028925Y0109374D01*
X0028925Y0110260D02*
X0030795Y0110260D01*
X0030795Y0109374D01*
X0030598Y0111638D02*
X0030598Y0116264D01*
X0032370Y0111638D02*
X0032370Y0123843D01*
X0030598Y0122661D02*
X0030596Y0122745D01*
X0030590Y0122829D01*
X0030581Y0122912D01*
X0030568Y0122995D01*
X0030551Y0123077D01*
X0030531Y0123158D01*
X0030506Y0123239D01*
X0030479Y0123318D01*
X0030448Y0123396D01*
X0030413Y0123472D01*
X0030375Y0123547D01*
X0030333Y0123620D01*
X0030289Y0123691D01*
X0030241Y0123760D01*
X0030190Y0123827D01*
X0030136Y0123891D01*
X0030080Y0123953D01*
X0030020Y0124013D01*
X0029958Y0124069D01*
X0029894Y0124123D01*
X0029827Y0124174D01*
X0029758Y0124222D01*
X0029687Y0124266D01*
X0029614Y0124308D01*
X0029539Y0124346D01*
X0029463Y0124381D01*
X0029385Y0124412D01*
X0029306Y0124439D01*
X0029225Y0124464D01*
X0029144Y0124484D01*
X0029062Y0124501D01*
X0028979Y0124514D01*
X0028896Y0124523D01*
X0028812Y0124529D01*
X0028728Y0124531D01*
X0021248Y0119512D02*
X0021248Y0118528D01*
X0021246Y0118466D01*
X0021240Y0118405D01*
X0021231Y0118344D01*
X0021217Y0118283D01*
X0021200Y0118224D01*
X0021179Y0118166D01*
X0021154Y0118109D01*
X0021126Y0118054D01*
X0021095Y0118001D01*
X0021060Y0117950D01*
X0021022Y0117901D01*
X0020981Y0117854D01*
X0020938Y0117811D01*
X0020891Y0117770D01*
X0020842Y0117732D01*
X0020791Y0117697D01*
X0020738Y0117666D01*
X0020683Y0117638D01*
X0020626Y0117613D01*
X0020568Y0117592D01*
X0020509Y0117575D01*
X0020448Y0117561D01*
X0020387Y0117552D01*
X0020326Y0117546D01*
X0020264Y0117544D01*
X0020264Y0117543D02*
X0016031Y0117543D01*
X0016031Y0117445D01*
X0016029Y0117412D01*
X0016024Y0117379D01*
X0016014Y0117348D01*
X0016002Y0117317D01*
X0015986Y0117288D01*
X0015967Y0117261D01*
X0015945Y0117236D01*
X0015920Y0117214D01*
X0015893Y0117195D01*
X0015864Y0117179D01*
X0015833Y0117167D01*
X0015802Y0117157D01*
X0015769Y0117152D01*
X0015736Y0117150D01*
X0015736Y0117149D02*
X0015690Y0117151D01*
X0015644Y0117156D01*
X0015598Y0117165D01*
X0015553Y0117178D01*
X0015510Y0117194D01*
X0015468Y0117213D01*
X0015427Y0117236D01*
X0015389Y0117262D01*
X0015352Y0117291D01*
X0015318Y0117322D01*
X0015287Y0117356D01*
X0015258Y0117393D01*
X0015232Y0117431D01*
X0015209Y0117472D01*
X0015190Y0117514D01*
X0015174Y0117557D01*
X0015161Y0117602D01*
X0015152Y0117648D01*
X0015147Y0117694D01*
X0015145Y0117740D01*
X0015146Y0117740D02*
X0013276Y0117740D01*
X0013276Y0120398D01*
X0015146Y0120398D01*
X0015146Y0117642D01*
X0017902Y0117642D02*
X0017902Y0120594D01*
X0020165Y0120594D01*
X0020165Y0120595D02*
X0020228Y0120593D01*
X0020291Y0120588D01*
X0020353Y0120579D01*
X0020415Y0120566D01*
X0020476Y0120550D01*
X0020535Y0120530D01*
X0020594Y0120506D01*
X0020651Y0120480D01*
X0020707Y0120450D01*
X0020760Y0120417D01*
X0020812Y0120381D01*
X0020861Y0120342D01*
X0020908Y0120300D01*
X0020953Y0120255D01*
X0020995Y0120208D01*
X0021034Y0120159D01*
X0021070Y0120107D01*
X0021103Y0120054D01*
X0021133Y0119998D01*
X0021159Y0119941D01*
X0021183Y0119882D01*
X0021203Y0119823D01*
X0021219Y0119762D01*
X0021232Y0119700D01*
X0021241Y0119638D01*
X0021246Y0119575D01*
X0021248Y0119512D01*
X0017902Y0120594D02*
X0016031Y0120594D01*
X0016032Y0120594D02*
X0016030Y0120633D01*
X0016024Y0120671D01*
X0016015Y0120708D01*
X0016002Y0120745D01*
X0015985Y0120780D01*
X0015966Y0120813D01*
X0015943Y0120844D01*
X0015917Y0120873D01*
X0015888Y0120899D01*
X0015857Y0120922D01*
X0015824Y0120941D01*
X0015789Y0120958D01*
X0015752Y0120971D01*
X0015715Y0120980D01*
X0015677Y0120986D01*
X0015638Y0120988D01*
X0015539Y0120988D01*
X0015539Y0120989D02*
X0015503Y0120992D01*
X0015467Y0120991D01*
X0015430Y0120987D01*
X0015395Y0120979D01*
X0015360Y0120967D01*
X0015327Y0120952D01*
X0015296Y0120933D01*
X0015267Y0120911D01*
X0015240Y0120886D01*
X0015216Y0120859D01*
X0015195Y0120829D01*
X0015178Y0120797D01*
X0015163Y0120764D01*
X0015153Y0120729D01*
X0015145Y0120693D01*
X0015146Y0120693D02*
X0015146Y0120398D01*
X0015047Y0124728D02*
X0018591Y0124728D01*
X0150736Y0150107D02*
X0155736Y0150107D01*
X0155736Y0155107D01*
X0160736Y0155107D01*
X0160736Y0150107D01*
X0155736Y0150107D01*
X0160736Y0150107D02*
X0170736Y0150107D01*
X0170736Y0155107D01*
X0175736Y0155107D01*
X0175736Y0150107D01*
X0170736Y0150107D01*
X0175736Y0150107D02*
X0180736Y0150107D01*
X0180736Y0070107D02*
X0175736Y0070107D01*
X0175736Y0065107D01*
X0170736Y0065107D01*
X0170736Y0070107D01*
X0175736Y0070107D01*
X0170736Y0070107D02*
X0160736Y0070107D01*
X0160736Y0065107D01*
X0155736Y0065107D01*
X0155736Y0070107D01*
X0160736Y0070107D01*
X0155736Y0070107D02*
X0150736Y0070107D01*
D17*
X0069271Y0076520D03*
X0064671Y0076520D03*
X0036771Y0135270D03*
X0032171Y0135270D03*
X0139046Y0156520D03*
X0143646Y0156520D03*
D18*
X0023807Y0143203D03*
X0023807Y0137297D03*
X0020165Y0137297D03*
D19*
X0021002Y0137789D03*
X0022970Y0137789D03*
X0022970Y0142711D03*
X0021002Y0142711D03*
D20*
X0021986Y0142563D03*
X0021986Y0137937D03*
D21*
X0020215Y0142734D03*
D22*
X0020165Y0144039D03*
D23*
X0021986Y0141178D03*
D24*
X0022093Y0145024D02*
X0022243Y0145175D01*
X0022093Y0145024D02*
X0021793Y0145024D01*
X0021643Y0145175D01*
X0021643Y0145775D01*
X0021793Y0145925D01*
X0022093Y0145925D01*
X0022243Y0145775D01*
X0021943Y0135689D02*
X0022243Y0135389D01*
X0022243Y0134788D01*
X0022243Y0135239D02*
X0021643Y0135239D01*
X0021643Y0135389D02*
X0021943Y0135689D01*
X0021643Y0135389D02*
X0021643Y0134788D01*
X0061824Y0069748D02*
X0062424Y0069748D01*
X0061974Y0069748D02*
X0061974Y0069148D01*
X0061824Y0069148D02*
X0061524Y0069448D01*
X0061824Y0069748D01*
X0061824Y0069148D02*
X0062424Y0069148D01*
X0071760Y0069298D02*
X0071910Y0069148D01*
X0072511Y0069148D01*
X0072661Y0069298D01*
X0072661Y0069598D01*
X0072511Y0069748D01*
X0071910Y0069748D02*
X0071760Y0069598D01*
X0071760Y0069298D01*
D25*
X0067986Y0069625D02*
X0065986Y0068125D01*
X0065986Y0071125D01*
X0067986Y0069625D01*
X0067846Y0069730D02*
X0065986Y0069730D01*
X0065986Y0069132D02*
X0067329Y0069132D01*
X0066531Y0068533D02*
X0065986Y0068533D01*
X0065986Y0070329D02*
X0067048Y0070329D01*
X0066250Y0070927D02*
X0065986Y0070927D01*
X0069811Y0063375D02*
X0075411Y0063375D01*
X0075411Y0058375D02*
X0069811Y0058375D01*
X0087687Y0099669D02*
X0087687Y0119766D01*
X0106285Y0119766D01*
X0106285Y0099669D01*
X0087687Y0099669D01*
X0040436Y0120781D02*
X0037286Y0120781D01*
X0038861Y0124719D01*
X0040436Y0120781D01*
X0023486Y0139250D02*
X0020486Y0139250D01*
X0021986Y0141250D01*
X0023486Y0139250D01*
X0023107Y0139756D02*
X0020866Y0139756D01*
X0021315Y0140355D02*
X0022658Y0140355D01*
X0022209Y0140953D02*
X0021764Y0140953D01*
X0069811Y0155875D02*
X0075411Y0155875D01*
X0075411Y0160875D02*
X0069811Y0160875D01*
D26*
X0038861Y0125112D03*
D27*
X0081986Y0134000D03*
X0091986Y0134000D03*
X0101986Y0134000D03*
X0111986Y0134000D03*
X0111986Y0085250D03*
X0101986Y0085250D03*
X0091986Y0085250D03*
X0081986Y0085250D03*
D28*
X0064033Y0071446D03*
X0064033Y0067804D03*
X0069939Y0067804D03*
D29*
X0069447Y0068641D03*
X0069447Y0070609D03*
X0064526Y0070609D03*
X0064526Y0068641D03*
D30*
X0064673Y0069625D03*
X0069299Y0069625D03*
D31*
X0069470Y0071397D03*
D32*
X0070776Y0071446D03*
D33*
X0067914Y0069625D03*
D34*
X0054742Y0097563D02*
X0049230Y0097563D01*
X0049230Y0105437D01*
X0054742Y0105437D01*
X0054742Y0097563D01*
X0053561Y0100122D02*
X0050411Y0100122D01*
X0051986Y0102484D01*
X0053561Y0100122D01*
X0052774Y0100713D02*
X0051199Y0100713D01*
X0051986Y0101894D01*
X0052774Y0100713D01*
X0052373Y0101314D02*
X0051600Y0101314D01*
X0049230Y0115063D02*
X0054742Y0115063D01*
X0054742Y0122937D01*
X0049230Y0122937D01*
X0049230Y0115063D01*
X0051986Y0118016D02*
X0053561Y0120378D01*
X0050411Y0120378D01*
X0051986Y0118016D01*
X0051986Y0118606D02*
X0052774Y0119787D01*
X0051199Y0119787D01*
X0051986Y0118606D01*
X0051803Y0118881D02*
X0052169Y0118881D01*
X0052702Y0119680D02*
X0051271Y0119680D01*
X0089321Y0102868D02*
X0089323Y0102915D01*
X0089329Y0102962D01*
X0089339Y0103009D01*
X0089352Y0103054D01*
X0089370Y0103098D01*
X0089391Y0103140D01*
X0089415Y0103181D01*
X0089443Y0103219D01*
X0089474Y0103255D01*
X0089508Y0103288D01*
X0089544Y0103318D01*
X0089583Y0103345D01*
X0089624Y0103369D01*
X0089667Y0103389D01*
X0089711Y0103405D01*
X0089757Y0103418D01*
X0089803Y0103427D01*
X0089851Y0103432D01*
X0089898Y0103433D01*
X0089945Y0103430D01*
X0089992Y0103423D01*
X0090038Y0103412D01*
X0090083Y0103398D01*
X0090127Y0103379D01*
X0090168Y0103357D01*
X0090208Y0103332D01*
X0090246Y0103303D01*
X0090281Y0103272D01*
X0090314Y0103237D01*
X0090343Y0103200D01*
X0090369Y0103161D01*
X0090392Y0103119D01*
X0090411Y0103076D01*
X0090427Y0103031D01*
X0090439Y0102985D01*
X0090447Y0102939D01*
X0090451Y0102892D01*
X0090451Y0102844D01*
X0090447Y0102797D01*
X0090439Y0102751D01*
X0090427Y0102705D01*
X0090411Y0102660D01*
X0090392Y0102617D01*
X0090369Y0102575D01*
X0090343Y0102536D01*
X0090314Y0102499D01*
X0090281Y0102464D01*
X0090246Y0102433D01*
X0090208Y0102404D01*
X0090169Y0102379D01*
X0090127Y0102357D01*
X0090083Y0102338D01*
X0090038Y0102324D01*
X0089992Y0102313D01*
X0089945Y0102306D01*
X0089898Y0102303D01*
X0089851Y0102304D01*
X0089803Y0102309D01*
X0089757Y0102318D01*
X0089711Y0102331D01*
X0089667Y0102347D01*
X0089624Y0102367D01*
X0089583Y0102391D01*
X0089544Y0102418D01*
X0089508Y0102448D01*
X0089474Y0102481D01*
X0089443Y0102517D01*
X0089415Y0102555D01*
X0089391Y0102596D01*
X0089370Y0102638D01*
X0089352Y0102682D01*
X0089339Y0102727D01*
X0089329Y0102774D01*
X0089323Y0102821D01*
X0089321Y0102868D01*
X0118682Y0099846D02*
X0118682Y0119944D01*
X0119530Y0119944D01*
X0147296Y0150678D01*
X0147296Y0151950D01*
X0154079Y0143808D02*
X0156622Y0143808D01*
X0156834Y0143808D02*
X0191807Y0143808D01*
X0191807Y0131515D01*
X0156622Y0131515D01*
X0156410Y0131515D02*
X0153867Y0131515D01*
X0161709Y0131727D02*
X0161709Y0143808D01*
X0156834Y0143808D02*
X0156678Y0143812D01*
X0156522Y0143811D01*
X0156365Y0143807D01*
X0156209Y0143798D01*
X0156054Y0143786D01*
X0155898Y0143769D01*
X0155743Y0143749D01*
X0155589Y0143725D01*
X0155435Y0143696D01*
X0155282Y0143664D01*
X0155130Y0143628D01*
X0154979Y0143589D01*
X0154829Y0143545D01*
X0154680Y0143497D01*
X0154533Y0143446D01*
X0154387Y0143391D01*
X0154242Y0143333D01*
X0154099Y0143270D01*
X0153957Y0143204D01*
X0153817Y0143135D01*
X0153679Y0143062D01*
X0153543Y0142985D01*
X0153408Y0142905D01*
X0153276Y0142822D01*
X0153146Y0142735D01*
X0153019Y0142645D01*
X0152893Y0142552D01*
X0152770Y0142456D01*
X0152650Y0142357D01*
X0152532Y0142254D01*
X0152416Y0142149D01*
X0152304Y0142040D01*
X0152194Y0141929D01*
X0152087Y0141815D01*
X0151983Y0141699D01*
X0151882Y0141580D01*
X0151784Y0141458D01*
X0151689Y0141334D01*
X0151597Y0141207D01*
X0151509Y0141079D01*
X0151424Y0140948D01*
X0151342Y0140814D01*
X0151264Y0140679D01*
X0151189Y0140542D01*
X0151117Y0140403D01*
X0151050Y0140263D01*
X0150985Y0140120D01*
X0150925Y0139976D01*
X0150868Y0139831D01*
X0150815Y0139684D01*
X0150765Y0139536D01*
X0150719Y0139386D01*
X0150677Y0139236D01*
X0150639Y0139084D01*
X0150605Y0138932D01*
X0150575Y0138778D01*
X0150549Y0138624D01*
X0150526Y0138470D01*
X0150508Y0138315D01*
X0150493Y0138159D01*
X0150482Y0138003D01*
X0150476Y0137847D01*
X0150473Y0137691D01*
X0150474Y0137535D01*
X0150480Y0137379D01*
X0150489Y0137223D01*
X0150502Y0137067D01*
X0150519Y0136912D01*
X0150540Y0136757D01*
X0150565Y0136603D01*
X0150594Y0136449D01*
X0150627Y0136296D01*
X0150663Y0136144D01*
X0150704Y0135994D01*
X0150748Y0135844D01*
X0150796Y0135695D01*
X0150848Y0135548D01*
X0150904Y0135402D01*
X0150963Y0135257D01*
X0151026Y0135114D01*
X0151093Y0134973D01*
X0151163Y0134833D01*
X0151236Y0134695D01*
X0151314Y0134560D01*
X0151394Y0134426D01*
X0151478Y0134294D01*
X0151565Y0134164D01*
X0151656Y0134037D01*
X0151750Y0133912D01*
X0151846Y0133789D01*
X0151946Y0133669D01*
X0152049Y0133552D01*
X0152155Y0133437D01*
X0152264Y0133325D01*
X0152376Y0133216D01*
X0152490Y0133109D01*
X0152607Y0133006D01*
X0152727Y0132905D01*
X0152849Y0132808D01*
X0152973Y0132713D01*
X0153100Y0132622D01*
X0153230Y0132534D01*
X0153361Y0132450D01*
X0153495Y0132369D01*
X0153630Y0132291D01*
X0153767Y0132217D01*
X0153907Y0132146D01*
X0154048Y0132079D01*
X0154190Y0132015D01*
X0154335Y0131955D01*
X0154481Y0131899D01*
X0154628Y0131846D01*
X0154776Y0131798D01*
X0154926Y0131753D01*
X0155076Y0131711D01*
X0155228Y0131674D01*
X0155381Y0131641D01*
X0155534Y0131611D01*
X0155688Y0131585D01*
X0155843Y0131564D01*
X0155998Y0131546D01*
X0156154Y0131532D01*
X0156310Y0131522D01*
X0156466Y0131516D01*
X0156622Y0131514D01*
X0153867Y0131514D02*
X0153711Y0131516D01*
X0153555Y0131522D01*
X0153399Y0131532D01*
X0153243Y0131546D01*
X0153088Y0131564D01*
X0152933Y0131585D01*
X0152779Y0131611D01*
X0152626Y0131641D01*
X0152473Y0131674D01*
X0152321Y0131711D01*
X0152171Y0131753D01*
X0152021Y0131798D01*
X0151873Y0131846D01*
X0151726Y0131899D01*
X0151580Y0131955D01*
X0151435Y0132015D01*
X0151293Y0132079D01*
X0151152Y0132146D01*
X0151012Y0132217D01*
X0150875Y0132291D01*
X0150740Y0132369D01*
X0150606Y0132450D01*
X0150475Y0132534D01*
X0150345Y0132622D01*
X0150218Y0132713D01*
X0150094Y0132808D01*
X0149972Y0132905D01*
X0149852Y0133006D01*
X0149735Y0133109D01*
X0149621Y0133216D01*
X0149509Y0133325D01*
X0149400Y0133437D01*
X0149294Y0133552D01*
X0149191Y0133669D01*
X0149091Y0133789D01*
X0148995Y0133912D01*
X0148901Y0134037D01*
X0148810Y0134164D01*
X0148723Y0134294D01*
X0148639Y0134426D01*
X0148559Y0134560D01*
X0148481Y0134695D01*
X0148408Y0134833D01*
X0148338Y0134973D01*
X0148271Y0135114D01*
X0148208Y0135257D01*
X0148149Y0135402D01*
X0148093Y0135548D01*
X0148041Y0135695D01*
X0147993Y0135844D01*
X0147949Y0135994D01*
X0147908Y0136144D01*
X0147872Y0136296D01*
X0147839Y0136449D01*
X0147810Y0136603D01*
X0147785Y0136757D01*
X0147764Y0136912D01*
X0147747Y0137067D01*
X0147734Y0137223D01*
X0147725Y0137379D01*
X0147719Y0137535D01*
X0147718Y0137691D01*
X0147721Y0137847D01*
X0147727Y0138003D01*
X0147738Y0138159D01*
X0147753Y0138315D01*
X0147771Y0138470D01*
X0147794Y0138624D01*
X0147820Y0138778D01*
X0147850Y0138932D01*
X0147884Y0139084D01*
X0147922Y0139236D01*
X0147964Y0139386D01*
X0148010Y0139536D01*
X0148060Y0139684D01*
X0148113Y0139831D01*
X0148170Y0139976D01*
X0148230Y0140120D01*
X0148295Y0140263D01*
X0148362Y0140403D01*
X0148434Y0140542D01*
X0148509Y0140679D01*
X0148587Y0140814D01*
X0148669Y0140948D01*
X0148754Y0141079D01*
X0148842Y0141207D01*
X0148934Y0141334D01*
X0149029Y0141458D01*
X0149127Y0141580D01*
X0149228Y0141699D01*
X0149332Y0141815D01*
X0149439Y0141929D01*
X0149549Y0142040D01*
X0149661Y0142149D01*
X0149777Y0142254D01*
X0149895Y0142357D01*
X0150015Y0142456D01*
X0150138Y0142552D01*
X0150264Y0142645D01*
X0150391Y0142735D01*
X0150521Y0142822D01*
X0150653Y0142905D01*
X0150788Y0142985D01*
X0150924Y0143062D01*
X0151062Y0143135D01*
X0151202Y0143204D01*
X0151344Y0143270D01*
X0151487Y0143333D01*
X0151632Y0143391D01*
X0151778Y0143446D01*
X0151925Y0143497D01*
X0152074Y0143545D01*
X0152224Y0143589D01*
X0152375Y0143628D01*
X0152527Y0143664D01*
X0152680Y0143696D01*
X0152834Y0143725D01*
X0152988Y0143749D01*
X0153143Y0143769D01*
X0153299Y0143786D01*
X0153454Y0143798D01*
X0153610Y0143807D01*
X0153767Y0143811D01*
X0153923Y0143812D01*
X0154079Y0143808D01*
X0184388Y0150890D02*
X0209187Y0150890D01*
X0209187Y0150889D02*
X0209290Y0150887D01*
X0209393Y0150881D01*
X0209495Y0150872D01*
X0209598Y0150858D01*
X0209699Y0150841D01*
X0209800Y0150820D01*
X0209900Y0150795D01*
X0209999Y0150767D01*
X0210097Y0150734D01*
X0210194Y0150699D01*
X0210289Y0150659D01*
X0210382Y0150616D01*
X0210474Y0150570D01*
X0210565Y0150520D01*
X0210653Y0150467D01*
X0210739Y0150410D01*
X0210823Y0150351D01*
X0210905Y0150288D01*
X0210984Y0150222D01*
X0211061Y0150154D01*
X0211135Y0150082D01*
X0211207Y0150008D01*
X0211275Y0149931D01*
X0211341Y0149852D01*
X0211404Y0149770D01*
X0211463Y0149686D01*
X0211520Y0149600D01*
X0211573Y0149512D01*
X0211623Y0149421D01*
X0211669Y0149329D01*
X0211712Y0149236D01*
X0211752Y0149141D01*
X0211787Y0149044D01*
X0211820Y0148946D01*
X0211848Y0148847D01*
X0211873Y0148747D01*
X0211894Y0148646D01*
X0211911Y0148545D01*
X0211925Y0148442D01*
X0211934Y0148340D01*
X0211940Y0148237D01*
X0211942Y0148134D01*
X0211943Y0148134D02*
X0211943Y0143596D01*
X0211941Y0143490D01*
X0211935Y0143383D01*
X0211926Y0143277D01*
X0211912Y0143172D01*
X0211895Y0143067D01*
X0211874Y0142963D01*
X0211849Y0142859D01*
X0211820Y0142757D01*
X0211787Y0142655D01*
X0211751Y0142555D01*
X0211712Y0142456D01*
X0211668Y0142359D01*
X0211622Y0142264D01*
X0211571Y0142170D01*
X0211518Y0142078D01*
X0211461Y0141988D01*
X0211401Y0141900D01*
X0211337Y0141815D01*
X0211271Y0141732D01*
X0211202Y0141651D01*
X0211129Y0141573D01*
X0211054Y0141497D01*
X0210976Y0141425D01*
X0210896Y0141355D01*
X0210813Y0141288D01*
X0210728Y0141224D01*
X0210641Y0141164D01*
X0210551Y0141107D01*
X0210459Y0141052D01*
X0184388Y0150890D02*
X0184388Y0151950D01*
X0210459Y0141053D02*
X0209705Y0140615D01*
X0208962Y0140158D01*
X0208231Y0139683D01*
X0207511Y0139190D01*
X0206804Y0138680D01*
X0206110Y0138153D01*
X0205428Y0137609D01*
X0204760Y0137048D01*
X0204106Y0136471D01*
X0203466Y0135879D01*
X0202841Y0135271D01*
X0202232Y0134647D01*
X0201637Y0134009D01*
X0201058Y0133357D01*
X0200496Y0132691D01*
X0199950Y0132011D01*
X0199420Y0131318D01*
X0198908Y0130612D01*
X0198414Y0129894D01*
X0197937Y0129164D01*
X0197478Y0128423D01*
X0197037Y0127670D01*
X0196615Y0126907D01*
X0196212Y0126134D01*
X0195827Y0125351D01*
X0195462Y0124559D01*
X0195117Y0123758D01*
X0194791Y0122950D01*
X0194485Y0122133D01*
X0194199Y0121309D01*
X0193934Y0120478D01*
X0193689Y0119642D01*
X0193464Y0118799D01*
X0193260Y0117951D01*
X0193077Y0117099D01*
X0192915Y0116242D01*
X0192774Y0115381D01*
X0192654Y0114517D01*
X0192555Y0113651D01*
X0192477Y0112782D01*
X0192421Y0111912D01*
X0192386Y0111041D01*
X0192372Y0110169D01*
X0192380Y0109297D01*
X0192409Y0108425D01*
X0192459Y0107555D01*
X0192531Y0106686D01*
X0192624Y0105819D01*
X0192738Y0104954D01*
X0192873Y0104093D01*
X0193029Y0103235D01*
X0193207Y0102381D01*
X0193405Y0101532D01*
X0193624Y0100688D01*
X0193863Y0099849D01*
X0194123Y0099017D01*
X0194403Y0098191D01*
X0194703Y0097372D01*
X0195024Y0096561D01*
X0195364Y0095758D01*
X0195723Y0094964D01*
X0196102Y0094178D01*
X0196500Y0093402D01*
X0196917Y0092636D01*
X0197353Y0091881D01*
X0197806Y0091136D01*
X0198278Y0090403D01*
X0198768Y0089682D01*
X0199275Y0088972D01*
X0199800Y0088276D01*
X0200341Y0087592D01*
X0200899Y0086922D01*
X0201474Y0086266D01*
X0202064Y0085624D01*
X0202669Y0084996D01*
X0203290Y0084384D01*
X0203926Y0083787D01*
X0204576Y0083206D01*
X0205240Y0082640D01*
X0205918Y0082092D01*
X0206609Y0081560D01*
X0207312Y0081045D01*
X0208028Y0080547D01*
X0208757Y0080067D01*
X0209496Y0079605D01*
X0210247Y0079162D01*
X0210345Y0079103D01*
X0210442Y0079041D01*
X0210536Y0078976D01*
X0210628Y0078907D01*
X0210718Y0078836D01*
X0210806Y0078762D01*
X0210890Y0078684D01*
X0210973Y0078604D01*
X0211052Y0078521D01*
X0211129Y0078436D01*
X0211203Y0078348D01*
X0211273Y0078258D01*
X0211341Y0078165D01*
X0211406Y0078070D01*
X0211467Y0077973D01*
X0211525Y0077874D01*
X0211580Y0077773D01*
X0211631Y0077670D01*
X0211679Y0077566D01*
X0211723Y0077460D01*
X0211764Y0077353D01*
X0211801Y0077244D01*
X0211835Y0077135D01*
X0211865Y0077024D01*
X0211891Y0076912D01*
X0211913Y0076799D01*
X0211932Y0076686D01*
X0211946Y0076572D01*
X0211957Y0076458D01*
X0211964Y0076343D01*
X0211968Y0076229D01*
X0211967Y0076114D01*
X0211963Y0075999D01*
X0211955Y0075885D01*
X0211943Y0075771D01*
X0211943Y0075770D02*
X0211943Y0072080D01*
X0211942Y0072080D02*
X0211940Y0071974D01*
X0211934Y0071868D01*
X0211925Y0071763D01*
X0211912Y0071658D01*
X0211895Y0071553D01*
X0211874Y0071449D01*
X0211850Y0071346D01*
X0211822Y0071244D01*
X0211790Y0071143D01*
X0211755Y0071043D01*
X0211716Y0070945D01*
X0211674Y0070847D01*
X0211628Y0070752D01*
X0211579Y0070658D01*
X0211527Y0070566D01*
X0211471Y0070476D01*
X0211412Y0070388D01*
X0211350Y0070302D01*
X0211285Y0070218D01*
X0211217Y0070137D01*
X0211147Y0070058D01*
X0211073Y0069982D01*
X0210997Y0069908D01*
X0210918Y0069838D01*
X0210837Y0069770D01*
X0210753Y0069705D01*
X0210667Y0069643D01*
X0210579Y0069584D01*
X0210489Y0069528D01*
X0210397Y0069476D01*
X0210303Y0069427D01*
X0210208Y0069381D01*
X0210110Y0069339D01*
X0210012Y0069300D01*
X0209912Y0069265D01*
X0209811Y0069233D01*
X0209709Y0069205D01*
X0209606Y0069181D01*
X0209502Y0069160D01*
X0209397Y0069143D01*
X0209292Y0069130D01*
X0209187Y0069121D01*
X0209081Y0069115D01*
X0208975Y0069113D01*
X0184600Y0069113D01*
X0184600Y0068053D01*
X0191807Y0076194D02*
X0156622Y0076194D01*
X0156410Y0076194D02*
X0153867Y0076194D01*
X0153711Y0076196D01*
X0153555Y0076202D01*
X0153399Y0076212D01*
X0153243Y0076226D01*
X0153088Y0076244D01*
X0152933Y0076265D01*
X0152779Y0076291D01*
X0152626Y0076321D01*
X0152473Y0076354D01*
X0152321Y0076391D01*
X0152171Y0076433D01*
X0152021Y0076478D01*
X0151873Y0076526D01*
X0151726Y0076579D01*
X0151580Y0076635D01*
X0151435Y0076695D01*
X0151293Y0076759D01*
X0151152Y0076826D01*
X0151012Y0076897D01*
X0150875Y0076971D01*
X0150740Y0077049D01*
X0150606Y0077130D01*
X0150475Y0077214D01*
X0150345Y0077302D01*
X0150218Y0077393D01*
X0150094Y0077488D01*
X0149972Y0077585D01*
X0149852Y0077686D01*
X0149735Y0077789D01*
X0149621Y0077896D01*
X0149509Y0078005D01*
X0149400Y0078117D01*
X0149294Y0078232D01*
X0149191Y0078349D01*
X0149091Y0078469D01*
X0148995Y0078592D01*
X0148901Y0078717D01*
X0148810Y0078844D01*
X0148723Y0078974D01*
X0148639Y0079106D01*
X0148559Y0079240D01*
X0148481Y0079375D01*
X0148408Y0079513D01*
X0148338Y0079653D01*
X0148271Y0079794D01*
X0148208Y0079937D01*
X0148149Y0080082D01*
X0148093Y0080228D01*
X0148041Y0080375D01*
X0147993Y0080524D01*
X0147949Y0080674D01*
X0147908Y0080824D01*
X0147872Y0080976D01*
X0147839Y0081129D01*
X0147810Y0081283D01*
X0147785Y0081437D01*
X0147764Y0081592D01*
X0147747Y0081747D01*
X0147734Y0081903D01*
X0147725Y0082059D01*
X0147719Y0082215D01*
X0147718Y0082371D01*
X0147721Y0082527D01*
X0147727Y0082683D01*
X0147738Y0082839D01*
X0147753Y0082995D01*
X0147771Y0083150D01*
X0147794Y0083304D01*
X0147820Y0083458D01*
X0147850Y0083612D01*
X0147884Y0083764D01*
X0147922Y0083916D01*
X0147964Y0084066D01*
X0148010Y0084216D01*
X0148060Y0084364D01*
X0148113Y0084511D01*
X0148170Y0084656D01*
X0148230Y0084800D01*
X0148295Y0084943D01*
X0148362Y0085083D01*
X0148434Y0085222D01*
X0148509Y0085359D01*
X0148587Y0085494D01*
X0148669Y0085628D01*
X0148754Y0085759D01*
X0148842Y0085887D01*
X0148934Y0086014D01*
X0149029Y0086138D01*
X0149127Y0086260D01*
X0149228Y0086379D01*
X0149332Y0086495D01*
X0149439Y0086609D01*
X0149549Y0086720D01*
X0149661Y0086829D01*
X0149777Y0086934D01*
X0149895Y0087037D01*
X0150015Y0087136D01*
X0150138Y0087232D01*
X0150264Y0087325D01*
X0150391Y0087415D01*
X0150521Y0087502D01*
X0150653Y0087585D01*
X0150788Y0087665D01*
X0150924Y0087742D01*
X0151062Y0087815D01*
X0151202Y0087884D01*
X0151344Y0087950D01*
X0151487Y0088013D01*
X0151632Y0088071D01*
X0151778Y0088126D01*
X0151925Y0088177D01*
X0152074Y0088225D01*
X0152224Y0088269D01*
X0152375Y0088308D01*
X0152527Y0088344D01*
X0152680Y0088376D01*
X0152834Y0088405D01*
X0152988Y0088429D01*
X0153143Y0088449D01*
X0153299Y0088466D01*
X0153454Y0088478D01*
X0153610Y0088487D01*
X0153767Y0088491D01*
X0153923Y0088492D01*
X0154079Y0088488D01*
X0156622Y0088488D01*
X0156834Y0088488D02*
X0191807Y0088488D01*
X0191807Y0076194D01*
X0161709Y0076406D02*
X0161709Y0088488D01*
X0156834Y0088488D02*
X0156678Y0088492D01*
X0156522Y0088491D01*
X0156365Y0088487D01*
X0156209Y0088478D01*
X0156054Y0088466D01*
X0155898Y0088449D01*
X0155743Y0088429D01*
X0155589Y0088405D01*
X0155435Y0088376D01*
X0155282Y0088344D01*
X0155130Y0088308D01*
X0154979Y0088269D01*
X0154829Y0088225D01*
X0154680Y0088177D01*
X0154533Y0088126D01*
X0154387Y0088071D01*
X0154242Y0088013D01*
X0154099Y0087950D01*
X0153957Y0087884D01*
X0153817Y0087815D01*
X0153679Y0087742D01*
X0153543Y0087665D01*
X0153408Y0087585D01*
X0153276Y0087502D01*
X0153146Y0087415D01*
X0153019Y0087325D01*
X0152893Y0087232D01*
X0152770Y0087136D01*
X0152650Y0087037D01*
X0152532Y0086934D01*
X0152416Y0086829D01*
X0152304Y0086720D01*
X0152194Y0086609D01*
X0152087Y0086495D01*
X0151983Y0086379D01*
X0151882Y0086260D01*
X0151784Y0086138D01*
X0151689Y0086014D01*
X0151597Y0085887D01*
X0151509Y0085759D01*
X0151424Y0085628D01*
X0151342Y0085494D01*
X0151264Y0085359D01*
X0151189Y0085222D01*
X0151117Y0085083D01*
X0151050Y0084943D01*
X0150985Y0084800D01*
X0150925Y0084656D01*
X0150868Y0084511D01*
X0150815Y0084364D01*
X0150765Y0084216D01*
X0150719Y0084066D01*
X0150677Y0083916D01*
X0150639Y0083764D01*
X0150605Y0083612D01*
X0150575Y0083458D01*
X0150549Y0083304D01*
X0150526Y0083150D01*
X0150508Y0082995D01*
X0150493Y0082839D01*
X0150482Y0082683D01*
X0150476Y0082527D01*
X0150473Y0082371D01*
X0150474Y0082215D01*
X0150480Y0082059D01*
X0150489Y0081903D01*
X0150502Y0081747D01*
X0150519Y0081592D01*
X0150540Y0081437D01*
X0150565Y0081283D01*
X0150594Y0081129D01*
X0150627Y0080976D01*
X0150663Y0080824D01*
X0150704Y0080674D01*
X0150748Y0080524D01*
X0150796Y0080375D01*
X0150848Y0080228D01*
X0150904Y0080082D01*
X0150963Y0079937D01*
X0151026Y0079794D01*
X0151093Y0079653D01*
X0151163Y0079513D01*
X0151236Y0079375D01*
X0151314Y0079240D01*
X0151394Y0079106D01*
X0151478Y0078974D01*
X0151565Y0078844D01*
X0151656Y0078717D01*
X0151750Y0078592D01*
X0151846Y0078469D01*
X0151946Y0078349D01*
X0152049Y0078232D01*
X0152155Y0078117D01*
X0152264Y0078005D01*
X0152376Y0077896D01*
X0152490Y0077789D01*
X0152607Y0077686D01*
X0152727Y0077585D01*
X0152849Y0077488D01*
X0152973Y0077393D01*
X0153100Y0077302D01*
X0153230Y0077214D01*
X0153361Y0077130D01*
X0153495Y0077049D01*
X0153630Y0076971D01*
X0153767Y0076897D01*
X0153907Y0076826D01*
X0154048Y0076759D01*
X0154190Y0076695D01*
X0154335Y0076635D01*
X0154481Y0076579D01*
X0154628Y0076526D01*
X0154776Y0076478D01*
X0154926Y0076433D01*
X0155076Y0076391D01*
X0155228Y0076354D01*
X0155381Y0076321D01*
X0155534Y0076291D01*
X0155688Y0076265D01*
X0155843Y0076244D01*
X0155998Y0076226D01*
X0156154Y0076212D01*
X0156310Y0076202D01*
X0156466Y0076196D01*
X0156622Y0076194D01*
X0147296Y0068901D02*
X0119742Y0099846D01*
X0118682Y0099846D01*
X0147296Y0068901D02*
X0147296Y0068053D01*
D35*
X0051986Y0102878D03*
X0051986Y0117622D03*
D36*
X0089486Y0121968D03*
X0094486Y0121968D03*
X0099486Y0121968D03*
X0104486Y0121968D03*
X0104486Y0097468D03*
X0099486Y0097468D03*
X0094486Y0097468D03*
X0089486Y0097468D03*
D37*
X0131293Y0109365D03*
D38*
X0131399Y0109259D03*
D39*
X0076011Y0060875D03*
X0069211Y0060875D03*
X0069211Y0158375D03*
X0076011Y0158375D03*
M02*
