G75*
%MOIN*%
%OFA0B0*%
%FSLAX25Y25*%
%IPPOS*%
%LPD*%
%AMOC8*
5,1,8,0,0,1.08239X$1,22.5*
%
%ADD10C,0.00000*%
D10*
X0030421Y0001500D02*
X0325697Y0001500D01*
X0326173Y0001506D01*
X0326648Y0001523D01*
X0327123Y0001552D01*
X0327597Y0001592D01*
X0328070Y0001644D01*
X0328541Y0001707D01*
X0329011Y0001781D01*
X0329479Y0001867D01*
X0329945Y0001964D01*
X0330408Y0002072D01*
X0330868Y0002191D01*
X0331326Y0002322D01*
X0331780Y0002463D01*
X0332231Y0002616D01*
X0332677Y0002779D01*
X0333120Y0002953D01*
X0333558Y0003138D01*
X0333992Y0003333D01*
X0334421Y0003539D01*
X0334845Y0003755D01*
X0335264Y0003981D01*
X0335677Y0004217D01*
X0336084Y0004463D01*
X0336485Y0004719D01*
X0336879Y0004985D01*
X0337268Y0005260D01*
X0337649Y0005544D01*
X0338023Y0005837D01*
X0338391Y0006139D01*
X0338751Y0006451D01*
X0339103Y0006770D01*
X0339447Y0007098D01*
X0339784Y0007435D01*
X0340112Y0007779D01*
X0340431Y0008131D01*
X0340743Y0008491D01*
X0341045Y0008859D01*
X0341338Y0009233D01*
X0341622Y0009614D01*
X0341897Y0010003D01*
X0342163Y0010397D01*
X0342419Y0010798D01*
X0342665Y0011205D01*
X0342901Y0011618D01*
X0343127Y0012037D01*
X0343343Y0012461D01*
X0343549Y0012890D01*
X0343744Y0013324D01*
X0343929Y0013762D01*
X0344103Y0014205D01*
X0344266Y0014651D01*
X0344419Y0015102D01*
X0344560Y0015556D01*
X0344691Y0016014D01*
X0344810Y0016474D01*
X0344918Y0016937D01*
X0345015Y0017403D01*
X0345101Y0017871D01*
X0345175Y0018341D01*
X0345238Y0018812D01*
X0345290Y0019285D01*
X0345330Y0019759D01*
X0345359Y0020234D01*
X0345376Y0020709D01*
X0345382Y0021185D01*
X0345382Y0198350D01*
X0345376Y0198826D01*
X0345359Y0199301D01*
X0345330Y0199776D01*
X0345290Y0200250D01*
X0345238Y0200723D01*
X0345175Y0201194D01*
X0345101Y0201664D01*
X0345015Y0202132D01*
X0344918Y0202598D01*
X0344810Y0203061D01*
X0344691Y0203521D01*
X0344560Y0203979D01*
X0344419Y0204433D01*
X0344266Y0204884D01*
X0344103Y0205330D01*
X0343929Y0205773D01*
X0343744Y0206211D01*
X0343549Y0206645D01*
X0343343Y0207074D01*
X0343127Y0207498D01*
X0342901Y0207917D01*
X0342665Y0208330D01*
X0342419Y0208737D01*
X0342163Y0209138D01*
X0341897Y0209532D01*
X0341622Y0209921D01*
X0341338Y0210302D01*
X0341045Y0210676D01*
X0340743Y0211044D01*
X0340431Y0211404D01*
X0340112Y0211756D01*
X0339784Y0212100D01*
X0339447Y0212437D01*
X0339103Y0212765D01*
X0338751Y0213084D01*
X0338391Y0213396D01*
X0338023Y0213698D01*
X0337649Y0213991D01*
X0337268Y0214275D01*
X0336879Y0214550D01*
X0336485Y0214816D01*
X0336084Y0215072D01*
X0335677Y0215318D01*
X0335264Y0215554D01*
X0334845Y0215780D01*
X0334421Y0215996D01*
X0333992Y0216202D01*
X0333558Y0216397D01*
X0333120Y0216582D01*
X0332677Y0216756D01*
X0332231Y0216919D01*
X0331780Y0217072D01*
X0331326Y0217213D01*
X0330868Y0217344D01*
X0330408Y0217463D01*
X0329945Y0217571D01*
X0329479Y0217668D01*
X0329011Y0217754D01*
X0328541Y0217828D01*
X0328070Y0217891D01*
X0327597Y0217943D01*
X0327123Y0217983D01*
X0326648Y0218012D01*
X0326173Y0218029D01*
X0325697Y0218035D01*
X0030421Y0218035D01*
X0029945Y0218029D01*
X0029470Y0218012D01*
X0028995Y0217983D01*
X0028521Y0217943D01*
X0028048Y0217891D01*
X0027577Y0217828D01*
X0027107Y0217754D01*
X0026639Y0217668D01*
X0026173Y0217571D01*
X0025710Y0217463D01*
X0025250Y0217344D01*
X0024792Y0217213D01*
X0024338Y0217072D01*
X0023887Y0216919D01*
X0023441Y0216756D01*
X0022998Y0216582D01*
X0022560Y0216397D01*
X0022126Y0216202D01*
X0021697Y0215996D01*
X0021273Y0215780D01*
X0020854Y0215554D01*
X0020441Y0215318D01*
X0020034Y0215072D01*
X0019633Y0214816D01*
X0019239Y0214550D01*
X0018850Y0214275D01*
X0018469Y0213991D01*
X0018095Y0213698D01*
X0017727Y0213396D01*
X0017367Y0213084D01*
X0017015Y0212765D01*
X0016671Y0212437D01*
X0016334Y0212100D01*
X0016006Y0211756D01*
X0015687Y0211404D01*
X0015375Y0211044D01*
X0015073Y0210676D01*
X0014780Y0210302D01*
X0014496Y0209921D01*
X0014221Y0209532D01*
X0013955Y0209138D01*
X0013699Y0208737D01*
X0013453Y0208330D01*
X0013217Y0207917D01*
X0012991Y0207498D01*
X0012775Y0207074D01*
X0012569Y0206645D01*
X0012374Y0206211D01*
X0012189Y0205773D01*
X0012015Y0205330D01*
X0011852Y0204884D01*
X0011699Y0204433D01*
X0011558Y0203979D01*
X0011427Y0203521D01*
X0011308Y0203061D01*
X0011200Y0202598D01*
X0011103Y0202132D01*
X0011017Y0201664D01*
X0010943Y0201194D01*
X0010880Y0200723D01*
X0010828Y0200250D01*
X0010788Y0199776D01*
X0010759Y0199301D01*
X0010742Y0198826D01*
X0010736Y0198350D01*
X0010736Y0127750D01*
X0010866Y0127748D01*
X0010995Y0127742D01*
X0011124Y0127733D01*
X0011253Y0127719D01*
X0011382Y0127702D01*
X0011510Y0127681D01*
X0011637Y0127656D01*
X0011764Y0127628D01*
X0011889Y0127595D01*
X0012014Y0127559D01*
X0012137Y0127520D01*
X0012259Y0127476D01*
X0012380Y0127429D01*
X0012500Y0127379D01*
X0012618Y0127325D01*
X0012734Y0127267D01*
X0012848Y0127206D01*
X0012961Y0127142D01*
X0013071Y0127074D01*
X0013180Y0127004D01*
X0013287Y0126930D01*
X0013391Y0126852D01*
X0013493Y0126772D01*
X0013592Y0126689D01*
X0013689Y0126603D01*
X0013783Y0126514D01*
X0013875Y0126422D01*
X0013964Y0126328D01*
X0014050Y0126231D01*
X0014133Y0126132D01*
X0014213Y0126030D01*
X0014291Y0125926D01*
X0014365Y0125819D01*
X0014435Y0125710D01*
X0014503Y0125600D01*
X0014567Y0125487D01*
X0014628Y0125373D01*
X0014686Y0125257D01*
X0014740Y0125139D01*
X0014790Y0125019D01*
X0014837Y0124898D01*
X0014881Y0124776D01*
X0014920Y0124653D01*
X0014956Y0124528D01*
X0014989Y0124403D01*
X0015017Y0124276D01*
X0015042Y0124149D01*
X0015063Y0124021D01*
X0015080Y0123892D01*
X0015094Y0123763D01*
X0015103Y0123634D01*
X0015109Y0123505D01*
X0015111Y0123375D01*
X0015111Y0095875D01*
X0015109Y0095745D01*
X0015103Y0095616D01*
X0015094Y0095487D01*
X0015080Y0095358D01*
X0015063Y0095229D01*
X0015042Y0095101D01*
X0015017Y0094974D01*
X0014989Y0094847D01*
X0014956Y0094722D01*
X0014920Y0094597D01*
X0014881Y0094474D01*
X0014837Y0094352D01*
X0014790Y0094231D01*
X0014740Y0094111D01*
X0014686Y0093993D01*
X0014628Y0093877D01*
X0014567Y0093763D01*
X0014503Y0093650D01*
X0014435Y0093540D01*
X0014365Y0093431D01*
X0014291Y0093324D01*
X0014213Y0093220D01*
X0014133Y0093118D01*
X0014050Y0093019D01*
X0013964Y0092922D01*
X0013875Y0092828D01*
X0013783Y0092736D01*
X0013689Y0092647D01*
X0013592Y0092561D01*
X0013493Y0092478D01*
X0013391Y0092398D01*
X0013287Y0092320D01*
X0013180Y0092246D01*
X0013071Y0092176D01*
X0012961Y0092108D01*
X0012848Y0092044D01*
X0012734Y0091983D01*
X0012618Y0091925D01*
X0012500Y0091871D01*
X0012380Y0091821D01*
X0012259Y0091774D01*
X0012137Y0091730D01*
X0012014Y0091691D01*
X0011889Y0091655D01*
X0011764Y0091622D01*
X0011637Y0091594D01*
X0011510Y0091569D01*
X0011382Y0091548D01*
X0011253Y0091531D01*
X0011124Y0091517D01*
X0010995Y0091508D01*
X0010866Y0091502D01*
X0010736Y0091500D01*
X0010736Y0021185D01*
X0010742Y0020709D01*
X0010759Y0020234D01*
X0010788Y0019759D01*
X0010828Y0019285D01*
X0010880Y0018812D01*
X0010943Y0018341D01*
X0011017Y0017871D01*
X0011103Y0017403D01*
X0011200Y0016937D01*
X0011308Y0016474D01*
X0011427Y0016014D01*
X0011558Y0015556D01*
X0011699Y0015102D01*
X0011852Y0014651D01*
X0012015Y0014205D01*
X0012189Y0013762D01*
X0012374Y0013324D01*
X0012569Y0012890D01*
X0012775Y0012461D01*
X0012991Y0012037D01*
X0013217Y0011618D01*
X0013453Y0011205D01*
X0013699Y0010798D01*
X0013955Y0010397D01*
X0014221Y0010003D01*
X0014496Y0009614D01*
X0014780Y0009233D01*
X0015073Y0008859D01*
X0015375Y0008491D01*
X0015687Y0008131D01*
X0016006Y0007779D01*
X0016334Y0007435D01*
X0016671Y0007098D01*
X0017015Y0006770D01*
X0017367Y0006451D01*
X0017727Y0006139D01*
X0018095Y0005837D01*
X0018469Y0005544D01*
X0018850Y0005260D01*
X0019239Y0004985D01*
X0019633Y0004719D01*
X0020034Y0004463D01*
X0020441Y0004217D01*
X0020854Y0003981D01*
X0021273Y0003755D01*
X0021697Y0003539D01*
X0022126Y0003333D01*
X0022560Y0003138D01*
X0022998Y0002953D01*
X0023441Y0002779D01*
X0023887Y0002616D01*
X0024338Y0002463D01*
X0024792Y0002322D01*
X0025250Y0002191D01*
X0025710Y0002072D01*
X0026173Y0001964D01*
X0026639Y0001867D01*
X0027107Y0001781D01*
X0027577Y0001707D01*
X0028048Y0001644D01*
X0028521Y0001592D01*
X0028995Y0001552D01*
X0029470Y0001523D01*
X0029945Y0001506D01*
X0030421Y0001500D01*
X0021937Y0094413D02*
X0019575Y0094413D01*
X0019509Y0094421D01*
X0019445Y0094433D01*
X0019381Y0094449D01*
X0019318Y0094468D01*
X0019257Y0094492D01*
X0019197Y0094519D01*
X0019139Y0094549D01*
X0019083Y0094583D01*
X0019029Y0094620D01*
X0018977Y0094661D01*
X0018928Y0094705D01*
X0018881Y0094751D01*
X0018838Y0094800D01*
X0018797Y0094852D01*
X0018760Y0094906D01*
X0018726Y0094962D01*
X0018696Y0095020D01*
X0018669Y0095080D01*
X0018645Y0095141D01*
X0018626Y0095204D01*
X0018610Y0095268D01*
X0018598Y0095332D01*
X0018590Y0095398D01*
X0018586Y0095463D01*
X0018586Y0095529D01*
X0018590Y0095594D01*
X0018590Y0095595D02*
X0018586Y0095660D01*
X0018586Y0095726D01*
X0018590Y0095791D01*
X0018598Y0095857D01*
X0018610Y0095921D01*
X0018626Y0095985D01*
X0018645Y0096048D01*
X0018669Y0096109D01*
X0018696Y0096169D01*
X0018726Y0096227D01*
X0018760Y0096283D01*
X0018797Y0096337D01*
X0018838Y0096389D01*
X0018881Y0096438D01*
X0018928Y0096484D01*
X0018977Y0096528D01*
X0019029Y0096569D01*
X0019083Y0096606D01*
X0019139Y0096640D01*
X0019197Y0096670D01*
X0019257Y0096697D01*
X0019318Y0096721D01*
X0019381Y0096740D01*
X0019445Y0096756D01*
X0019509Y0096768D01*
X0019575Y0096776D01*
X0021937Y0096776D01*
X0022000Y0096768D01*
X0022062Y0096757D01*
X0022124Y0096742D01*
X0022184Y0096724D01*
X0022244Y0096702D01*
X0022302Y0096677D01*
X0022358Y0096648D01*
X0022413Y0096616D01*
X0022465Y0096581D01*
X0022516Y0096543D01*
X0022564Y0096503D01*
X0022610Y0096459D01*
X0022653Y0096413D01*
X0022694Y0096364D01*
X0022732Y0096313D01*
X0022766Y0096261D01*
X0022798Y0096206D01*
X0022826Y0096149D01*
X0022851Y0096091D01*
X0022872Y0096031D01*
X0022890Y0095971D01*
X0022904Y0095909D01*
X0022915Y0095847D01*
X0022922Y0095784D01*
X0022926Y0095721D01*
X0022925Y0095658D01*
X0022922Y0095595D01*
X0022922Y0095594D02*
X0022925Y0095531D01*
X0022926Y0095468D01*
X0022922Y0095405D01*
X0022915Y0095342D01*
X0022904Y0095280D01*
X0022890Y0095218D01*
X0022872Y0095158D01*
X0022851Y0095098D01*
X0022826Y0095040D01*
X0022798Y0094983D01*
X0022766Y0094928D01*
X0022732Y0094876D01*
X0022694Y0094825D01*
X0022653Y0094776D01*
X0022610Y0094730D01*
X0022564Y0094686D01*
X0022516Y0094646D01*
X0022465Y0094608D01*
X0022413Y0094573D01*
X0022358Y0094541D01*
X0022302Y0094512D01*
X0022244Y0094487D01*
X0022184Y0094465D01*
X0022124Y0094447D01*
X0022062Y0094432D01*
X0022000Y0094421D01*
X0021937Y0094413D01*
X0021937Y0122760D02*
X0019575Y0122760D01*
X0019509Y0122768D01*
X0019445Y0122780D01*
X0019381Y0122796D01*
X0019318Y0122815D01*
X0019257Y0122839D01*
X0019197Y0122866D01*
X0019139Y0122896D01*
X0019083Y0122930D01*
X0019029Y0122967D01*
X0018977Y0123008D01*
X0018928Y0123052D01*
X0018881Y0123098D01*
X0018838Y0123147D01*
X0018797Y0123199D01*
X0018760Y0123253D01*
X0018726Y0123309D01*
X0018696Y0123367D01*
X0018669Y0123427D01*
X0018645Y0123488D01*
X0018626Y0123551D01*
X0018610Y0123615D01*
X0018598Y0123679D01*
X0018590Y0123745D01*
X0018586Y0123810D01*
X0018586Y0123876D01*
X0018590Y0123941D01*
X0018586Y0124006D01*
X0018586Y0124072D01*
X0018590Y0124137D01*
X0018598Y0124203D01*
X0018610Y0124267D01*
X0018626Y0124331D01*
X0018645Y0124394D01*
X0018669Y0124455D01*
X0018696Y0124515D01*
X0018726Y0124573D01*
X0018760Y0124629D01*
X0018797Y0124683D01*
X0018838Y0124735D01*
X0018881Y0124784D01*
X0018928Y0124830D01*
X0018977Y0124874D01*
X0019029Y0124915D01*
X0019083Y0124952D01*
X0019139Y0124986D01*
X0019197Y0125016D01*
X0019257Y0125043D01*
X0019318Y0125067D01*
X0019381Y0125086D01*
X0019445Y0125102D01*
X0019509Y0125114D01*
X0019575Y0125122D01*
X0021937Y0125122D01*
X0022000Y0125114D01*
X0022062Y0125103D01*
X0022124Y0125088D01*
X0022184Y0125070D01*
X0022244Y0125048D01*
X0022302Y0125023D01*
X0022358Y0124994D01*
X0022413Y0124962D01*
X0022465Y0124927D01*
X0022516Y0124889D01*
X0022564Y0124849D01*
X0022610Y0124805D01*
X0022653Y0124759D01*
X0022694Y0124710D01*
X0022732Y0124659D01*
X0022766Y0124607D01*
X0022798Y0124552D01*
X0022826Y0124495D01*
X0022851Y0124437D01*
X0022872Y0124377D01*
X0022890Y0124317D01*
X0022904Y0124255D01*
X0022915Y0124193D01*
X0022922Y0124130D01*
X0022926Y0124067D01*
X0022925Y0124004D01*
X0022922Y0123941D01*
X0022925Y0123878D01*
X0022926Y0123815D01*
X0022922Y0123752D01*
X0022915Y0123689D01*
X0022904Y0123627D01*
X0022890Y0123565D01*
X0022872Y0123505D01*
X0022851Y0123445D01*
X0022826Y0123387D01*
X0022798Y0123330D01*
X0022766Y0123275D01*
X0022732Y0123223D01*
X0022694Y0123172D01*
X0022653Y0123123D01*
X0022610Y0123077D01*
X0022564Y0123033D01*
X0022516Y0122993D01*
X0022465Y0122955D01*
X0022413Y0122920D01*
X0022358Y0122888D01*
X0022302Y0122859D01*
X0022244Y0122834D01*
X0022184Y0122812D01*
X0022124Y0122794D01*
X0022062Y0122779D01*
X0022000Y0122768D01*
X0021937Y0122760D01*
M02*
