G75*
%MOIN*%
%OFA0B0*%
%FSLAX25Y25*%
%IPPOS*%
%LPD*%
%AMOC8*
5,1,8,0,0,1.08239X$1,22.5*
%
%ADD10C,0.01200*%
%ADD11C,0.07000*%
%ADD12C,0.05543*%
%ADD13R,0.07087X0.07087*%
%ADD14R,0.06299X0.06299*%
%ADD15C,0.01000*%
%ADD16C,0.03569*%
%ADD17C,0.05000*%
%ADD18C,0.01600*%
%ADD19C,0.02400*%
%ADD20C,0.03962*%
D10*
X0052862Y0080225D02*
X0051961Y0081126D01*
X0051961Y0082927D01*
X0052862Y0083828D01*
X0053763Y0083828D01*
X0054664Y0082927D01*
X0054664Y0081126D01*
X0055564Y0080225D01*
X0056465Y0080225D01*
X0057366Y0081126D01*
X0057366Y0082927D01*
X0056465Y0083828D01*
X0052862Y0086302D02*
X0052862Y0087203D01*
X0051961Y0087203D01*
X0051961Y0086302D01*
X0052862Y0086302D01*
X0052862Y0089341D02*
X0051961Y0090242D01*
X0051961Y0092043D01*
X0052862Y0092944D01*
X0053763Y0092944D01*
X0054664Y0092043D01*
X0054664Y0090242D01*
X0055564Y0089341D01*
X0056465Y0089341D01*
X0057366Y0090242D01*
X0057366Y0092043D01*
X0056465Y0092944D01*
X0054664Y0095418D02*
X0052862Y0095418D01*
X0051961Y0096319D01*
X0051961Y0099021D01*
X0051961Y0101495D02*
X0057366Y0101495D01*
X0055564Y0102396D02*
X0055564Y0104197D01*
X0054664Y0105098D01*
X0051961Y0105098D01*
X0051961Y0107572D02*
X0055564Y0107572D01*
X0053763Y0107572D02*
X0055564Y0109374D01*
X0055564Y0110275D01*
X0054664Y0112637D02*
X0055564Y0113537D01*
X0055564Y0115339D01*
X0054664Y0116240D01*
X0053763Y0116240D01*
X0053763Y0112637D01*
X0052862Y0112637D02*
X0054664Y0112637D01*
X0052862Y0112637D02*
X0051961Y0113537D01*
X0051961Y0115339D01*
X0051961Y0118714D02*
X0051961Y0120515D01*
X0051961Y0119615D02*
X0055564Y0119615D01*
X0055564Y0118714D01*
X0057366Y0119615D02*
X0058267Y0119615D01*
X0055564Y0122765D02*
X0055564Y0124567D01*
X0056465Y0123666D02*
X0052862Y0123666D01*
X0051961Y0124567D01*
X0052862Y0126817D02*
X0054664Y0126817D01*
X0055564Y0127718D01*
X0055564Y0129519D01*
X0054664Y0130420D01*
X0053763Y0130420D01*
X0053763Y0126817D01*
X0052862Y0126817D02*
X0051961Y0127718D01*
X0051961Y0129519D01*
X0051961Y0132894D02*
X0055564Y0132894D01*
X0053763Y0132894D02*
X0055564Y0134695D01*
X0055564Y0135596D01*
X0055564Y0102396D02*
X0054664Y0101495D01*
X0055564Y0099021D02*
X0055564Y0096319D01*
X0054664Y0095418D01*
D11*
X0081986Y0085250D03*
X0091986Y0085250D03*
X0101986Y0085250D03*
X0111986Y0085250D03*
X0111986Y0134000D03*
X0101986Y0134000D03*
X0091986Y0134000D03*
X0081986Y0134000D03*
X0056986Y0144000D03*
X0046986Y0144000D03*
D12*
X0031780Y0125154D02*
X0031780Y0119610D01*
X0031780Y0099925D02*
X0031780Y0094382D01*
D13*
X0020756Y0095594D03*
X0020756Y0123941D03*
D14*
X0032547Y0167061D03*
X0041209Y0167061D03*
X0050672Y0167061D03*
X0059334Y0167061D03*
X0068389Y0167061D03*
X0077050Y0167061D03*
X0086297Y0167061D03*
X0094959Y0167061D03*
X0104014Y0167061D03*
X0112675Y0167061D03*
X0121922Y0167061D03*
X0130584Y0167061D03*
X0139639Y0167061D03*
X0148300Y0167061D03*
X0148300Y0175722D03*
X0139639Y0175722D03*
X0130584Y0175722D03*
X0121922Y0175722D03*
X0112675Y0175722D03*
X0104014Y0175722D03*
X0094959Y0175722D03*
X0086297Y0175722D03*
X0077050Y0175722D03*
X0068389Y0175722D03*
X0059334Y0175722D03*
X0050672Y0175722D03*
X0041209Y0175722D03*
X0032547Y0175722D03*
X0032547Y0184778D03*
X0041209Y0184778D03*
X0050672Y0184778D03*
X0059334Y0184778D03*
X0068389Y0184778D03*
X0077050Y0184778D03*
X0086297Y0184778D03*
X0094959Y0184778D03*
X0104014Y0184778D03*
X0112675Y0184778D03*
X0121922Y0184778D03*
X0130584Y0184778D03*
X0139639Y0184778D03*
X0148300Y0184778D03*
X0148300Y0193439D03*
X0139639Y0193439D03*
X0130584Y0193439D03*
X0121922Y0193439D03*
X0112675Y0193439D03*
X0104014Y0193439D03*
X0094959Y0193439D03*
X0086297Y0193439D03*
X0077050Y0193439D03*
X0068389Y0193439D03*
X0059334Y0193439D03*
X0050672Y0193439D03*
X0041209Y0193439D03*
X0032547Y0193439D03*
X0121922Y0157814D03*
X0130584Y0157814D03*
X0139639Y0157814D03*
X0148300Y0157814D03*
X0148300Y0149153D03*
X0139639Y0149153D03*
X0130584Y0149153D03*
X0121922Y0149153D03*
X0121922Y0140097D03*
X0130584Y0140097D03*
X0139639Y0140097D03*
X0148300Y0140097D03*
X0148300Y0131436D03*
X0139639Y0131436D03*
X0139639Y0122957D03*
X0148300Y0122957D03*
X0148300Y0114295D03*
X0139639Y0114295D03*
X0130584Y0114295D03*
X0121922Y0114295D03*
X0121922Y0122957D03*
X0130584Y0122957D03*
X0130584Y0131436D03*
X0121922Y0131436D03*
X0121922Y0105240D03*
X0130584Y0105240D03*
X0139639Y0105240D03*
X0148300Y0105240D03*
X0148300Y0096579D03*
X0139639Y0096579D03*
X0130584Y0096579D03*
X0121922Y0096579D03*
X0121922Y0087814D03*
X0130584Y0087814D03*
X0139639Y0087814D03*
X0148300Y0087814D03*
X0156922Y0087814D03*
X0165584Y0087814D03*
X0174639Y0087814D03*
X0183300Y0087814D03*
X0191922Y0087814D03*
X0200584Y0087814D03*
X0209639Y0087814D03*
X0218300Y0087814D03*
X0226922Y0087814D03*
X0235584Y0087814D03*
X0244639Y0087814D03*
X0253300Y0087814D03*
X0261922Y0087814D03*
X0270584Y0087814D03*
X0279639Y0087814D03*
X0288300Y0087814D03*
X0297547Y0087814D03*
X0306209Y0087814D03*
X0315264Y0087814D03*
X0323925Y0087814D03*
X0323925Y0079153D03*
X0315264Y0079153D03*
X0306209Y0079153D03*
X0297547Y0079153D03*
X0288300Y0079153D03*
X0279639Y0079153D03*
X0270584Y0079153D03*
X0261922Y0079153D03*
X0253300Y0079153D03*
X0244639Y0079153D03*
X0235584Y0079153D03*
X0226922Y0079153D03*
X0218300Y0079153D03*
X0209639Y0079153D03*
X0200584Y0079153D03*
X0191922Y0079153D03*
X0183300Y0079153D03*
X0174639Y0079153D03*
X0165584Y0079153D03*
X0156922Y0079153D03*
X0148300Y0079153D03*
X0139639Y0079153D03*
X0130584Y0079153D03*
X0121922Y0079153D03*
X0121922Y0070097D03*
X0130584Y0070097D03*
X0139639Y0070097D03*
X0148300Y0070097D03*
X0156922Y0070097D03*
X0165584Y0070097D03*
X0174639Y0070097D03*
X0183300Y0070097D03*
X0191922Y0070097D03*
X0200584Y0070097D03*
X0209639Y0070097D03*
X0218300Y0070097D03*
X0226922Y0070097D03*
X0235584Y0070097D03*
X0244639Y0070097D03*
X0253300Y0070097D03*
X0261922Y0070097D03*
X0270584Y0070097D03*
X0279639Y0070097D03*
X0288300Y0070097D03*
X0297547Y0070097D03*
X0306209Y0070097D03*
X0315264Y0070097D03*
X0323925Y0070097D03*
X0323925Y0061436D03*
X0315264Y0061436D03*
X0306209Y0061436D03*
X0297547Y0061436D03*
X0288300Y0061436D03*
X0279639Y0061436D03*
X0270584Y0061436D03*
X0261922Y0061436D03*
X0253300Y0061436D03*
X0244639Y0061436D03*
X0235584Y0061436D03*
X0226922Y0061436D03*
X0218300Y0061436D03*
X0209639Y0061436D03*
X0200584Y0061436D03*
X0191922Y0061436D03*
X0183300Y0061436D03*
X0174639Y0061436D03*
X0165584Y0061436D03*
X0156922Y0061436D03*
X0148300Y0061436D03*
X0139639Y0061436D03*
X0130584Y0061436D03*
X0121922Y0061436D03*
X0121922Y0052814D03*
X0130584Y0052814D03*
X0139639Y0052814D03*
X0148300Y0052814D03*
X0156922Y0052814D03*
X0165584Y0052814D03*
X0174639Y0052814D03*
X0183300Y0052814D03*
X0191922Y0052814D03*
X0200584Y0052814D03*
X0209639Y0052814D03*
X0218300Y0052814D03*
X0226922Y0052814D03*
X0235584Y0052814D03*
X0244639Y0052814D03*
X0253300Y0052814D03*
X0261922Y0052814D03*
X0270584Y0052814D03*
X0279639Y0052814D03*
X0288300Y0052814D03*
X0297547Y0052814D03*
X0306209Y0052814D03*
X0315264Y0052814D03*
X0323925Y0052814D03*
X0323925Y0044153D03*
X0315264Y0044153D03*
X0306209Y0044153D03*
X0297547Y0044153D03*
X0288300Y0044153D03*
X0279639Y0044153D03*
X0270584Y0044153D03*
X0261922Y0044153D03*
X0253300Y0044153D03*
X0244639Y0044153D03*
X0235584Y0044153D03*
X0226922Y0044153D03*
X0218300Y0044153D03*
X0209639Y0044153D03*
X0200584Y0044153D03*
X0191922Y0044153D03*
X0183300Y0044153D03*
X0174639Y0044153D03*
X0165584Y0044153D03*
X0156922Y0044153D03*
X0148300Y0044153D03*
X0139639Y0044153D03*
X0130584Y0044153D03*
X0121922Y0044153D03*
X0112675Y0044153D03*
X0104014Y0044153D03*
X0094959Y0044153D03*
X0086297Y0044153D03*
X0077050Y0044153D03*
X0068389Y0044153D03*
X0059334Y0044153D03*
X0050672Y0044153D03*
X0041209Y0044153D03*
X0032547Y0044153D03*
X0032547Y0052814D03*
X0041209Y0052814D03*
X0050672Y0052814D03*
X0059334Y0052814D03*
X0068389Y0052814D03*
X0077050Y0052814D03*
X0086297Y0052814D03*
X0094959Y0052814D03*
X0104014Y0052814D03*
X0112675Y0052814D03*
X0112675Y0035097D03*
X0104014Y0035097D03*
X0094959Y0035097D03*
X0086297Y0035097D03*
X0077050Y0035097D03*
X0068389Y0035097D03*
X0059334Y0035097D03*
X0050672Y0035097D03*
X0041209Y0035097D03*
X0032547Y0035097D03*
X0032547Y0026436D03*
X0041209Y0026436D03*
X0050672Y0026436D03*
X0059334Y0026436D03*
X0068389Y0026436D03*
X0077050Y0026436D03*
X0086297Y0026436D03*
X0094959Y0026436D03*
X0104014Y0026436D03*
X0112675Y0026436D03*
X0121922Y0026436D03*
X0130584Y0026436D03*
X0139639Y0026436D03*
X0148300Y0026436D03*
X0156922Y0026436D03*
X0165584Y0026436D03*
X0174639Y0026436D03*
X0183300Y0026436D03*
X0191922Y0026436D03*
X0200584Y0026436D03*
X0209639Y0026436D03*
X0218300Y0026436D03*
X0226922Y0026436D03*
X0235584Y0026436D03*
X0244639Y0026436D03*
X0253300Y0026436D03*
X0261922Y0026436D03*
X0270584Y0026436D03*
X0279639Y0026436D03*
X0288300Y0026436D03*
X0297547Y0026436D03*
X0306209Y0026436D03*
X0315264Y0026436D03*
X0323925Y0026436D03*
X0323925Y0035097D03*
X0315264Y0035097D03*
X0306209Y0035097D03*
X0297547Y0035097D03*
X0288300Y0035097D03*
X0279639Y0035097D03*
X0270584Y0035097D03*
X0261922Y0035097D03*
X0253300Y0035097D03*
X0244639Y0035097D03*
X0235584Y0035097D03*
X0226922Y0035097D03*
X0218300Y0035097D03*
X0209639Y0035097D03*
X0200584Y0035097D03*
X0191922Y0035097D03*
X0183300Y0035097D03*
X0174639Y0035097D03*
X0165584Y0035097D03*
X0156922Y0035097D03*
X0148300Y0035097D03*
X0139639Y0035097D03*
X0130584Y0035097D03*
X0121922Y0035097D03*
D15*
X0017564Y0013106D02*
X0016088Y0016170D01*
X0015332Y0019485D01*
X0015236Y0021185D01*
X0015236Y0088174D01*
X0017090Y0089521D01*
X0017090Y0089521D01*
X0017090Y0089521D01*
X0017627Y0090260D01*
X0018061Y0090032D01*
X0018485Y0089994D01*
X0018680Y0089913D01*
X0019371Y0089913D01*
X0020059Y0089851D01*
X0020260Y0089913D01*
X0021252Y0089913D01*
X0021453Y0089851D01*
X0022141Y0089913D01*
X0022832Y0089913D01*
X0023026Y0089994D01*
X0023451Y0090032D01*
X0024439Y0090551D01*
X0024497Y0090551D01*
X0024878Y0090653D01*
X0025220Y0090851D01*
X0025499Y0091130D01*
X0025559Y0091233D01*
X0026842Y0092773D01*
X0027309Y0094272D01*
X0027322Y0094296D01*
X0027324Y0094319D01*
X0027503Y0094895D01*
X0027440Y0095594D01*
X0027503Y0096294D01*
X0027324Y0096870D01*
X0027322Y0096893D01*
X0027309Y0096917D01*
X0026842Y0098416D01*
X0025559Y0099956D01*
X0025499Y0100059D01*
X0025220Y0100338D01*
X0024878Y0100536D01*
X0024497Y0100638D01*
X0024439Y0100638D01*
X0023451Y0101156D01*
X0023026Y0101195D01*
X0022832Y0101276D01*
X0022141Y0101276D01*
X0021453Y0101338D01*
X0021252Y0101276D01*
X0020260Y0101276D01*
X0020059Y0101338D01*
X0019611Y0101297D01*
X0019611Y0118238D01*
X0020059Y0118197D01*
X0020260Y0118260D01*
X0021252Y0118260D01*
X0021453Y0118197D01*
X0022141Y0118260D01*
X0022832Y0118260D01*
X0023026Y0118340D01*
X0023451Y0118379D01*
X0023451Y0118379D01*
X0024439Y0118898D01*
X0024497Y0118898D01*
X0024878Y0119000D01*
X0025220Y0119197D01*
X0025499Y0119477D01*
X0025559Y0119580D01*
X0026842Y0121119D01*
X0026842Y0121119D01*
X0027309Y0122618D01*
X0027322Y0122642D01*
X0027324Y0122665D01*
X0027503Y0123242D01*
X0027440Y0123941D01*
X0027503Y0124640D01*
X0027503Y0124640D01*
X0027324Y0125217D01*
X0027322Y0125240D01*
X0027309Y0125264D01*
X0026842Y0126762D01*
X0026842Y0126762D01*
X0025559Y0128302D01*
X0025499Y0128405D01*
X0025220Y0128685D01*
X0024878Y0128882D01*
X0024497Y0128984D01*
X0024439Y0128984D01*
X0023451Y0129503D01*
X0023026Y0129542D01*
X0022832Y0129622D01*
X0022141Y0129622D01*
X0021453Y0129685D01*
X0021252Y0129622D01*
X0020260Y0129622D01*
X0020059Y0129685D01*
X0019371Y0129622D01*
X0018680Y0129622D01*
X0018485Y0129542D01*
X0018061Y0129503D01*
X0018061Y0129503D01*
X0017477Y0129196D01*
X0017090Y0129729D01*
X0015236Y0131076D01*
X0015236Y0198350D01*
X0015332Y0200051D01*
X0016088Y0203366D01*
X0017564Y0206429D01*
X0019684Y0209088D01*
X0022342Y0211208D01*
X0025406Y0212683D01*
X0028721Y0213440D01*
X0030421Y0213535D01*
X0325697Y0213535D01*
X0327397Y0213440D01*
X0330712Y0212683D01*
X0333776Y0211208D01*
X0336434Y0209088D01*
X0338554Y0206429D01*
X0340030Y0203366D01*
X0340786Y0200051D01*
X0340882Y0198350D01*
X0340882Y0021185D01*
X0340786Y0019485D01*
X0340030Y0016170D01*
X0338554Y0013106D01*
X0336434Y0010448D01*
X0333776Y0008327D01*
X0330712Y0006852D01*
X0327397Y0006095D01*
X0325697Y0006000D01*
X0030421Y0006000D01*
X0028721Y0006095D01*
X0025406Y0006852D01*
X0022342Y0008327D01*
X0019684Y0010448D01*
X0017564Y0013106D01*
X0017383Y0013482D02*
X0338735Y0013482D01*
X0339216Y0014481D02*
X0016902Y0014481D01*
X0016421Y0015479D02*
X0339697Y0015479D01*
X0340100Y0016478D02*
X0016018Y0016478D01*
X0015790Y0017476D02*
X0340328Y0017476D01*
X0340556Y0018475D02*
X0015562Y0018475D01*
X0015334Y0019473D02*
X0340784Y0019473D01*
X0340842Y0020472D02*
X0015276Y0020472D01*
X0015236Y0021470D02*
X0340882Y0021470D01*
X0340882Y0022469D02*
X0328096Y0022469D01*
X0328375Y0022748D02*
X0328375Y0030124D01*
X0327732Y0030767D01*
X0328375Y0031409D01*
X0328375Y0038786D01*
X0327613Y0039547D01*
X0320237Y0039547D01*
X0319594Y0038904D01*
X0318952Y0039547D01*
X0311576Y0039547D01*
X0310814Y0038786D01*
X0310814Y0031409D01*
X0311457Y0030767D01*
X0310814Y0030124D01*
X0310814Y0022748D01*
X0311576Y0021986D01*
X0318952Y0021986D01*
X0319594Y0022629D01*
X0320237Y0021986D01*
X0327613Y0021986D01*
X0328375Y0022748D01*
X0328375Y0023467D02*
X0340882Y0023467D01*
X0340882Y0024466D02*
X0328375Y0024466D01*
X0328375Y0025464D02*
X0340882Y0025464D01*
X0340882Y0026463D02*
X0328375Y0026463D01*
X0328375Y0027461D02*
X0340882Y0027461D01*
X0340882Y0028460D02*
X0328375Y0028460D01*
X0328375Y0029458D02*
X0340882Y0029458D01*
X0340882Y0030457D02*
X0328042Y0030457D01*
X0328375Y0031455D02*
X0340882Y0031455D01*
X0340882Y0032454D02*
X0328375Y0032454D01*
X0328375Y0033452D02*
X0340882Y0033452D01*
X0340882Y0034451D02*
X0328375Y0034451D01*
X0328375Y0035449D02*
X0340882Y0035449D01*
X0340882Y0036448D02*
X0328375Y0036448D01*
X0328375Y0037446D02*
X0340882Y0037446D01*
X0340882Y0038445D02*
X0328375Y0038445D01*
X0327717Y0039443D02*
X0340882Y0039443D01*
X0340882Y0040442D02*
X0328352Y0040442D01*
X0328375Y0040464D02*
X0328375Y0047841D01*
X0327732Y0048483D01*
X0328375Y0049126D01*
X0328375Y0056502D01*
X0327752Y0057125D01*
X0328375Y0057748D01*
X0328375Y0065124D01*
X0327732Y0065767D01*
X0328375Y0066409D01*
X0328375Y0073786D01*
X0327613Y0074547D01*
X0320237Y0074547D01*
X0319594Y0073904D01*
X0318952Y0074547D01*
X0311576Y0074547D01*
X0310814Y0073786D01*
X0310814Y0066409D01*
X0311457Y0065767D01*
X0310814Y0065124D01*
X0310814Y0057748D01*
X0311437Y0057125D01*
X0310814Y0056502D01*
X0310814Y0049126D01*
X0311457Y0048483D01*
X0310814Y0047841D01*
X0310814Y0040464D01*
X0311576Y0039703D01*
X0318952Y0039703D01*
X0319594Y0040346D01*
X0320237Y0039703D01*
X0327613Y0039703D01*
X0328375Y0040464D01*
X0328375Y0041440D02*
X0340882Y0041440D01*
X0340882Y0042439D02*
X0328375Y0042439D01*
X0328375Y0043437D02*
X0340882Y0043437D01*
X0340882Y0044436D02*
X0328375Y0044436D01*
X0328375Y0045434D02*
X0340882Y0045434D01*
X0340882Y0046433D02*
X0328375Y0046433D01*
X0328375Y0047432D02*
X0340882Y0047432D01*
X0340882Y0048430D02*
X0327785Y0048430D01*
X0328375Y0049429D02*
X0340882Y0049429D01*
X0340882Y0050427D02*
X0328375Y0050427D01*
X0328375Y0051426D02*
X0340882Y0051426D01*
X0340882Y0052424D02*
X0328375Y0052424D01*
X0328375Y0053423D02*
X0340882Y0053423D01*
X0340882Y0054421D02*
X0328375Y0054421D01*
X0328375Y0055420D02*
X0340882Y0055420D01*
X0340882Y0056418D02*
X0328375Y0056418D01*
X0328043Y0057417D02*
X0340882Y0057417D01*
X0340882Y0058415D02*
X0328375Y0058415D01*
X0328375Y0059414D02*
X0340882Y0059414D01*
X0340882Y0060412D02*
X0328375Y0060412D01*
X0328375Y0061411D02*
X0340882Y0061411D01*
X0340882Y0062409D02*
X0328375Y0062409D01*
X0328375Y0063408D02*
X0340882Y0063408D01*
X0340882Y0064406D02*
X0328375Y0064406D01*
X0328094Y0065405D02*
X0340882Y0065405D01*
X0340882Y0066403D02*
X0328369Y0066403D01*
X0328375Y0067402D02*
X0340882Y0067402D01*
X0340882Y0068400D02*
X0328375Y0068400D01*
X0328375Y0069399D02*
X0340882Y0069399D01*
X0340882Y0070397D02*
X0328375Y0070397D01*
X0328375Y0071396D02*
X0340882Y0071396D01*
X0340882Y0072394D02*
X0328375Y0072394D01*
X0328375Y0073393D02*
X0340882Y0073393D01*
X0340882Y0074391D02*
X0327769Y0074391D01*
X0327613Y0074703D02*
X0328375Y0075464D01*
X0328375Y0082841D01*
X0327732Y0083483D01*
X0328375Y0084126D01*
X0328375Y0091502D01*
X0327613Y0092264D01*
X0320237Y0092264D01*
X0319594Y0091621D01*
X0318952Y0092264D01*
X0311576Y0092264D01*
X0310814Y0091502D01*
X0310814Y0084126D01*
X0311457Y0083483D01*
X0310814Y0082841D01*
X0310814Y0075464D01*
X0311576Y0074703D01*
X0318952Y0074703D01*
X0319594Y0075346D01*
X0320237Y0074703D01*
X0327613Y0074703D01*
X0328300Y0075390D02*
X0340882Y0075390D01*
X0340882Y0076388D02*
X0328375Y0076388D01*
X0328375Y0077387D02*
X0340882Y0077387D01*
X0340882Y0078385D02*
X0328375Y0078385D01*
X0328375Y0079384D02*
X0340882Y0079384D01*
X0340882Y0080382D02*
X0328375Y0080382D01*
X0328375Y0081381D02*
X0340882Y0081381D01*
X0340882Y0082379D02*
X0328375Y0082379D01*
X0327838Y0083378D02*
X0340882Y0083378D01*
X0340882Y0084376D02*
X0328375Y0084376D01*
X0328375Y0085375D02*
X0340882Y0085375D01*
X0340882Y0086373D02*
X0328375Y0086373D01*
X0328375Y0087372D02*
X0340882Y0087372D01*
X0340882Y0088370D02*
X0328375Y0088370D01*
X0328375Y0089369D02*
X0340882Y0089369D01*
X0340882Y0090368D02*
X0328375Y0090368D01*
X0328375Y0091366D02*
X0340882Y0091366D01*
X0340882Y0092365D02*
X0152224Y0092365D01*
X0152055Y0092196D02*
X0152750Y0092891D01*
X0152750Y0100267D01*
X0152107Y0100909D01*
X0152750Y0101552D01*
X0152750Y0108928D01*
X0151988Y0109690D01*
X0144612Y0109690D01*
X0143969Y0109047D01*
X0143327Y0109690D01*
X0135951Y0109690D01*
X0135189Y0108928D01*
X0135189Y0101552D01*
X0135832Y0100909D01*
X0135189Y0100267D01*
X0135189Y0092891D01*
X0135883Y0092196D01*
X0135189Y0091502D01*
X0135189Y0084126D01*
X0135832Y0083483D01*
X0135189Y0082841D01*
X0135189Y0075464D01*
X0135951Y0074703D01*
X0143327Y0074703D01*
X0143969Y0075346D01*
X0144612Y0074703D01*
X0151988Y0074703D01*
X0152611Y0075326D01*
X0153234Y0074703D01*
X0160610Y0074703D01*
X0161253Y0075346D01*
X0161896Y0074703D01*
X0169272Y0074703D01*
X0170033Y0075464D01*
X0170033Y0082841D01*
X0169391Y0083483D01*
X0170033Y0084126D01*
X0170033Y0091502D01*
X0169272Y0092264D01*
X0161896Y0092264D01*
X0161253Y0091621D01*
X0160610Y0092264D01*
X0153234Y0092264D01*
X0152611Y0091641D01*
X0152055Y0092196D01*
X0152750Y0093363D02*
X0340882Y0093363D01*
X0340882Y0094362D02*
X0152750Y0094362D01*
X0152750Y0095360D02*
X0340882Y0095360D01*
X0340882Y0096359D02*
X0152750Y0096359D01*
X0152750Y0097357D02*
X0340882Y0097357D01*
X0340882Y0098356D02*
X0152750Y0098356D01*
X0152750Y0099354D02*
X0340882Y0099354D01*
X0340882Y0100353D02*
X0152664Y0100353D01*
X0152549Y0101351D02*
X0340882Y0101351D01*
X0340882Y0102350D02*
X0152750Y0102350D01*
X0152750Y0103348D02*
X0340882Y0103348D01*
X0340882Y0104347D02*
X0152750Y0104347D01*
X0152750Y0105345D02*
X0340882Y0105345D01*
X0340882Y0106344D02*
X0152750Y0106344D01*
X0152750Y0107342D02*
X0340882Y0107342D01*
X0340882Y0108341D02*
X0152750Y0108341D01*
X0152339Y0109339D02*
X0340882Y0109339D01*
X0340882Y0110338D02*
X0152480Y0110338D01*
X0152750Y0110607D02*
X0152750Y0117983D01*
X0152107Y0118626D01*
X0152750Y0119269D01*
X0152750Y0126645D01*
X0152198Y0127196D01*
X0152750Y0127748D01*
X0152750Y0135124D01*
X0152107Y0135767D01*
X0152750Y0136409D01*
X0152750Y0143786D01*
X0151988Y0144547D01*
X0144612Y0144547D01*
X0143969Y0143904D01*
X0143327Y0144547D01*
X0135951Y0144547D01*
X0135189Y0143786D01*
X0135189Y0136409D01*
X0135832Y0135767D01*
X0135189Y0135124D01*
X0135189Y0127748D01*
X0135741Y0127196D01*
X0135189Y0126645D01*
X0135189Y0119269D01*
X0135832Y0118626D01*
X0135189Y0117983D01*
X0135189Y0110607D01*
X0135951Y0109846D01*
X0143327Y0109846D01*
X0143969Y0110488D01*
X0144612Y0109846D01*
X0151988Y0109846D01*
X0152750Y0110607D01*
X0152750Y0111336D02*
X0340882Y0111336D01*
X0340882Y0112335D02*
X0152750Y0112335D01*
X0152750Y0113333D02*
X0340882Y0113333D01*
X0340882Y0114332D02*
X0152750Y0114332D01*
X0152750Y0115330D02*
X0340882Y0115330D01*
X0340882Y0116329D02*
X0152750Y0116329D01*
X0152750Y0117327D02*
X0340882Y0117327D01*
X0340882Y0118326D02*
X0152407Y0118326D01*
X0152750Y0119324D02*
X0340882Y0119324D01*
X0340882Y0120323D02*
X0152750Y0120323D01*
X0152750Y0121321D02*
X0340882Y0121321D01*
X0340882Y0122320D02*
X0152750Y0122320D01*
X0152750Y0123318D02*
X0340882Y0123318D01*
X0340882Y0124317D02*
X0152750Y0124317D01*
X0152750Y0125315D02*
X0340882Y0125315D01*
X0340882Y0126314D02*
X0152750Y0126314D01*
X0152314Y0127312D02*
X0340882Y0127312D01*
X0340882Y0128311D02*
X0152750Y0128311D01*
X0152750Y0129309D02*
X0340882Y0129309D01*
X0340882Y0130308D02*
X0152750Y0130308D01*
X0152750Y0131306D02*
X0340882Y0131306D01*
X0340882Y0132305D02*
X0152750Y0132305D01*
X0152750Y0133303D02*
X0340882Y0133303D01*
X0340882Y0134302D02*
X0152750Y0134302D01*
X0152573Y0135301D02*
X0340882Y0135301D01*
X0340882Y0136299D02*
X0152639Y0136299D01*
X0152750Y0137298D02*
X0340882Y0137298D01*
X0340882Y0138296D02*
X0152750Y0138296D01*
X0152750Y0139295D02*
X0340882Y0139295D01*
X0340882Y0140293D02*
X0152750Y0140293D01*
X0152750Y0141292D02*
X0340882Y0141292D01*
X0340882Y0142290D02*
X0152750Y0142290D01*
X0152750Y0143289D02*
X0340882Y0143289D01*
X0340882Y0144287D02*
X0152248Y0144287D01*
X0151988Y0144703D02*
X0152750Y0145464D01*
X0152750Y0152841D01*
X0152107Y0153483D01*
X0152750Y0154126D01*
X0152750Y0161502D01*
X0151988Y0162264D01*
X0144612Y0162264D01*
X0143969Y0161621D01*
X0143327Y0162264D01*
X0135951Y0162264D01*
X0135189Y0161502D01*
X0135189Y0154126D01*
X0135832Y0153483D01*
X0135189Y0152841D01*
X0135189Y0145464D01*
X0135951Y0144703D01*
X0143327Y0144703D01*
X0143969Y0145346D01*
X0144612Y0144703D01*
X0151988Y0144703D01*
X0152571Y0145286D02*
X0340882Y0145286D01*
X0340882Y0146284D02*
X0152750Y0146284D01*
X0152750Y0147283D02*
X0340882Y0147283D01*
X0340882Y0148281D02*
X0152750Y0148281D01*
X0152750Y0149280D02*
X0340882Y0149280D01*
X0340882Y0150278D02*
X0152750Y0150278D01*
X0152750Y0151277D02*
X0340882Y0151277D01*
X0340882Y0152275D02*
X0152750Y0152275D01*
X0152317Y0153274D02*
X0340882Y0153274D01*
X0340882Y0154272D02*
X0152750Y0154272D01*
X0152750Y0155271D02*
X0340882Y0155271D01*
X0340882Y0156269D02*
X0152750Y0156269D01*
X0152750Y0157268D02*
X0340882Y0157268D01*
X0340882Y0158266D02*
X0152750Y0158266D01*
X0152750Y0159265D02*
X0340882Y0159265D01*
X0340882Y0160263D02*
X0152750Y0160263D01*
X0152750Y0161262D02*
X0340882Y0161262D01*
X0340882Y0162260D02*
X0151992Y0162260D01*
X0151988Y0162611D02*
X0152750Y0163373D01*
X0152750Y0170749D01*
X0152107Y0171392D01*
X0152750Y0172034D01*
X0152750Y0179411D01*
X0151988Y0180172D01*
X0144612Y0180172D01*
X0143969Y0179529D01*
X0143327Y0180172D01*
X0135951Y0180172D01*
X0135189Y0179411D01*
X0135189Y0172034D01*
X0135832Y0171392D01*
X0135189Y0170749D01*
X0135189Y0163373D01*
X0135951Y0162611D01*
X0143327Y0162611D01*
X0143969Y0163254D01*
X0144612Y0162611D01*
X0151988Y0162611D01*
X0152636Y0163259D02*
X0340882Y0163259D01*
X0340882Y0164257D02*
X0152750Y0164257D01*
X0152750Y0165256D02*
X0340882Y0165256D01*
X0340882Y0166254D02*
X0152750Y0166254D01*
X0152750Y0167253D02*
X0340882Y0167253D01*
X0340882Y0168251D02*
X0152750Y0168251D01*
X0152750Y0169250D02*
X0340882Y0169250D01*
X0340882Y0170248D02*
X0152750Y0170248D01*
X0152252Y0171247D02*
X0340882Y0171247D01*
X0340882Y0172245D02*
X0152750Y0172245D01*
X0152750Y0173244D02*
X0340882Y0173244D01*
X0340882Y0174242D02*
X0152750Y0174242D01*
X0152750Y0175241D02*
X0340882Y0175241D01*
X0340882Y0176239D02*
X0152750Y0176239D01*
X0152750Y0177238D02*
X0340882Y0177238D01*
X0340882Y0178237D02*
X0152750Y0178237D01*
X0152750Y0179235D02*
X0340882Y0179235D01*
X0340882Y0180234D02*
X0015236Y0180234D01*
X0015236Y0181232D02*
X0028098Y0181232D01*
X0028098Y0181089D02*
X0028859Y0180328D01*
X0036235Y0180328D01*
X0036878Y0180971D01*
X0037521Y0180328D01*
X0044897Y0180328D01*
X0045658Y0181089D01*
X0045658Y0188466D01*
X0045016Y0189108D01*
X0045658Y0189751D01*
X0045658Y0197127D01*
X0044897Y0197889D01*
X0037521Y0197889D01*
X0036878Y0197246D01*
X0036235Y0197889D01*
X0028859Y0197889D01*
X0028098Y0197127D01*
X0028098Y0189751D01*
X0028740Y0189108D01*
X0028098Y0188466D01*
X0028098Y0181089D01*
X0028098Y0182231D02*
X0015236Y0182231D01*
X0015236Y0183229D02*
X0028098Y0183229D01*
X0028098Y0184228D02*
X0015236Y0184228D01*
X0015236Y0185226D02*
X0028098Y0185226D01*
X0028098Y0186225D02*
X0015236Y0186225D01*
X0015236Y0187223D02*
X0028098Y0187223D01*
X0028098Y0188222D02*
X0015236Y0188222D01*
X0015236Y0189220D02*
X0028628Y0189220D01*
X0028098Y0190219D02*
X0015236Y0190219D01*
X0015236Y0191217D02*
X0028098Y0191217D01*
X0028098Y0192216D02*
X0015236Y0192216D01*
X0015236Y0193214D02*
X0028098Y0193214D01*
X0028098Y0194213D02*
X0015236Y0194213D01*
X0015236Y0195211D02*
X0028098Y0195211D01*
X0028098Y0196210D02*
X0015236Y0196210D01*
X0015236Y0197208D02*
X0028179Y0197208D01*
X0015236Y0198207D02*
X0340882Y0198207D01*
X0340882Y0197208D02*
X0152669Y0197208D01*
X0152750Y0197127D02*
X0151988Y0197889D01*
X0144612Y0197889D01*
X0143969Y0197246D01*
X0143327Y0197889D01*
X0135951Y0197889D01*
X0135189Y0197127D01*
X0135189Y0189751D01*
X0135832Y0189108D01*
X0135189Y0188466D01*
X0135189Y0181089D01*
X0135951Y0180328D01*
X0143327Y0180328D01*
X0143969Y0180971D01*
X0144612Y0180328D01*
X0151988Y0180328D01*
X0152750Y0181089D01*
X0152750Y0188466D01*
X0152107Y0189108D01*
X0152750Y0189751D01*
X0152750Y0197127D01*
X0152750Y0196210D02*
X0340882Y0196210D01*
X0340882Y0195211D02*
X0152750Y0195211D01*
X0152750Y0194213D02*
X0340882Y0194213D01*
X0340882Y0193214D02*
X0152750Y0193214D01*
X0152750Y0192216D02*
X0340882Y0192216D01*
X0340882Y0191217D02*
X0152750Y0191217D01*
X0152750Y0190219D02*
X0340882Y0190219D01*
X0340882Y0189220D02*
X0152219Y0189220D01*
X0152750Y0188222D02*
X0340882Y0188222D01*
X0340882Y0187223D02*
X0152750Y0187223D01*
X0152750Y0186225D02*
X0340882Y0186225D01*
X0340882Y0185226D02*
X0152750Y0185226D01*
X0152750Y0184228D02*
X0340882Y0184228D01*
X0340882Y0183229D02*
X0152750Y0183229D01*
X0152750Y0182231D02*
X0340882Y0182231D01*
X0340882Y0181232D02*
X0152750Y0181232D01*
X0135720Y0189220D02*
X0134502Y0189220D01*
X0134391Y0189108D02*
X0135033Y0189751D01*
X0135033Y0197127D01*
X0134272Y0197889D01*
X0126896Y0197889D01*
X0126253Y0197246D01*
X0125610Y0197889D01*
X0118234Y0197889D01*
X0117473Y0197127D01*
X0117473Y0189751D01*
X0118115Y0189108D01*
X0117473Y0188466D01*
X0117473Y0181089D01*
X0118234Y0180328D01*
X0125610Y0180328D01*
X0126253Y0180971D01*
X0126896Y0180328D01*
X0134272Y0180328D01*
X0135033Y0181089D01*
X0135033Y0188466D01*
X0134391Y0189108D01*
X0135033Y0188222D02*
X0135189Y0188222D01*
X0135189Y0187223D02*
X0135033Y0187223D01*
X0135033Y0186225D02*
X0135189Y0186225D01*
X0135189Y0185226D02*
X0135033Y0185226D01*
X0135033Y0184228D02*
X0135189Y0184228D01*
X0135189Y0183229D02*
X0135033Y0183229D01*
X0135033Y0182231D02*
X0135189Y0182231D01*
X0135189Y0181232D02*
X0135033Y0181232D01*
X0134272Y0180172D02*
X0126896Y0180172D01*
X0126253Y0179529D01*
X0125610Y0180172D01*
X0118234Y0180172D01*
X0117473Y0179411D01*
X0117473Y0172034D01*
X0118115Y0171392D01*
X0117473Y0170749D01*
X0117473Y0163373D01*
X0118234Y0162611D01*
X0125610Y0162611D01*
X0126253Y0163254D01*
X0126896Y0162611D01*
X0134272Y0162611D01*
X0135033Y0163373D01*
X0135033Y0170749D01*
X0134391Y0171392D01*
X0135033Y0172034D01*
X0135033Y0179411D01*
X0134272Y0180172D01*
X0135033Y0179235D02*
X0135189Y0179235D01*
X0135189Y0178237D02*
X0135033Y0178237D01*
X0135033Y0177238D02*
X0135189Y0177238D01*
X0135189Y0176239D02*
X0135033Y0176239D01*
X0135033Y0175241D02*
X0135189Y0175241D01*
X0135189Y0174242D02*
X0135033Y0174242D01*
X0135033Y0173244D02*
X0135189Y0173244D01*
X0135189Y0172245D02*
X0135033Y0172245D01*
X0134535Y0171247D02*
X0135687Y0171247D01*
X0135189Y0170248D02*
X0135033Y0170248D01*
X0135033Y0169250D02*
X0135189Y0169250D01*
X0135189Y0168251D02*
X0135033Y0168251D01*
X0135033Y0167253D02*
X0135189Y0167253D01*
X0135189Y0166254D02*
X0135033Y0166254D01*
X0135033Y0165256D02*
X0135189Y0165256D01*
X0135189Y0164257D02*
X0135033Y0164257D01*
X0134919Y0163259D02*
X0135303Y0163259D01*
X0135947Y0162260D02*
X0134275Y0162260D01*
X0134272Y0162264D02*
X0126896Y0162264D01*
X0126253Y0161621D01*
X0125610Y0162264D01*
X0118234Y0162264D01*
X0117473Y0161502D01*
X0117473Y0154126D01*
X0118115Y0153483D01*
X0117473Y0152841D01*
X0117473Y0145464D01*
X0118234Y0144703D01*
X0125610Y0144703D01*
X0126253Y0145346D01*
X0126896Y0144703D01*
X0134272Y0144703D01*
X0135033Y0145464D01*
X0135033Y0152841D01*
X0134391Y0153483D01*
X0135033Y0154126D01*
X0135033Y0161502D01*
X0134272Y0162264D01*
X0135033Y0161262D02*
X0135189Y0161262D01*
X0135189Y0160263D02*
X0135033Y0160263D01*
X0135033Y0159265D02*
X0135189Y0159265D01*
X0135189Y0158266D02*
X0135033Y0158266D01*
X0135033Y0157268D02*
X0135189Y0157268D01*
X0135189Y0156269D02*
X0135033Y0156269D01*
X0135033Y0155271D02*
X0135189Y0155271D01*
X0135189Y0154272D02*
X0135033Y0154272D01*
X0134600Y0153274D02*
X0135622Y0153274D01*
X0135189Y0152275D02*
X0135033Y0152275D01*
X0135033Y0151277D02*
X0135189Y0151277D01*
X0135189Y0150278D02*
X0135033Y0150278D01*
X0135033Y0149280D02*
X0135189Y0149280D01*
X0135189Y0148281D02*
X0135033Y0148281D01*
X0135033Y0147283D02*
X0135189Y0147283D01*
X0135189Y0146284D02*
X0135033Y0146284D01*
X0134854Y0145286D02*
X0135368Y0145286D01*
X0135691Y0144287D02*
X0134532Y0144287D01*
X0134272Y0144547D02*
X0126896Y0144547D01*
X0126253Y0143904D01*
X0125610Y0144547D01*
X0118234Y0144547D01*
X0117473Y0143786D01*
X0117473Y0136409D01*
X0118115Y0135767D01*
X0117473Y0135124D01*
X0117473Y0127748D01*
X0118024Y0127196D01*
X0117473Y0126645D01*
X0117473Y0119269D01*
X0118115Y0118626D01*
X0117473Y0117983D01*
X0117473Y0110607D01*
X0118234Y0109846D01*
X0125610Y0109846D01*
X0126253Y0110488D01*
X0126896Y0109846D01*
X0134272Y0109846D01*
X0135033Y0110607D01*
X0135033Y0117983D01*
X0134391Y0118626D01*
X0135033Y0119269D01*
X0135033Y0126645D01*
X0134482Y0127196D01*
X0135033Y0127748D01*
X0135033Y0135124D01*
X0134391Y0135767D01*
X0135033Y0136409D01*
X0135033Y0143786D01*
X0134272Y0144547D01*
X0135033Y0143289D02*
X0135189Y0143289D01*
X0135189Y0142290D02*
X0135033Y0142290D01*
X0135033Y0141292D02*
X0135189Y0141292D01*
X0135189Y0140293D02*
X0135033Y0140293D01*
X0135033Y0139295D02*
X0135189Y0139295D01*
X0135189Y0138296D02*
X0135033Y0138296D01*
X0135033Y0137298D02*
X0135189Y0137298D01*
X0135299Y0136299D02*
X0134923Y0136299D01*
X0134857Y0135301D02*
X0135366Y0135301D01*
X0135189Y0134302D02*
X0135033Y0134302D01*
X0135033Y0133303D02*
X0135189Y0133303D01*
X0135189Y0132305D02*
X0135033Y0132305D01*
X0135033Y0131306D02*
X0135189Y0131306D01*
X0135189Y0130308D02*
X0135033Y0130308D01*
X0135033Y0129309D02*
X0135189Y0129309D01*
X0135189Y0128311D02*
X0135033Y0128311D01*
X0134598Y0127312D02*
X0135625Y0127312D01*
X0135189Y0126314D02*
X0135033Y0126314D01*
X0135033Y0125315D02*
X0135189Y0125315D01*
X0135189Y0124317D02*
X0135033Y0124317D01*
X0135033Y0123318D02*
X0135189Y0123318D01*
X0135189Y0122320D02*
X0135033Y0122320D01*
X0135033Y0121321D02*
X0135189Y0121321D01*
X0135189Y0120323D02*
X0135033Y0120323D01*
X0135033Y0119324D02*
X0135189Y0119324D01*
X0135532Y0118326D02*
X0134691Y0118326D01*
X0135033Y0117327D02*
X0135189Y0117327D01*
X0135189Y0116329D02*
X0135033Y0116329D01*
X0135033Y0115330D02*
X0135189Y0115330D01*
X0135189Y0114332D02*
X0135033Y0114332D01*
X0135033Y0113333D02*
X0135189Y0113333D01*
X0135189Y0112335D02*
X0135033Y0112335D01*
X0135033Y0111336D02*
X0135189Y0111336D01*
X0135459Y0110338D02*
X0134764Y0110338D01*
X0134272Y0109690D02*
X0126896Y0109690D01*
X0126253Y0109047D01*
X0125610Y0109690D01*
X0118234Y0109690D01*
X0117473Y0108928D01*
X0117473Y0101552D01*
X0118115Y0100909D01*
X0117473Y0100267D01*
X0117473Y0092891D01*
X0118167Y0092196D01*
X0117473Y0091502D01*
X0117473Y0084126D01*
X0118115Y0083483D01*
X0117473Y0082841D01*
X0117473Y0075464D01*
X0118234Y0074703D01*
X0125610Y0074703D01*
X0126253Y0075346D01*
X0126896Y0074703D01*
X0134272Y0074703D01*
X0135033Y0075464D01*
X0135033Y0082841D01*
X0134391Y0083483D01*
X0135033Y0084126D01*
X0135033Y0091502D01*
X0134339Y0092196D01*
X0135033Y0092891D01*
X0135033Y0100267D01*
X0134391Y0100909D01*
X0135033Y0101552D01*
X0135033Y0108928D01*
X0134272Y0109690D01*
X0134622Y0109339D02*
X0135600Y0109339D01*
X0135189Y0108341D02*
X0135033Y0108341D01*
X0135033Y0107342D02*
X0135189Y0107342D01*
X0135189Y0106344D02*
X0135033Y0106344D01*
X0135033Y0105345D02*
X0135189Y0105345D01*
X0135189Y0104347D02*
X0135033Y0104347D01*
X0135033Y0103348D02*
X0135189Y0103348D01*
X0135189Y0102350D02*
X0135033Y0102350D01*
X0134832Y0101351D02*
X0135390Y0101351D01*
X0135275Y0100353D02*
X0134947Y0100353D01*
X0135033Y0099354D02*
X0135189Y0099354D01*
X0135189Y0098356D02*
X0135033Y0098356D01*
X0135033Y0097357D02*
X0135189Y0097357D01*
X0135189Y0096359D02*
X0135033Y0096359D01*
X0135033Y0095360D02*
X0135189Y0095360D01*
X0135189Y0094362D02*
X0135033Y0094362D01*
X0135033Y0093363D02*
X0135189Y0093363D01*
X0135715Y0092365D02*
X0134507Y0092365D01*
X0135033Y0091366D02*
X0135189Y0091366D01*
X0135189Y0090368D02*
X0135033Y0090368D01*
X0135033Y0089369D02*
X0135189Y0089369D01*
X0135189Y0088370D02*
X0135033Y0088370D01*
X0135033Y0087372D02*
X0135189Y0087372D01*
X0135189Y0086373D02*
X0135033Y0086373D01*
X0135033Y0085375D02*
X0135189Y0085375D01*
X0135189Y0084376D02*
X0135033Y0084376D01*
X0134496Y0083378D02*
X0135726Y0083378D01*
X0135189Y0082379D02*
X0135033Y0082379D01*
X0135033Y0081381D02*
X0135189Y0081381D01*
X0135189Y0080382D02*
X0135033Y0080382D01*
X0135033Y0079384D02*
X0135189Y0079384D01*
X0135189Y0078385D02*
X0135033Y0078385D01*
X0135033Y0077387D02*
X0135189Y0077387D01*
X0135189Y0076388D02*
X0135033Y0076388D01*
X0134959Y0075390D02*
X0135264Y0075390D01*
X0135951Y0074547D02*
X0135189Y0073786D01*
X0135189Y0066409D01*
X0135832Y0065767D01*
X0135189Y0065124D01*
X0135189Y0057748D01*
X0135812Y0057125D01*
X0135189Y0056502D01*
X0135189Y0049126D01*
X0135832Y0048483D01*
X0135189Y0047841D01*
X0135189Y0040464D01*
X0135951Y0039703D01*
X0143327Y0039703D01*
X0143969Y0040346D01*
X0144612Y0039703D01*
X0151988Y0039703D01*
X0152611Y0040326D01*
X0153234Y0039703D01*
X0160610Y0039703D01*
X0161253Y0040346D01*
X0161896Y0039703D01*
X0169272Y0039703D01*
X0170033Y0040464D01*
X0170033Y0047841D01*
X0169391Y0048483D01*
X0170033Y0049126D01*
X0170033Y0056502D01*
X0169410Y0057125D01*
X0170033Y0057748D01*
X0170033Y0065124D01*
X0169391Y0065767D01*
X0170033Y0066409D01*
X0170033Y0073786D01*
X0169272Y0074547D01*
X0161896Y0074547D01*
X0161253Y0073904D01*
X0160610Y0074547D01*
X0153234Y0074547D01*
X0152611Y0073924D01*
X0151988Y0074547D01*
X0144612Y0074547D01*
X0143969Y0073904D01*
X0143327Y0074547D01*
X0135951Y0074547D01*
X0135795Y0074391D02*
X0134427Y0074391D01*
X0134272Y0074547D02*
X0126896Y0074547D01*
X0126253Y0073904D01*
X0125610Y0074547D01*
X0118234Y0074547D01*
X0117473Y0073786D01*
X0117473Y0066409D01*
X0118115Y0065767D01*
X0117473Y0065124D01*
X0117473Y0057748D01*
X0118096Y0057125D01*
X0117473Y0056502D01*
X0117473Y0049126D01*
X0118115Y0048483D01*
X0117473Y0047841D01*
X0117473Y0040464D01*
X0118234Y0039703D01*
X0125610Y0039703D01*
X0126253Y0040346D01*
X0126896Y0039703D01*
X0134272Y0039703D01*
X0135033Y0040464D01*
X0135033Y0047841D01*
X0134391Y0048483D01*
X0135033Y0049126D01*
X0135033Y0056502D01*
X0134410Y0057125D01*
X0135033Y0057748D01*
X0135033Y0065124D01*
X0134391Y0065767D01*
X0135033Y0066409D01*
X0135033Y0073786D01*
X0134272Y0074547D01*
X0135033Y0073393D02*
X0135189Y0073393D01*
X0135189Y0072394D02*
X0135033Y0072394D01*
X0135033Y0071396D02*
X0135189Y0071396D01*
X0135189Y0070397D02*
X0135033Y0070397D01*
X0135033Y0069399D02*
X0135189Y0069399D01*
X0135189Y0068400D02*
X0135033Y0068400D01*
X0135033Y0067402D02*
X0135189Y0067402D01*
X0135195Y0066403D02*
X0135027Y0066403D01*
X0134753Y0065405D02*
X0135470Y0065405D01*
X0135189Y0064406D02*
X0135033Y0064406D01*
X0135033Y0063408D02*
X0135189Y0063408D01*
X0135189Y0062409D02*
X0135033Y0062409D01*
X0135033Y0061411D02*
X0135189Y0061411D01*
X0135189Y0060412D02*
X0135033Y0060412D01*
X0135033Y0059414D02*
X0135189Y0059414D01*
X0135189Y0058415D02*
X0135033Y0058415D01*
X0134702Y0057417D02*
X0135520Y0057417D01*
X0135189Y0056418D02*
X0135033Y0056418D01*
X0135033Y0055420D02*
X0135189Y0055420D01*
X0135189Y0054421D02*
X0135033Y0054421D01*
X0135033Y0053423D02*
X0135189Y0053423D01*
X0135189Y0052424D02*
X0135033Y0052424D01*
X0135033Y0051426D02*
X0135189Y0051426D01*
X0135189Y0050427D02*
X0135033Y0050427D01*
X0135033Y0049429D02*
X0135189Y0049429D01*
X0135779Y0048430D02*
X0134444Y0048430D01*
X0135033Y0047432D02*
X0135189Y0047432D01*
X0135189Y0046433D02*
X0135033Y0046433D01*
X0135033Y0045434D02*
X0135189Y0045434D01*
X0135189Y0044436D02*
X0135033Y0044436D01*
X0135033Y0043437D02*
X0135189Y0043437D01*
X0135189Y0042439D02*
X0135033Y0042439D01*
X0135033Y0041440D02*
X0135189Y0041440D01*
X0135212Y0040442D02*
X0135011Y0040442D01*
X0134272Y0039547D02*
X0126896Y0039547D01*
X0126253Y0038904D01*
X0125610Y0039547D01*
X0118234Y0039547D01*
X0117473Y0038786D01*
X0117473Y0031409D01*
X0118115Y0030767D01*
X0117473Y0030124D01*
X0117473Y0022748D01*
X0118234Y0021986D01*
X0125610Y0021986D01*
X0126253Y0022629D01*
X0126896Y0021986D01*
X0134272Y0021986D01*
X0135033Y0022748D01*
X0135033Y0030124D01*
X0134391Y0030767D01*
X0135033Y0031409D01*
X0135033Y0038786D01*
X0134272Y0039547D01*
X0134375Y0039443D02*
X0135847Y0039443D01*
X0135951Y0039547D02*
X0135189Y0038786D01*
X0135189Y0031409D01*
X0135832Y0030767D01*
X0135189Y0030124D01*
X0135189Y0022748D01*
X0135951Y0021986D01*
X0143327Y0021986D01*
X0143969Y0022629D01*
X0144612Y0021986D01*
X0151988Y0021986D01*
X0152611Y0022609D01*
X0153234Y0021986D01*
X0160610Y0021986D01*
X0161253Y0022629D01*
X0161896Y0021986D01*
X0169272Y0021986D01*
X0170033Y0022748D01*
X0170033Y0030124D01*
X0169391Y0030767D01*
X0170033Y0031409D01*
X0170033Y0038786D01*
X0169272Y0039547D01*
X0161896Y0039547D01*
X0161253Y0038904D01*
X0160610Y0039547D01*
X0153234Y0039547D01*
X0152611Y0038924D01*
X0151988Y0039547D01*
X0144612Y0039547D01*
X0143969Y0038904D01*
X0143327Y0039547D01*
X0135951Y0039547D01*
X0135189Y0038445D02*
X0135033Y0038445D01*
X0135033Y0037446D02*
X0135189Y0037446D01*
X0135189Y0036448D02*
X0135033Y0036448D01*
X0135033Y0035449D02*
X0135189Y0035449D01*
X0135189Y0034451D02*
X0135033Y0034451D01*
X0135033Y0033452D02*
X0135189Y0033452D01*
X0135189Y0032454D02*
X0135033Y0032454D01*
X0135033Y0031455D02*
X0135189Y0031455D01*
X0135522Y0030457D02*
X0134701Y0030457D01*
X0135033Y0029458D02*
X0135189Y0029458D01*
X0135189Y0028460D02*
X0135033Y0028460D01*
X0135033Y0027461D02*
X0135189Y0027461D01*
X0135189Y0026463D02*
X0135033Y0026463D01*
X0135033Y0025464D02*
X0135189Y0025464D01*
X0135189Y0024466D02*
X0135033Y0024466D01*
X0135033Y0023467D02*
X0135189Y0023467D01*
X0135468Y0022469D02*
X0134754Y0022469D01*
X0126413Y0022469D02*
X0126093Y0022469D01*
X0117752Y0022469D02*
X0116846Y0022469D01*
X0117125Y0022748D02*
X0117125Y0030124D01*
X0116482Y0030767D01*
X0117125Y0031409D01*
X0117125Y0038786D01*
X0116363Y0039547D01*
X0108987Y0039547D01*
X0108344Y0038904D01*
X0107702Y0039547D01*
X0100326Y0039547D01*
X0099564Y0038786D01*
X0099564Y0031409D01*
X0100207Y0030767D01*
X0099564Y0030124D01*
X0099564Y0022748D01*
X0100326Y0021986D01*
X0107702Y0021986D01*
X0108344Y0022629D01*
X0108987Y0021986D01*
X0116363Y0021986D01*
X0117125Y0022748D01*
X0117125Y0023467D02*
X0117473Y0023467D01*
X0117473Y0024466D02*
X0117125Y0024466D01*
X0117125Y0025464D02*
X0117473Y0025464D01*
X0117473Y0026463D02*
X0117125Y0026463D01*
X0117125Y0027461D02*
X0117473Y0027461D01*
X0117473Y0028460D02*
X0117125Y0028460D01*
X0117125Y0029458D02*
X0117473Y0029458D01*
X0117805Y0030457D02*
X0116792Y0030457D01*
X0117125Y0031455D02*
X0117473Y0031455D01*
X0117473Y0032454D02*
X0117125Y0032454D01*
X0117125Y0033452D02*
X0117473Y0033452D01*
X0117473Y0034451D02*
X0117125Y0034451D01*
X0117125Y0035449D02*
X0117473Y0035449D01*
X0117473Y0036448D02*
X0117125Y0036448D01*
X0117125Y0037446D02*
X0117473Y0037446D01*
X0117473Y0038445D02*
X0117125Y0038445D01*
X0116467Y0039443D02*
X0118131Y0039443D01*
X0117495Y0040442D02*
X0117102Y0040442D01*
X0117125Y0040464D02*
X0117125Y0047841D01*
X0116482Y0048483D01*
X0117125Y0049126D01*
X0117125Y0056502D01*
X0116363Y0057264D01*
X0108987Y0057264D01*
X0108344Y0056621D01*
X0107702Y0057264D01*
X0100326Y0057264D01*
X0099564Y0056502D01*
X0099564Y0049126D01*
X0100207Y0048483D01*
X0099564Y0047841D01*
X0099564Y0040464D01*
X0100326Y0039703D01*
X0107702Y0039703D01*
X0108344Y0040346D01*
X0108987Y0039703D01*
X0116363Y0039703D01*
X0117125Y0040464D01*
X0117125Y0041440D02*
X0117473Y0041440D01*
X0117473Y0042439D02*
X0117125Y0042439D01*
X0117125Y0043437D02*
X0117473Y0043437D01*
X0117473Y0044436D02*
X0117125Y0044436D01*
X0117125Y0045434D02*
X0117473Y0045434D01*
X0117473Y0046433D02*
X0117125Y0046433D01*
X0117125Y0047432D02*
X0117473Y0047432D01*
X0118062Y0048430D02*
X0116535Y0048430D01*
X0117125Y0049429D02*
X0117473Y0049429D01*
X0117473Y0050427D02*
X0117125Y0050427D01*
X0117125Y0051426D02*
X0117473Y0051426D01*
X0117473Y0052424D02*
X0117125Y0052424D01*
X0117125Y0053423D02*
X0117473Y0053423D01*
X0117473Y0054421D02*
X0117125Y0054421D01*
X0117125Y0055420D02*
X0117473Y0055420D01*
X0117473Y0056418D02*
X0117125Y0056418D01*
X0117804Y0057417D02*
X0054193Y0057417D01*
X0054130Y0057264D02*
X0054536Y0058244D01*
X0054536Y0059756D01*
X0053958Y0061153D01*
X0053610Y0061500D01*
X0090918Y0061500D01*
X0094892Y0062565D01*
X0094892Y0062565D01*
X0098455Y0064622D01*
X0098455Y0064622D01*
X0101364Y0067531D01*
X0101364Y0067531D01*
X0103421Y0071094D01*
X0104486Y0075068D01*
X0104486Y0081090D01*
X0104705Y0081181D01*
X0106055Y0082531D01*
X0106786Y0084295D01*
X0106786Y0086205D01*
X0106055Y0087969D01*
X0104705Y0089319D01*
X0103519Y0089811D01*
X0103507Y0089846D01*
X0101645Y0092409D01*
X0099083Y0094271D01*
X0099083Y0094271D01*
X0096070Y0095250D01*
X0076001Y0095250D01*
X0075720Y0095532D01*
X0074514Y0096031D01*
X0073209Y0096031D01*
X0072003Y0095532D01*
X0071080Y0094609D01*
X0070580Y0093403D01*
X0070580Y0092097D01*
X0071080Y0090891D01*
X0072003Y0089968D01*
X0073209Y0089469D01*
X0074514Y0089469D01*
X0075720Y0089968D01*
X0076001Y0090250D01*
X0094486Y0090250D01*
X0095268Y0090188D01*
X0096756Y0089705D01*
X0098022Y0088786D01*
X0098321Y0088373D01*
X0097917Y0087969D01*
X0097186Y0086205D01*
X0097186Y0084295D01*
X0097917Y0082531D01*
X0099267Y0081181D01*
X0099486Y0081090D01*
X0099486Y0077125D01*
X0099395Y0075738D01*
X0098677Y0073059D01*
X0097291Y0070657D01*
X0095329Y0068696D01*
X0092927Y0067309D01*
X0090248Y0066591D01*
X0088861Y0066500D01*
X0084755Y0066500D01*
X0088214Y0068497D01*
X0091239Y0071522D01*
X0091239Y0071522D01*
X0093379Y0075228D01*
X0094486Y0079361D01*
X0094486Y0081090D01*
X0094705Y0081181D01*
X0096055Y0082531D01*
X0096786Y0084295D01*
X0096786Y0086205D01*
X0096055Y0087969D01*
X0094705Y0089319D01*
X0092941Y0090050D01*
X0091031Y0090050D01*
X0089267Y0089319D01*
X0087917Y0087969D01*
X0087186Y0086205D01*
X0087186Y0084295D01*
X0087917Y0082531D01*
X0089267Y0081181D01*
X0089460Y0081101D01*
X0089390Y0080032D01*
X0088630Y0077195D01*
X0087161Y0074651D01*
X0085085Y0072575D01*
X0082541Y0071106D01*
X0081607Y0070856D01*
X0081643Y0070891D01*
X0082142Y0072097D01*
X0082142Y0073403D01*
X0081643Y0074609D01*
X0080720Y0075532D01*
X0079514Y0076031D01*
X0078209Y0076031D01*
X0077003Y0075532D01*
X0076721Y0075250D01*
X0071986Y0075250D01*
X0071009Y0075327D01*
X0069149Y0075931D01*
X0067567Y0077081D01*
X0066417Y0078663D01*
X0065813Y0080522D01*
X0065736Y0081500D01*
X0065736Y0089000D01*
X0065843Y0090632D01*
X0066688Y0093784D01*
X0068319Y0096610D01*
X0070627Y0098917D01*
X0073453Y0100548D01*
X0076605Y0101393D01*
X0078236Y0101500D01*
X0084521Y0101500D01*
X0089465Y0102628D01*
X0094033Y0104828D01*
X0097997Y0107989D01*
X0101158Y0111954D01*
X0103358Y0116522D01*
X0104486Y0121465D01*
X0104486Y0129840D01*
X0104705Y0129931D01*
X0106055Y0131281D01*
X0106786Y0133045D01*
X0106786Y0134955D01*
X0106055Y0136719D01*
X0104705Y0138069D01*
X0103861Y0138419D01*
X0103861Y0143179D01*
X0102669Y0147630D01*
X0100365Y0151620D01*
X0100365Y0151620D01*
X0097106Y0154878D01*
X0094598Y0156327D01*
X0096602Y0155497D01*
X0100575Y0152842D01*
X0103953Y0149463D01*
X0106608Y0145490D01*
X0108437Y0141076D01*
X0109073Y0137875D01*
X0107917Y0136719D01*
X0107186Y0134955D01*
X0107186Y0133045D01*
X0107917Y0131281D01*
X0109267Y0129931D01*
X0111031Y0129200D01*
X0112941Y0129200D01*
X0114705Y0129931D01*
X0116055Y0131281D01*
X0116786Y0133045D01*
X0116786Y0134955D01*
X0116055Y0136719D01*
X0114705Y0138069D01*
X0114212Y0138274D01*
X0113357Y0142568D01*
X0113357Y0142568D01*
X0111143Y0147914D01*
X0111143Y0147914D01*
X0107928Y0152725D01*
X0107928Y0152725D01*
X0103837Y0156817D01*
X0103837Y0156817D01*
X0099025Y0160032D01*
X0093680Y0162246D01*
X0093680Y0162246D01*
X0091843Y0162611D01*
X0098647Y0162611D01*
X0099408Y0163373D01*
X0099408Y0170749D01*
X0098766Y0171392D01*
X0099408Y0172034D01*
X0099408Y0179411D01*
X0098647Y0180172D01*
X0091271Y0180172D01*
X0090628Y0179529D01*
X0089985Y0180172D01*
X0082609Y0180172D01*
X0081848Y0179411D01*
X0081848Y0172034D01*
X0082490Y0171392D01*
X0081848Y0170749D01*
X0081848Y0163375D01*
X0081500Y0163375D01*
X0081500Y0170749D01*
X0080857Y0171392D01*
X0081500Y0172034D01*
X0081500Y0179411D01*
X0080738Y0180172D01*
X0073362Y0180172D01*
X0072719Y0179529D01*
X0072077Y0180172D01*
X0064701Y0180172D01*
X0063939Y0179411D01*
X0063939Y0172034D01*
X0064582Y0171392D01*
X0063939Y0170749D01*
X0063939Y0163375D01*
X0063783Y0163375D01*
X0063783Y0170749D01*
X0063141Y0171392D01*
X0063783Y0172034D01*
X0063783Y0179411D01*
X0063022Y0180172D01*
X0055646Y0180172D01*
X0055003Y0179529D01*
X0054360Y0180172D01*
X0046984Y0180172D01*
X0046223Y0179411D01*
X0046223Y0172034D01*
X0046865Y0171392D01*
X0046223Y0170749D01*
X0046223Y0163373D01*
X0046796Y0162800D01*
X0046311Y0161631D01*
X0046311Y0160119D01*
X0046890Y0158722D01*
X0047959Y0157654D01*
X0048221Y0157545D01*
X0048439Y0156900D01*
X0050325Y0154745D01*
X0050568Y0154625D01*
X0050111Y0154625D01*
X0049134Y0154702D01*
X0047274Y0155306D01*
X0045692Y0156456D01*
X0044542Y0158038D01*
X0044384Y0158524D01*
X0044583Y0158722D01*
X0045161Y0160119D01*
X0045161Y0161631D01*
X0044755Y0162611D01*
X0044897Y0162611D01*
X0045658Y0163373D01*
X0045658Y0170749D01*
X0045016Y0171392D01*
X0045658Y0172034D01*
X0045658Y0179411D01*
X0044897Y0180172D01*
X0037521Y0180172D01*
X0036878Y0179529D01*
X0036235Y0180172D01*
X0028859Y0180172D01*
X0028098Y0179411D01*
X0028098Y0172034D01*
X0028740Y0171392D01*
X0028098Y0170749D01*
X0028098Y0163373D01*
X0028859Y0162611D01*
X0029217Y0162611D01*
X0028811Y0161631D01*
X0028811Y0160119D01*
X0029390Y0158722D01*
X0030459Y0157654D01*
X0031855Y0157075D01*
X0033367Y0157075D01*
X0034764Y0157654D01*
X0035833Y0158722D01*
X0036411Y0160119D01*
X0036411Y0161631D01*
X0036005Y0162611D01*
X0036235Y0162611D01*
X0036878Y0163254D01*
X0037521Y0162611D01*
X0037967Y0162611D01*
X0037561Y0161631D01*
X0037561Y0160119D01*
X0038140Y0158722D01*
X0039209Y0157654D01*
X0039348Y0157596D01*
X0039962Y0155704D01*
X0042057Y0152821D01*
X0042057Y0152821D01*
X0042057Y0152821D01*
X0044940Y0150726D01*
X0048329Y0149625D01*
X0083861Y0149625D01*
X0084643Y0149563D01*
X0086131Y0149080D01*
X0087397Y0148161D01*
X0088316Y0146895D01*
X0088800Y0145407D01*
X0088861Y0144625D01*
X0088861Y0137663D01*
X0087917Y0136719D01*
X0087186Y0134955D01*
X0087186Y0133045D01*
X0087917Y0131281D01*
X0089267Y0129931D01*
X0091031Y0129200D01*
X0092941Y0129200D01*
X0094705Y0129931D01*
X0096055Y0131281D01*
X0096786Y0133045D01*
X0096786Y0134955D01*
X0096055Y0136719D01*
X0094705Y0138069D01*
X0093861Y0138419D01*
X0093861Y0146209D01*
X0092882Y0149221D01*
X0091020Y0151784D01*
X0089554Y0152850D01*
X0091145Y0152423D01*
X0093971Y0150792D01*
X0096278Y0148485D01*
X0097910Y0145659D01*
X0098754Y0142507D01*
X0098861Y0140875D01*
X0098861Y0137663D01*
X0097917Y0136719D01*
X0097186Y0134955D01*
X0097186Y0133045D01*
X0097917Y0131281D01*
X0099267Y0129931D01*
X0099486Y0129840D01*
X0099486Y0124000D01*
X0099376Y0122041D01*
X0098504Y0118220D01*
X0096804Y0114689D01*
X0094361Y0111626D01*
X0091297Y0109182D01*
X0087766Y0107482D01*
X0083946Y0106610D01*
X0081986Y0106500D01*
X0075932Y0106500D01*
X0071481Y0105307D01*
X0067491Y0103003D01*
X0064233Y0099745D01*
X0061929Y0095755D01*
X0060736Y0091304D01*
X0060736Y0079718D01*
X0061837Y0076329D01*
X0063932Y0073446D01*
X0063932Y0073446D01*
X0063932Y0073446D01*
X0066815Y0071351D01*
X0070204Y0070250D01*
X0076721Y0070250D01*
X0076721Y0070250D01*
X0044867Y0070250D01*
X0044755Y0070285D01*
X0044373Y0070250D01*
X0043989Y0070250D01*
X0043881Y0070205D01*
X0043081Y0070133D01*
X0040984Y0069032D01*
X0039469Y0067213D01*
X0038764Y0064953D01*
X0038764Y0064953D01*
X0038861Y0063887D01*
X0038861Y0061874D01*
X0038140Y0061153D01*
X0037561Y0059756D01*
X0037561Y0058244D01*
X0037967Y0057264D01*
X0037521Y0057264D01*
X0036878Y0056621D01*
X0036235Y0057264D01*
X0036005Y0057264D01*
X0036411Y0058244D01*
X0036411Y0059756D01*
X0035833Y0061153D01*
X0034764Y0062221D01*
X0033367Y0062800D01*
X0031855Y0062800D01*
X0030459Y0062221D01*
X0029390Y0061153D01*
X0028811Y0059756D01*
X0028811Y0058244D01*
X0029217Y0057264D01*
X0028859Y0057264D01*
X0028098Y0056502D01*
X0028098Y0049126D01*
X0028740Y0048483D01*
X0028098Y0047841D01*
X0028098Y0040464D01*
X0028859Y0039703D01*
X0036235Y0039703D01*
X0036878Y0040346D01*
X0037521Y0039703D01*
X0044897Y0039703D01*
X0045658Y0040464D01*
X0045658Y0047841D01*
X0045016Y0048483D01*
X0045658Y0049126D01*
X0045658Y0056502D01*
X0044897Y0057264D01*
X0044755Y0057264D01*
X0045161Y0058244D01*
X0045161Y0059756D01*
X0044583Y0061153D01*
X0043861Y0061874D01*
X0043861Y0063620D01*
X0043896Y0063731D01*
X0043861Y0064113D01*
X0043861Y0064441D01*
X0043963Y0064767D01*
X0044201Y0065053D01*
X0044529Y0065225D01*
X0044659Y0065250D01*
X0050077Y0065250D01*
X0049240Y0064634D01*
X0048094Y0062018D01*
X0048122Y0061760D01*
X0047515Y0061153D01*
X0046936Y0059756D01*
X0046936Y0058244D01*
X0047342Y0057264D01*
X0046984Y0057264D01*
X0046223Y0056502D01*
X0046223Y0049126D01*
X0046865Y0048483D01*
X0046223Y0047841D01*
X0046223Y0040464D01*
X0046984Y0039703D01*
X0054360Y0039703D01*
X0055003Y0040346D01*
X0055646Y0039703D01*
X0063022Y0039703D01*
X0063783Y0040464D01*
X0063783Y0047841D01*
X0063141Y0048483D01*
X0063783Y0049126D01*
X0063783Y0056502D01*
X0063022Y0057264D01*
X0055646Y0057264D01*
X0055003Y0056621D01*
X0054360Y0057264D01*
X0054130Y0057264D01*
X0054536Y0058415D02*
X0117473Y0058415D01*
X0117473Y0059414D02*
X0054536Y0059414D01*
X0054264Y0060412D02*
X0117473Y0060412D01*
X0117473Y0061411D02*
X0053700Y0061411D01*
X0048703Y0063408D02*
X0043861Y0063408D01*
X0043861Y0064406D02*
X0049140Y0064406D01*
X0049240Y0064634D02*
X0049240Y0064634D01*
X0049240Y0064634D01*
X0048265Y0062409D02*
X0043861Y0062409D01*
X0044325Y0061411D02*
X0047773Y0061411D01*
X0048094Y0062018D02*
X0048094Y0062018D01*
X0047208Y0060412D02*
X0044889Y0060412D01*
X0045161Y0059414D02*
X0046936Y0059414D01*
X0046936Y0058415D02*
X0045161Y0058415D01*
X0044818Y0057417D02*
X0047279Y0057417D01*
X0046223Y0056418D02*
X0045658Y0056418D01*
X0045658Y0055420D02*
X0046223Y0055420D01*
X0046223Y0054421D02*
X0045658Y0054421D01*
X0045658Y0053423D02*
X0046223Y0053423D01*
X0046223Y0052424D02*
X0045658Y0052424D01*
X0045658Y0051426D02*
X0046223Y0051426D01*
X0046223Y0050427D02*
X0045658Y0050427D01*
X0045658Y0049429D02*
X0046223Y0049429D01*
X0046812Y0048430D02*
X0045069Y0048430D01*
X0045658Y0047432D02*
X0046223Y0047432D01*
X0046223Y0046433D02*
X0045658Y0046433D01*
X0045658Y0045434D02*
X0046223Y0045434D01*
X0046223Y0044436D02*
X0045658Y0044436D01*
X0045658Y0043437D02*
X0046223Y0043437D01*
X0046223Y0042439D02*
X0045658Y0042439D01*
X0045658Y0041440D02*
X0046223Y0041440D01*
X0046245Y0040442D02*
X0045636Y0040442D01*
X0044897Y0039547D02*
X0037521Y0039547D01*
X0036878Y0038904D01*
X0036235Y0039547D01*
X0028859Y0039547D01*
X0028098Y0038786D01*
X0028098Y0031409D01*
X0028740Y0030767D01*
X0028098Y0030124D01*
X0028098Y0022748D01*
X0028859Y0021986D01*
X0036235Y0021986D01*
X0036878Y0022629D01*
X0037521Y0021986D01*
X0044897Y0021986D01*
X0045658Y0022748D01*
X0045658Y0030124D01*
X0045016Y0030767D01*
X0045658Y0031409D01*
X0045658Y0038786D01*
X0044897Y0039547D01*
X0045000Y0039443D02*
X0046881Y0039443D01*
X0046984Y0039547D02*
X0046223Y0038786D01*
X0046223Y0031409D01*
X0046865Y0030767D01*
X0046223Y0030124D01*
X0046223Y0022748D01*
X0046984Y0021986D01*
X0054360Y0021986D01*
X0055003Y0022629D01*
X0055646Y0021986D01*
X0063022Y0021986D01*
X0063783Y0022748D01*
X0063783Y0030124D01*
X0063141Y0030767D01*
X0063783Y0031409D01*
X0063783Y0038786D01*
X0063022Y0039547D01*
X0055646Y0039547D01*
X0055003Y0038904D01*
X0054360Y0039547D01*
X0046984Y0039547D01*
X0046223Y0038445D02*
X0045658Y0038445D01*
X0045658Y0037446D02*
X0046223Y0037446D01*
X0046223Y0036448D02*
X0045658Y0036448D01*
X0045658Y0035449D02*
X0046223Y0035449D01*
X0046223Y0034451D02*
X0045658Y0034451D01*
X0045658Y0033452D02*
X0046223Y0033452D01*
X0046223Y0032454D02*
X0045658Y0032454D01*
X0045658Y0031455D02*
X0046223Y0031455D01*
X0046555Y0030457D02*
X0045326Y0030457D01*
X0045658Y0029458D02*
X0046223Y0029458D01*
X0046223Y0028460D02*
X0045658Y0028460D01*
X0045658Y0027461D02*
X0046223Y0027461D01*
X0046223Y0026463D02*
X0045658Y0026463D01*
X0045658Y0025464D02*
X0046223Y0025464D01*
X0046223Y0024466D02*
X0045658Y0024466D01*
X0045658Y0023467D02*
X0046223Y0023467D01*
X0046502Y0022469D02*
X0045379Y0022469D01*
X0054843Y0022469D02*
X0055163Y0022469D01*
X0063504Y0022469D02*
X0064218Y0022469D01*
X0063939Y0022748D02*
X0064701Y0021986D01*
X0072077Y0021986D01*
X0072719Y0022629D01*
X0073362Y0021986D01*
X0080738Y0021986D01*
X0081500Y0022748D01*
X0081500Y0030124D01*
X0080857Y0030767D01*
X0081500Y0031409D01*
X0081500Y0038786D01*
X0080738Y0039547D01*
X0073362Y0039547D01*
X0072719Y0038904D01*
X0072077Y0039547D01*
X0064701Y0039547D01*
X0063939Y0038786D01*
X0063939Y0031409D01*
X0064582Y0030767D01*
X0063939Y0030124D01*
X0063939Y0022748D01*
X0063939Y0023467D02*
X0063783Y0023467D01*
X0063783Y0024466D02*
X0063939Y0024466D01*
X0063939Y0025464D02*
X0063783Y0025464D01*
X0063783Y0026463D02*
X0063939Y0026463D01*
X0063939Y0027461D02*
X0063783Y0027461D01*
X0063783Y0028460D02*
X0063939Y0028460D01*
X0063939Y0029458D02*
X0063783Y0029458D01*
X0063451Y0030457D02*
X0064272Y0030457D01*
X0063939Y0031455D02*
X0063783Y0031455D01*
X0063783Y0032454D02*
X0063939Y0032454D01*
X0063939Y0033452D02*
X0063783Y0033452D01*
X0063783Y0034451D02*
X0063939Y0034451D01*
X0063939Y0035449D02*
X0063783Y0035449D01*
X0063783Y0036448D02*
X0063939Y0036448D01*
X0063939Y0037446D02*
X0063783Y0037446D01*
X0063783Y0038445D02*
X0063939Y0038445D01*
X0064597Y0039443D02*
X0063125Y0039443D01*
X0063761Y0040442D02*
X0063962Y0040442D01*
X0063939Y0040464D02*
X0064701Y0039703D01*
X0072077Y0039703D01*
X0072719Y0040346D01*
X0073362Y0039703D01*
X0080738Y0039703D01*
X0081500Y0040464D01*
X0081500Y0047841D01*
X0080857Y0048483D01*
X0081500Y0049126D01*
X0081500Y0056502D01*
X0080738Y0057264D01*
X0073362Y0057264D01*
X0072719Y0056621D01*
X0072077Y0057264D01*
X0064701Y0057264D01*
X0063939Y0056502D01*
X0063939Y0049126D01*
X0064582Y0048483D01*
X0063939Y0047841D01*
X0063939Y0040464D01*
X0063939Y0041440D02*
X0063783Y0041440D01*
X0063783Y0042439D02*
X0063939Y0042439D01*
X0063939Y0043437D02*
X0063783Y0043437D01*
X0063783Y0044436D02*
X0063939Y0044436D01*
X0063939Y0045434D02*
X0063783Y0045434D01*
X0063783Y0046433D02*
X0063939Y0046433D01*
X0063939Y0047432D02*
X0063783Y0047432D01*
X0063194Y0048430D02*
X0064529Y0048430D01*
X0063939Y0049429D02*
X0063783Y0049429D01*
X0063783Y0050427D02*
X0063939Y0050427D01*
X0063939Y0051426D02*
X0063783Y0051426D01*
X0063783Y0052424D02*
X0063939Y0052424D01*
X0063939Y0053423D02*
X0063783Y0053423D01*
X0063783Y0054421D02*
X0063939Y0054421D01*
X0063939Y0055420D02*
X0063783Y0055420D01*
X0063783Y0056418D02*
X0063939Y0056418D01*
X0081500Y0056418D02*
X0081848Y0056418D01*
X0081848Y0056502D02*
X0081848Y0049126D01*
X0082490Y0048483D01*
X0081848Y0047841D01*
X0081848Y0040464D01*
X0082609Y0039703D01*
X0089985Y0039703D01*
X0090628Y0040346D01*
X0091271Y0039703D01*
X0098647Y0039703D01*
X0099408Y0040464D01*
X0099408Y0047841D01*
X0098766Y0048483D01*
X0099408Y0049126D01*
X0099408Y0056502D01*
X0098647Y0057264D01*
X0091271Y0057264D01*
X0090628Y0056621D01*
X0089985Y0057264D01*
X0082609Y0057264D01*
X0081848Y0056502D01*
X0081848Y0055420D02*
X0081500Y0055420D01*
X0081500Y0054421D02*
X0081848Y0054421D01*
X0081848Y0053423D02*
X0081500Y0053423D01*
X0081500Y0052424D02*
X0081848Y0052424D01*
X0081848Y0051426D02*
X0081500Y0051426D01*
X0081500Y0050427D02*
X0081848Y0050427D01*
X0081848Y0049429D02*
X0081500Y0049429D01*
X0080910Y0048430D02*
X0082437Y0048430D01*
X0081848Y0047432D02*
X0081500Y0047432D01*
X0081500Y0046433D02*
X0081848Y0046433D01*
X0081848Y0045434D02*
X0081500Y0045434D01*
X0081500Y0044436D02*
X0081848Y0044436D01*
X0081848Y0043437D02*
X0081500Y0043437D01*
X0081500Y0042439D02*
X0081848Y0042439D01*
X0081848Y0041440D02*
X0081500Y0041440D01*
X0081477Y0040442D02*
X0081870Y0040442D01*
X0082609Y0039547D02*
X0081848Y0038786D01*
X0081848Y0031409D01*
X0082490Y0030767D01*
X0081848Y0030124D01*
X0081848Y0022748D01*
X0082609Y0021986D01*
X0089985Y0021986D01*
X0090628Y0022629D01*
X0091271Y0021986D01*
X0098647Y0021986D01*
X0099408Y0022748D01*
X0099408Y0030124D01*
X0098766Y0030767D01*
X0099408Y0031409D01*
X0099408Y0038786D01*
X0098647Y0039547D01*
X0091271Y0039547D01*
X0090628Y0038904D01*
X0089985Y0039547D01*
X0082609Y0039547D01*
X0082506Y0039443D02*
X0080842Y0039443D01*
X0081500Y0038445D02*
X0081848Y0038445D01*
X0081848Y0037446D02*
X0081500Y0037446D01*
X0081500Y0036448D02*
X0081848Y0036448D01*
X0081848Y0035449D02*
X0081500Y0035449D01*
X0081500Y0034451D02*
X0081848Y0034451D01*
X0081848Y0033452D02*
X0081500Y0033452D01*
X0081500Y0032454D02*
X0081848Y0032454D01*
X0081848Y0031455D02*
X0081500Y0031455D01*
X0081167Y0030457D02*
X0082180Y0030457D01*
X0081848Y0029458D02*
X0081500Y0029458D01*
X0081500Y0028460D02*
X0081848Y0028460D01*
X0081848Y0027461D02*
X0081500Y0027461D01*
X0081500Y0026463D02*
X0081848Y0026463D01*
X0081848Y0025464D02*
X0081500Y0025464D01*
X0081500Y0024466D02*
X0081848Y0024466D01*
X0081848Y0023467D02*
X0081500Y0023467D01*
X0081221Y0022469D02*
X0082127Y0022469D01*
X0090468Y0022469D02*
X0090788Y0022469D01*
X0099129Y0022469D02*
X0099843Y0022469D01*
X0099564Y0023467D02*
X0099408Y0023467D01*
X0099408Y0024466D02*
X0099564Y0024466D01*
X0099564Y0025464D02*
X0099408Y0025464D01*
X0099408Y0026463D02*
X0099564Y0026463D01*
X0099564Y0027461D02*
X0099408Y0027461D01*
X0099408Y0028460D02*
X0099564Y0028460D01*
X0099564Y0029458D02*
X0099408Y0029458D01*
X0099076Y0030457D02*
X0099897Y0030457D01*
X0099564Y0031455D02*
X0099408Y0031455D01*
X0099408Y0032454D02*
X0099564Y0032454D01*
X0099564Y0033452D02*
X0099408Y0033452D01*
X0099408Y0034451D02*
X0099564Y0034451D01*
X0099564Y0035449D02*
X0099408Y0035449D01*
X0099408Y0036448D02*
X0099564Y0036448D01*
X0099564Y0037446D02*
X0099408Y0037446D01*
X0099408Y0038445D02*
X0099564Y0038445D01*
X0100222Y0039443D02*
X0098750Y0039443D01*
X0099386Y0040442D02*
X0099587Y0040442D01*
X0099564Y0041440D02*
X0099408Y0041440D01*
X0099408Y0042439D02*
X0099564Y0042439D01*
X0099564Y0043437D02*
X0099408Y0043437D01*
X0099408Y0044436D02*
X0099564Y0044436D01*
X0099564Y0045434D02*
X0099408Y0045434D01*
X0099408Y0046433D02*
X0099564Y0046433D01*
X0099564Y0047432D02*
X0099408Y0047432D01*
X0098819Y0048430D02*
X0100154Y0048430D01*
X0099564Y0049429D02*
X0099408Y0049429D01*
X0099408Y0050427D02*
X0099564Y0050427D01*
X0099564Y0051426D02*
X0099408Y0051426D01*
X0099408Y0052424D02*
X0099564Y0052424D01*
X0099564Y0053423D02*
X0099408Y0053423D01*
X0099408Y0054421D02*
X0099564Y0054421D01*
X0099564Y0055420D02*
X0099408Y0055420D01*
X0099408Y0056418D02*
X0099564Y0056418D01*
X0094311Y0062409D02*
X0117473Y0062409D01*
X0117473Y0063408D02*
X0096352Y0063408D01*
X0098082Y0064406D02*
X0117473Y0064406D01*
X0117753Y0065405D02*
X0099238Y0065405D01*
X0100237Y0066403D02*
X0117479Y0066403D01*
X0117473Y0067402D02*
X0101235Y0067402D01*
X0101364Y0067531D02*
X0101364Y0067531D01*
X0101866Y0068400D02*
X0117473Y0068400D01*
X0117473Y0069399D02*
X0102443Y0069399D01*
X0103019Y0070397D02*
X0117473Y0070397D01*
X0117473Y0071396D02*
X0103502Y0071396D01*
X0103421Y0071094D02*
X0103421Y0071094D01*
X0103770Y0072394D02*
X0117473Y0072394D01*
X0117473Y0073393D02*
X0104037Y0073393D01*
X0104305Y0074391D02*
X0118078Y0074391D01*
X0117547Y0075390D02*
X0104486Y0075390D01*
X0104486Y0076388D02*
X0117473Y0076388D01*
X0117473Y0077387D02*
X0104486Y0077387D01*
X0104486Y0078385D02*
X0117473Y0078385D01*
X0117473Y0079384D02*
X0104486Y0079384D01*
X0104486Y0080382D02*
X0110787Y0080382D01*
X0110815Y0080373D02*
X0110067Y0080616D01*
X0109366Y0080974D01*
X0108729Y0081436D01*
X0108172Y0081993D01*
X0107710Y0082629D01*
X0107353Y0083331D01*
X0107109Y0084079D01*
X0107003Y0084750D01*
X0111486Y0084750D01*
X0111486Y0085750D01*
X0107003Y0085750D01*
X0107109Y0086421D01*
X0107353Y0087169D01*
X0107710Y0087871D01*
X0108172Y0088507D01*
X0108729Y0089064D01*
X0109366Y0089526D01*
X0110067Y0089884D01*
X0110815Y0090127D01*
X0111486Y0090233D01*
X0111486Y0085750D01*
X0112486Y0085750D01*
X0112486Y0090233D01*
X0113157Y0090127D01*
X0113906Y0089884D01*
X0114607Y0089526D01*
X0115243Y0089064D01*
X0115800Y0088507D01*
X0116263Y0087871D01*
X0116620Y0087169D01*
X0116863Y0086421D01*
X0116969Y0085750D01*
X0112486Y0085750D01*
X0112486Y0084750D01*
X0112486Y0080267D01*
X0113157Y0080373D01*
X0113906Y0080616D01*
X0114607Y0080974D01*
X0115243Y0081436D01*
X0115800Y0081993D01*
X0116263Y0082629D01*
X0116620Y0083331D01*
X0116863Y0084079D01*
X0116969Y0084750D01*
X0112486Y0084750D01*
X0111486Y0084750D01*
X0111486Y0080267D01*
X0110815Y0080373D01*
X0111486Y0080382D02*
X0112486Y0080382D01*
X0113186Y0080382D02*
X0117473Y0080382D01*
X0117473Y0081381D02*
X0115167Y0081381D01*
X0116081Y0082379D02*
X0117473Y0082379D01*
X0118010Y0083378D02*
X0116635Y0083378D01*
X0116910Y0084376D02*
X0117473Y0084376D01*
X0117473Y0085375D02*
X0112486Y0085375D01*
X0112486Y0086373D02*
X0111486Y0086373D01*
X0111486Y0085375D02*
X0106786Y0085375D01*
X0106786Y0084376D02*
X0107062Y0084376D01*
X0107337Y0083378D02*
X0106406Y0083378D01*
X0105904Y0082379D02*
X0107891Y0082379D01*
X0108805Y0081381D02*
X0104905Y0081381D01*
X0106716Y0086373D02*
X0107102Y0086373D01*
X0107456Y0087372D02*
X0106303Y0087372D01*
X0105654Y0088370D02*
X0108073Y0088370D01*
X0109149Y0089369D02*
X0104585Y0089369D01*
X0103507Y0089846D02*
X0103507Y0089846D01*
X0103129Y0090368D02*
X0117473Y0090368D01*
X0117473Y0091366D02*
X0102403Y0091366D01*
X0101678Y0092365D02*
X0117999Y0092365D01*
X0117473Y0093363D02*
X0100333Y0093363D01*
X0101645Y0092409D02*
X0101645Y0092409D01*
X0101645Y0092409D01*
X0098804Y0094362D02*
X0117473Y0094362D01*
X0117473Y0095360D02*
X0075891Y0095360D01*
X0071831Y0095360D02*
X0067598Y0095360D01*
X0067021Y0094362D02*
X0070977Y0094362D01*
X0070580Y0093363D02*
X0066575Y0093363D01*
X0066307Y0092365D02*
X0070580Y0092365D01*
X0070883Y0091366D02*
X0066040Y0091366D01*
X0065826Y0090368D02*
X0071604Y0090368D01*
X0065760Y0089369D02*
X0079387Y0089369D01*
X0079267Y0089319D02*
X0077917Y0087969D01*
X0077186Y0086205D01*
X0077186Y0084295D01*
X0077917Y0082531D01*
X0079267Y0081181D01*
X0081031Y0080450D01*
X0082941Y0080450D01*
X0084705Y0081181D01*
X0086055Y0082531D01*
X0086786Y0084295D01*
X0086786Y0086205D01*
X0086055Y0087969D01*
X0084705Y0089319D01*
X0082941Y0090050D01*
X0081031Y0090050D01*
X0079267Y0089319D01*
X0078318Y0088370D02*
X0065736Y0088370D01*
X0065736Y0087372D02*
X0077670Y0087372D01*
X0077256Y0086373D02*
X0065736Y0086373D01*
X0065736Y0085375D02*
X0077186Y0085375D01*
X0077186Y0084376D02*
X0065736Y0084376D01*
X0065736Y0083378D02*
X0077566Y0083378D01*
X0078069Y0082379D02*
X0065736Y0082379D01*
X0065746Y0081381D02*
X0079067Y0081381D01*
X0084905Y0081381D02*
X0089067Y0081381D01*
X0089413Y0080382D02*
X0065859Y0080382D01*
X0066183Y0079384D02*
X0089216Y0079384D01*
X0088949Y0078385D02*
X0066619Y0078385D01*
X0067344Y0077387D02*
X0088681Y0077387D01*
X0088164Y0076388D02*
X0068520Y0076388D01*
X0070815Y0075390D02*
X0076861Y0075390D01*
X0080862Y0075390D02*
X0087588Y0075390D01*
X0086901Y0074391D02*
X0081733Y0074391D01*
X0082142Y0073393D02*
X0085903Y0073393D01*
X0084772Y0072394D02*
X0082142Y0072394D01*
X0081852Y0071396D02*
X0083043Y0071396D01*
X0086317Y0067402D02*
X0093088Y0067402D01*
X0094818Y0068400D02*
X0088047Y0068400D01*
X0088214Y0068497D02*
X0088214Y0068497D01*
X0089116Y0069399D02*
X0096032Y0069399D01*
X0097031Y0070397D02*
X0090114Y0070397D01*
X0091113Y0071396D02*
X0097717Y0071396D01*
X0098294Y0072394D02*
X0091743Y0072394D01*
X0092319Y0073393D02*
X0098767Y0073393D01*
X0099034Y0074391D02*
X0092896Y0074391D01*
X0093379Y0075228D02*
X0093379Y0075228D01*
X0093422Y0075390D02*
X0099302Y0075390D01*
X0099438Y0076388D02*
X0093690Y0076388D01*
X0093957Y0077387D02*
X0099486Y0077387D01*
X0099486Y0078385D02*
X0094225Y0078385D01*
X0094486Y0079384D02*
X0099486Y0079384D01*
X0099486Y0080382D02*
X0094486Y0080382D01*
X0094905Y0081381D02*
X0099067Y0081381D01*
X0098069Y0082379D02*
X0095904Y0082379D01*
X0096406Y0083378D02*
X0097566Y0083378D01*
X0097186Y0084376D02*
X0096786Y0084376D01*
X0096786Y0085375D02*
X0097186Y0085375D01*
X0097256Y0086373D02*
X0096716Y0086373D01*
X0096303Y0087372D02*
X0097670Y0087372D01*
X0098319Y0088370D02*
X0095654Y0088370D01*
X0094585Y0089369D02*
X0097219Y0089369D01*
X0089387Y0089369D02*
X0084585Y0089369D01*
X0085654Y0088370D02*
X0088318Y0088370D01*
X0087670Y0087372D02*
X0086303Y0087372D01*
X0086716Y0086373D02*
X0087256Y0086373D01*
X0087186Y0085375D02*
X0086786Y0085375D01*
X0086786Y0084376D02*
X0087186Y0084376D01*
X0087566Y0083378D02*
X0086406Y0083378D01*
X0085904Y0082379D02*
X0088069Y0082379D01*
X0069751Y0070397D02*
X0015236Y0070397D01*
X0015236Y0069399D02*
X0041683Y0069399D01*
X0040984Y0069032D02*
X0040984Y0069032D01*
X0040458Y0068400D02*
X0015236Y0068400D01*
X0015236Y0067402D02*
X0039626Y0067402D01*
X0039469Y0067213D02*
X0039469Y0067213D01*
X0039216Y0066403D02*
X0015236Y0066403D01*
X0015236Y0065405D02*
X0038905Y0065405D01*
X0038814Y0064406D02*
X0015236Y0064406D01*
X0015236Y0063408D02*
X0038861Y0063408D01*
X0038861Y0062409D02*
X0034311Y0062409D01*
X0035575Y0061411D02*
X0038398Y0061411D01*
X0037833Y0060412D02*
X0036139Y0060412D01*
X0036411Y0059414D02*
X0037561Y0059414D01*
X0037561Y0058415D02*
X0036411Y0058415D01*
X0036068Y0057417D02*
X0037904Y0057417D01*
X0030912Y0062409D02*
X0015236Y0062409D01*
X0015236Y0061411D02*
X0029648Y0061411D01*
X0029083Y0060412D02*
X0015236Y0060412D01*
X0015236Y0059414D02*
X0028811Y0059414D01*
X0028811Y0058415D02*
X0015236Y0058415D01*
X0015236Y0057417D02*
X0029154Y0057417D01*
X0028098Y0056418D02*
X0015236Y0056418D01*
X0015236Y0055420D02*
X0028098Y0055420D01*
X0028098Y0054421D02*
X0015236Y0054421D01*
X0015236Y0053423D02*
X0028098Y0053423D01*
X0028098Y0052424D02*
X0015236Y0052424D01*
X0015236Y0051426D02*
X0028098Y0051426D01*
X0028098Y0050427D02*
X0015236Y0050427D01*
X0015236Y0049429D02*
X0028098Y0049429D01*
X0028687Y0048430D02*
X0015236Y0048430D01*
X0015236Y0047432D02*
X0028098Y0047432D01*
X0028098Y0046433D02*
X0015236Y0046433D01*
X0015236Y0045434D02*
X0028098Y0045434D01*
X0028098Y0044436D02*
X0015236Y0044436D01*
X0015236Y0043437D02*
X0028098Y0043437D01*
X0028098Y0042439D02*
X0015236Y0042439D01*
X0015236Y0041440D02*
X0028098Y0041440D01*
X0028120Y0040442D02*
X0015236Y0040442D01*
X0015236Y0039443D02*
X0028756Y0039443D01*
X0028098Y0038445D02*
X0015236Y0038445D01*
X0015236Y0037446D02*
X0028098Y0037446D01*
X0028098Y0036448D02*
X0015236Y0036448D01*
X0015236Y0035449D02*
X0028098Y0035449D01*
X0028098Y0034451D02*
X0015236Y0034451D01*
X0015236Y0033452D02*
X0028098Y0033452D01*
X0028098Y0032454D02*
X0015236Y0032454D01*
X0015236Y0031455D02*
X0028098Y0031455D01*
X0028430Y0030457D02*
X0015236Y0030457D01*
X0015236Y0029458D02*
X0028098Y0029458D01*
X0028098Y0028460D02*
X0015236Y0028460D01*
X0015236Y0027461D02*
X0028098Y0027461D01*
X0028098Y0026463D02*
X0015236Y0026463D01*
X0015236Y0025464D02*
X0028098Y0025464D01*
X0028098Y0024466D02*
X0015236Y0024466D01*
X0015236Y0023467D02*
X0028098Y0023467D01*
X0028377Y0022469D02*
X0015236Y0022469D01*
X0018060Y0012484D02*
X0338058Y0012484D01*
X0337262Y0011485D02*
X0018856Y0011485D01*
X0019653Y0010487D02*
X0336465Y0010487D01*
X0335231Y0009488D02*
X0020887Y0009488D01*
X0022139Y0008490D02*
X0333979Y0008490D01*
X0332039Y0007491D02*
X0024079Y0007491D01*
X0026981Y0006493D02*
X0329137Y0006493D01*
X0310658Y0022748D02*
X0309897Y0021986D01*
X0302521Y0021986D01*
X0301878Y0022629D01*
X0301235Y0021986D01*
X0293859Y0021986D01*
X0293098Y0022748D01*
X0293098Y0030124D01*
X0293740Y0030767D01*
X0293098Y0031409D01*
X0293098Y0038786D01*
X0293859Y0039547D01*
X0301235Y0039547D01*
X0301878Y0038904D01*
X0302521Y0039547D01*
X0309897Y0039547D01*
X0310658Y0038786D01*
X0310658Y0031409D01*
X0310016Y0030767D01*
X0310658Y0030124D01*
X0310658Y0022748D01*
X0310379Y0022469D02*
X0311093Y0022469D01*
X0310814Y0023467D02*
X0310658Y0023467D01*
X0310658Y0024466D02*
X0310814Y0024466D01*
X0310814Y0025464D02*
X0310658Y0025464D01*
X0310658Y0026463D02*
X0310814Y0026463D01*
X0310814Y0027461D02*
X0310658Y0027461D01*
X0310658Y0028460D02*
X0310814Y0028460D01*
X0310814Y0029458D02*
X0310658Y0029458D01*
X0310326Y0030457D02*
X0311147Y0030457D01*
X0310814Y0031455D02*
X0310658Y0031455D01*
X0310658Y0032454D02*
X0310814Y0032454D01*
X0310814Y0033452D02*
X0310658Y0033452D01*
X0310658Y0034451D02*
X0310814Y0034451D01*
X0310814Y0035449D02*
X0310658Y0035449D01*
X0310658Y0036448D02*
X0310814Y0036448D01*
X0310814Y0037446D02*
X0310658Y0037446D01*
X0310658Y0038445D02*
X0310814Y0038445D01*
X0311472Y0039443D02*
X0310000Y0039443D01*
X0309897Y0039703D02*
X0310658Y0040464D01*
X0310658Y0047841D01*
X0310016Y0048483D01*
X0310658Y0049126D01*
X0310658Y0056502D01*
X0310035Y0057125D01*
X0310658Y0057748D01*
X0310658Y0065124D01*
X0310016Y0065767D01*
X0310658Y0066409D01*
X0310658Y0073786D01*
X0309897Y0074547D01*
X0302521Y0074547D01*
X0301878Y0073904D01*
X0301235Y0074547D01*
X0293859Y0074547D01*
X0293098Y0073786D01*
X0293098Y0066409D01*
X0293740Y0065767D01*
X0293098Y0065124D01*
X0293098Y0057748D01*
X0293721Y0057125D01*
X0293098Y0056502D01*
X0293098Y0049126D01*
X0293740Y0048483D01*
X0293098Y0047841D01*
X0293098Y0040464D01*
X0293859Y0039703D01*
X0301235Y0039703D01*
X0301878Y0040346D01*
X0302521Y0039703D01*
X0309897Y0039703D01*
X0310636Y0040442D02*
X0310837Y0040442D01*
X0310814Y0041440D02*
X0310658Y0041440D01*
X0310658Y0042439D02*
X0310814Y0042439D01*
X0310814Y0043437D02*
X0310658Y0043437D01*
X0310658Y0044436D02*
X0310814Y0044436D01*
X0310814Y0045434D02*
X0310658Y0045434D01*
X0310658Y0046433D02*
X0310814Y0046433D01*
X0310814Y0047432D02*
X0310658Y0047432D01*
X0310069Y0048430D02*
X0311404Y0048430D01*
X0310814Y0049429D02*
X0310658Y0049429D01*
X0310658Y0050427D02*
X0310814Y0050427D01*
X0310814Y0051426D02*
X0310658Y0051426D01*
X0310658Y0052424D02*
X0310814Y0052424D01*
X0310814Y0053423D02*
X0310658Y0053423D01*
X0310658Y0054421D02*
X0310814Y0054421D01*
X0310814Y0055420D02*
X0310658Y0055420D01*
X0310658Y0056418D02*
X0310814Y0056418D01*
X0311145Y0057417D02*
X0310327Y0057417D01*
X0310658Y0058415D02*
X0310814Y0058415D01*
X0310814Y0059414D02*
X0310658Y0059414D01*
X0310658Y0060412D02*
X0310814Y0060412D01*
X0310814Y0061411D02*
X0310658Y0061411D01*
X0310658Y0062409D02*
X0310814Y0062409D01*
X0310814Y0063408D02*
X0310658Y0063408D01*
X0310658Y0064406D02*
X0310814Y0064406D01*
X0311095Y0065405D02*
X0310378Y0065405D01*
X0310652Y0066403D02*
X0310820Y0066403D01*
X0310814Y0067402D02*
X0310658Y0067402D01*
X0310658Y0068400D02*
X0310814Y0068400D01*
X0310814Y0069399D02*
X0310658Y0069399D01*
X0310658Y0070397D02*
X0310814Y0070397D01*
X0310814Y0071396D02*
X0310658Y0071396D01*
X0310658Y0072394D02*
X0310814Y0072394D01*
X0310814Y0073393D02*
X0310658Y0073393D01*
X0310052Y0074391D02*
X0311420Y0074391D01*
X0310889Y0075390D02*
X0310584Y0075390D01*
X0310658Y0075464D02*
X0310658Y0082841D01*
X0310016Y0083483D01*
X0310658Y0084126D01*
X0310658Y0091502D01*
X0309897Y0092264D01*
X0302521Y0092264D01*
X0301878Y0091621D01*
X0301235Y0092264D01*
X0293859Y0092264D01*
X0293098Y0091502D01*
X0293098Y0084126D01*
X0293740Y0083483D01*
X0293098Y0082841D01*
X0293098Y0075464D01*
X0293859Y0074703D01*
X0301235Y0074703D01*
X0301878Y0075346D01*
X0302521Y0074703D01*
X0309897Y0074703D01*
X0310658Y0075464D01*
X0310658Y0076388D02*
X0310814Y0076388D01*
X0310814Y0077387D02*
X0310658Y0077387D01*
X0310658Y0078385D02*
X0310814Y0078385D01*
X0310814Y0079384D02*
X0310658Y0079384D01*
X0310658Y0080382D02*
X0310814Y0080382D01*
X0310814Y0081381D02*
X0310658Y0081381D01*
X0310658Y0082379D02*
X0310814Y0082379D01*
X0311351Y0083378D02*
X0310121Y0083378D01*
X0310658Y0084376D02*
X0310814Y0084376D01*
X0310814Y0085375D02*
X0310658Y0085375D01*
X0310658Y0086373D02*
X0310814Y0086373D01*
X0310814Y0087372D02*
X0310658Y0087372D01*
X0310658Y0088370D02*
X0310814Y0088370D01*
X0310814Y0089369D02*
X0310658Y0089369D01*
X0310658Y0090368D02*
X0310814Y0090368D01*
X0310814Y0091366D02*
X0310658Y0091366D01*
X0293098Y0091366D02*
X0292750Y0091366D01*
X0292750Y0091502D02*
X0291988Y0092264D01*
X0284612Y0092264D01*
X0283969Y0091621D01*
X0283327Y0092264D01*
X0275951Y0092264D01*
X0275189Y0091502D01*
X0275189Y0084126D01*
X0275832Y0083483D01*
X0275189Y0082841D01*
X0275189Y0075464D01*
X0275951Y0074703D01*
X0283327Y0074703D01*
X0283969Y0075346D01*
X0284612Y0074703D01*
X0291988Y0074703D01*
X0292750Y0075464D01*
X0292750Y0082841D01*
X0292107Y0083483D01*
X0292750Y0084126D01*
X0292750Y0091502D01*
X0292750Y0090368D02*
X0293098Y0090368D01*
X0293098Y0089369D02*
X0292750Y0089369D01*
X0292750Y0088370D02*
X0293098Y0088370D01*
X0293098Y0087372D02*
X0292750Y0087372D01*
X0292750Y0086373D02*
X0293098Y0086373D01*
X0293098Y0085375D02*
X0292750Y0085375D01*
X0292750Y0084376D02*
X0293098Y0084376D01*
X0293635Y0083378D02*
X0292213Y0083378D01*
X0292750Y0082379D02*
X0293098Y0082379D01*
X0293098Y0081381D02*
X0292750Y0081381D01*
X0292750Y0080382D02*
X0293098Y0080382D01*
X0293098Y0079384D02*
X0292750Y0079384D01*
X0292750Y0078385D02*
X0293098Y0078385D01*
X0293098Y0077387D02*
X0292750Y0077387D01*
X0292750Y0076388D02*
X0293098Y0076388D01*
X0293172Y0075390D02*
X0292675Y0075390D01*
X0291988Y0074547D02*
X0284612Y0074547D01*
X0283969Y0073904D01*
X0283327Y0074547D01*
X0275951Y0074547D01*
X0275189Y0073786D01*
X0275189Y0066409D01*
X0275832Y0065767D01*
X0275189Y0065124D01*
X0275189Y0057748D01*
X0275812Y0057125D01*
X0275189Y0056502D01*
X0275189Y0049126D01*
X0275832Y0048483D01*
X0275189Y0047841D01*
X0275189Y0040464D01*
X0275951Y0039703D01*
X0283327Y0039703D01*
X0283969Y0040346D01*
X0284612Y0039703D01*
X0291988Y0039703D01*
X0292750Y0040464D01*
X0292750Y0047841D01*
X0292107Y0048483D01*
X0292750Y0049126D01*
X0292750Y0056502D01*
X0292127Y0057125D01*
X0292750Y0057748D01*
X0292750Y0065124D01*
X0292107Y0065767D01*
X0292750Y0066409D01*
X0292750Y0073786D01*
X0291988Y0074547D01*
X0292144Y0074391D02*
X0293703Y0074391D01*
X0293098Y0073393D02*
X0292750Y0073393D01*
X0292750Y0072394D02*
X0293098Y0072394D01*
X0293098Y0071396D02*
X0292750Y0071396D01*
X0292750Y0070397D02*
X0293098Y0070397D01*
X0293098Y0069399D02*
X0292750Y0069399D01*
X0292750Y0068400D02*
X0293098Y0068400D01*
X0293098Y0067402D02*
X0292750Y0067402D01*
X0292744Y0066403D02*
X0293104Y0066403D01*
X0293378Y0065405D02*
X0292469Y0065405D01*
X0292750Y0064406D02*
X0293098Y0064406D01*
X0293098Y0063408D02*
X0292750Y0063408D01*
X0292750Y0062409D02*
X0293098Y0062409D01*
X0293098Y0061411D02*
X0292750Y0061411D01*
X0292750Y0060412D02*
X0293098Y0060412D01*
X0293098Y0059414D02*
X0292750Y0059414D01*
X0292750Y0058415D02*
X0293098Y0058415D01*
X0293429Y0057417D02*
X0292418Y0057417D01*
X0292750Y0056418D02*
X0293098Y0056418D01*
X0293098Y0055420D02*
X0292750Y0055420D01*
X0292750Y0054421D02*
X0293098Y0054421D01*
X0293098Y0053423D02*
X0292750Y0053423D01*
X0292750Y0052424D02*
X0293098Y0052424D01*
X0293098Y0051426D02*
X0292750Y0051426D01*
X0292750Y0050427D02*
X0293098Y0050427D01*
X0293098Y0049429D02*
X0292750Y0049429D01*
X0292160Y0048430D02*
X0293687Y0048430D01*
X0293098Y0047432D02*
X0292750Y0047432D01*
X0292750Y0046433D02*
X0293098Y0046433D01*
X0293098Y0045434D02*
X0292750Y0045434D01*
X0292750Y0044436D02*
X0293098Y0044436D01*
X0293098Y0043437D02*
X0292750Y0043437D01*
X0292750Y0042439D02*
X0293098Y0042439D01*
X0293098Y0041440D02*
X0292750Y0041440D01*
X0292727Y0040442D02*
X0293120Y0040442D01*
X0293756Y0039443D02*
X0292092Y0039443D01*
X0291988Y0039547D02*
X0284612Y0039547D01*
X0283969Y0038904D01*
X0283327Y0039547D01*
X0275951Y0039547D01*
X0275189Y0038786D01*
X0275189Y0031409D01*
X0275832Y0030767D01*
X0275189Y0030124D01*
X0275189Y0022748D01*
X0275951Y0021986D01*
X0283327Y0021986D01*
X0283969Y0022629D01*
X0284612Y0021986D01*
X0291988Y0021986D01*
X0292750Y0022748D01*
X0292750Y0030124D01*
X0292107Y0030767D01*
X0292750Y0031409D01*
X0292750Y0038786D01*
X0291988Y0039547D01*
X0292750Y0038445D02*
X0293098Y0038445D01*
X0293098Y0037446D02*
X0292750Y0037446D01*
X0292750Y0036448D02*
X0293098Y0036448D01*
X0293098Y0035449D02*
X0292750Y0035449D01*
X0292750Y0034451D02*
X0293098Y0034451D01*
X0293098Y0033452D02*
X0292750Y0033452D01*
X0292750Y0032454D02*
X0293098Y0032454D01*
X0293098Y0031455D02*
X0292750Y0031455D01*
X0292417Y0030457D02*
X0293430Y0030457D01*
X0293098Y0029458D02*
X0292750Y0029458D01*
X0292750Y0028460D02*
X0293098Y0028460D01*
X0293098Y0027461D02*
X0292750Y0027461D01*
X0292750Y0026463D02*
X0293098Y0026463D01*
X0293098Y0025464D02*
X0292750Y0025464D01*
X0292750Y0024466D02*
X0293098Y0024466D01*
X0293098Y0023467D02*
X0292750Y0023467D01*
X0292471Y0022469D02*
X0293377Y0022469D01*
X0301718Y0022469D02*
X0302038Y0022469D01*
X0319434Y0022469D02*
X0319755Y0022469D01*
X0320134Y0039443D02*
X0319055Y0039443D01*
X0302417Y0039443D02*
X0301339Y0039443D01*
X0284509Y0039443D02*
X0283430Y0039443D01*
X0275847Y0039443D02*
X0274375Y0039443D01*
X0274272Y0039547D02*
X0275033Y0038786D01*
X0275033Y0031409D01*
X0274391Y0030767D01*
X0275033Y0030124D01*
X0275033Y0022748D01*
X0274272Y0021986D01*
X0266896Y0021986D01*
X0266253Y0022629D01*
X0265610Y0021986D01*
X0258234Y0021986D01*
X0257611Y0022609D01*
X0256988Y0021986D01*
X0249612Y0021986D01*
X0248969Y0022629D01*
X0248327Y0021986D01*
X0240951Y0021986D01*
X0240189Y0022748D01*
X0240189Y0030124D01*
X0240832Y0030767D01*
X0240189Y0031409D01*
X0240189Y0038786D01*
X0240951Y0039547D01*
X0248327Y0039547D01*
X0248969Y0038904D01*
X0249612Y0039547D01*
X0256988Y0039547D01*
X0257611Y0038924D01*
X0258234Y0039547D01*
X0265610Y0039547D01*
X0266253Y0038904D01*
X0266896Y0039547D01*
X0274272Y0039547D01*
X0274272Y0039703D02*
X0275033Y0040464D01*
X0275033Y0047841D01*
X0274391Y0048483D01*
X0275033Y0049126D01*
X0275033Y0056502D01*
X0274410Y0057125D01*
X0275033Y0057748D01*
X0275033Y0065124D01*
X0274391Y0065767D01*
X0275033Y0066409D01*
X0275033Y0073786D01*
X0274272Y0074547D01*
X0266896Y0074547D01*
X0266253Y0073904D01*
X0265610Y0074547D01*
X0258234Y0074547D01*
X0257611Y0073924D01*
X0256988Y0074547D01*
X0249612Y0074547D01*
X0248969Y0073904D01*
X0248327Y0074547D01*
X0240951Y0074547D01*
X0240189Y0073786D01*
X0240189Y0066409D01*
X0240832Y0065767D01*
X0240189Y0065124D01*
X0240189Y0057748D01*
X0240812Y0057125D01*
X0240189Y0056502D01*
X0240189Y0049126D01*
X0240832Y0048483D01*
X0240189Y0047841D01*
X0240189Y0040464D01*
X0240951Y0039703D01*
X0248327Y0039703D01*
X0248969Y0040346D01*
X0249612Y0039703D01*
X0256988Y0039703D01*
X0257611Y0040326D01*
X0258234Y0039703D01*
X0265610Y0039703D01*
X0266253Y0040346D01*
X0266896Y0039703D01*
X0274272Y0039703D01*
X0275011Y0040442D02*
X0275212Y0040442D01*
X0275189Y0041440D02*
X0275033Y0041440D01*
X0275033Y0042439D02*
X0275189Y0042439D01*
X0275189Y0043437D02*
X0275033Y0043437D01*
X0275033Y0044436D02*
X0275189Y0044436D01*
X0275189Y0045434D02*
X0275033Y0045434D01*
X0275033Y0046433D02*
X0275189Y0046433D01*
X0275189Y0047432D02*
X0275033Y0047432D01*
X0274444Y0048430D02*
X0275779Y0048430D01*
X0275189Y0049429D02*
X0275033Y0049429D01*
X0275033Y0050427D02*
X0275189Y0050427D01*
X0275189Y0051426D02*
X0275033Y0051426D01*
X0275033Y0052424D02*
X0275189Y0052424D01*
X0275189Y0053423D02*
X0275033Y0053423D01*
X0275033Y0054421D02*
X0275189Y0054421D01*
X0275189Y0055420D02*
X0275033Y0055420D01*
X0275033Y0056418D02*
X0275189Y0056418D01*
X0275520Y0057417D02*
X0274702Y0057417D01*
X0275033Y0058415D02*
X0275189Y0058415D01*
X0275189Y0059414D02*
X0275033Y0059414D01*
X0275033Y0060412D02*
X0275189Y0060412D01*
X0275189Y0061411D02*
X0275033Y0061411D01*
X0275033Y0062409D02*
X0275189Y0062409D01*
X0275189Y0063408D02*
X0275033Y0063408D01*
X0275033Y0064406D02*
X0275189Y0064406D01*
X0275470Y0065405D02*
X0274753Y0065405D01*
X0275027Y0066403D02*
X0275195Y0066403D01*
X0275189Y0067402D02*
X0275033Y0067402D01*
X0275033Y0068400D02*
X0275189Y0068400D01*
X0275189Y0069399D02*
X0275033Y0069399D01*
X0275033Y0070397D02*
X0275189Y0070397D01*
X0275189Y0071396D02*
X0275033Y0071396D01*
X0275033Y0072394D02*
X0275189Y0072394D01*
X0275189Y0073393D02*
X0275033Y0073393D01*
X0274427Y0074391D02*
X0275795Y0074391D01*
X0275264Y0075390D02*
X0274959Y0075390D01*
X0275033Y0075464D02*
X0275033Y0082841D01*
X0274391Y0083483D01*
X0275033Y0084126D01*
X0275033Y0091502D01*
X0274272Y0092264D01*
X0266896Y0092264D01*
X0266253Y0091621D01*
X0265610Y0092264D01*
X0258234Y0092264D01*
X0257611Y0091641D01*
X0256988Y0092264D01*
X0249612Y0092264D01*
X0248969Y0091621D01*
X0248327Y0092264D01*
X0240951Y0092264D01*
X0240189Y0091502D01*
X0240189Y0084126D01*
X0240832Y0083483D01*
X0240189Y0082841D01*
X0240189Y0075464D01*
X0240951Y0074703D01*
X0248327Y0074703D01*
X0248969Y0075346D01*
X0249612Y0074703D01*
X0256988Y0074703D01*
X0257611Y0075326D01*
X0258234Y0074703D01*
X0265610Y0074703D01*
X0266253Y0075346D01*
X0266896Y0074703D01*
X0274272Y0074703D01*
X0275033Y0075464D01*
X0275033Y0076388D02*
X0275189Y0076388D01*
X0275189Y0077387D02*
X0275033Y0077387D01*
X0275033Y0078385D02*
X0275189Y0078385D01*
X0275189Y0079384D02*
X0275033Y0079384D01*
X0275033Y0080382D02*
X0275189Y0080382D01*
X0275189Y0081381D02*
X0275033Y0081381D01*
X0275033Y0082379D02*
X0275189Y0082379D01*
X0275726Y0083378D02*
X0274496Y0083378D01*
X0275033Y0084376D02*
X0275189Y0084376D01*
X0275189Y0085375D02*
X0275033Y0085375D01*
X0275033Y0086373D02*
X0275189Y0086373D01*
X0275189Y0087372D02*
X0275033Y0087372D01*
X0275033Y0088370D02*
X0275189Y0088370D01*
X0275189Y0089369D02*
X0275033Y0089369D01*
X0275033Y0090368D02*
X0275189Y0090368D01*
X0275189Y0091366D02*
X0275033Y0091366D01*
X0266740Y0074391D02*
X0265766Y0074391D01*
X0258078Y0074391D02*
X0257144Y0074391D01*
X0249456Y0074391D02*
X0248483Y0074391D01*
X0240795Y0074391D02*
X0239427Y0074391D01*
X0239272Y0074547D02*
X0231896Y0074547D01*
X0231253Y0073904D01*
X0230610Y0074547D01*
X0223234Y0074547D01*
X0222611Y0073924D01*
X0221988Y0074547D01*
X0214612Y0074547D01*
X0213969Y0073904D01*
X0213327Y0074547D01*
X0205951Y0074547D01*
X0205189Y0073786D01*
X0205189Y0066409D01*
X0205832Y0065767D01*
X0205189Y0065124D01*
X0205189Y0057748D01*
X0205812Y0057125D01*
X0205189Y0056502D01*
X0205189Y0049126D01*
X0205832Y0048483D01*
X0205189Y0047841D01*
X0205189Y0040464D01*
X0205951Y0039703D01*
X0213327Y0039703D01*
X0213969Y0040346D01*
X0214612Y0039703D01*
X0221988Y0039703D01*
X0222611Y0040326D01*
X0223234Y0039703D01*
X0230610Y0039703D01*
X0231253Y0040346D01*
X0231896Y0039703D01*
X0239272Y0039703D01*
X0240033Y0040464D01*
X0240033Y0047841D01*
X0239391Y0048483D01*
X0240033Y0049126D01*
X0240033Y0056502D01*
X0239410Y0057125D01*
X0240033Y0057748D01*
X0240033Y0065124D01*
X0239391Y0065767D01*
X0240033Y0066409D01*
X0240033Y0073786D01*
X0239272Y0074547D01*
X0239272Y0074703D02*
X0240033Y0075464D01*
X0240033Y0082841D01*
X0239391Y0083483D01*
X0240033Y0084126D01*
X0240033Y0091502D01*
X0239272Y0092264D01*
X0231896Y0092264D01*
X0231253Y0091621D01*
X0230610Y0092264D01*
X0223234Y0092264D01*
X0222611Y0091641D01*
X0221988Y0092264D01*
X0214612Y0092264D01*
X0213969Y0091621D01*
X0213327Y0092264D01*
X0205951Y0092264D01*
X0205189Y0091502D01*
X0205189Y0084126D01*
X0205832Y0083483D01*
X0205189Y0082841D01*
X0205189Y0075464D01*
X0205951Y0074703D01*
X0213327Y0074703D01*
X0213969Y0075346D01*
X0214612Y0074703D01*
X0221988Y0074703D01*
X0222611Y0075326D01*
X0223234Y0074703D01*
X0230610Y0074703D01*
X0231253Y0075346D01*
X0231896Y0074703D01*
X0239272Y0074703D01*
X0239959Y0075390D02*
X0240264Y0075390D01*
X0240189Y0076388D02*
X0240033Y0076388D01*
X0240033Y0077387D02*
X0240189Y0077387D01*
X0240189Y0078385D02*
X0240033Y0078385D01*
X0240033Y0079384D02*
X0240189Y0079384D01*
X0240189Y0080382D02*
X0240033Y0080382D01*
X0240033Y0081381D02*
X0240189Y0081381D01*
X0240189Y0082379D02*
X0240033Y0082379D01*
X0239496Y0083378D02*
X0240726Y0083378D01*
X0240189Y0084376D02*
X0240033Y0084376D01*
X0240033Y0085375D02*
X0240189Y0085375D01*
X0240189Y0086373D02*
X0240033Y0086373D01*
X0240033Y0087372D02*
X0240189Y0087372D01*
X0240189Y0088370D02*
X0240033Y0088370D01*
X0240033Y0089369D02*
X0240189Y0089369D01*
X0240189Y0090368D02*
X0240033Y0090368D01*
X0240033Y0091366D02*
X0240189Y0091366D01*
X0231740Y0074391D02*
X0230766Y0074391D01*
X0223078Y0074391D02*
X0222144Y0074391D01*
X0214456Y0074391D02*
X0213483Y0074391D01*
X0205795Y0074391D02*
X0204427Y0074391D01*
X0204272Y0074547D02*
X0196896Y0074547D01*
X0196253Y0073904D01*
X0195610Y0074547D01*
X0188234Y0074547D01*
X0187611Y0073924D01*
X0186988Y0074547D01*
X0179612Y0074547D01*
X0178969Y0073904D01*
X0178327Y0074547D01*
X0170951Y0074547D01*
X0170189Y0073786D01*
X0170189Y0066409D01*
X0170832Y0065767D01*
X0170189Y0065124D01*
X0170189Y0057748D01*
X0170812Y0057125D01*
X0170189Y0056502D01*
X0170189Y0049126D01*
X0170832Y0048483D01*
X0170189Y0047841D01*
X0170189Y0040464D01*
X0170951Y0039703D01*
X0178327Y0039703D01*
X0178969Y0040346D01*
X0179612Y0039703D01*
X0186988Y0039703D01*
X0187611Y0040326D01*
X0188234Y0039703D01*
X0195610Y0039703D01*
X0196253Y0040346D01*
X0196896Y0039703D01*
X0204272Y0039703D01*
X0205033Y0040464D01*
X0205033Y0047841D01*
X0204391Y0048483D01*
X0205033Y0049126D01*
X0205033Y0056502D01*
X0204410Y0057125D01*
X0205033Y0057748D01*
X0205033Y0065124D01*
X0204391Y0065767D01*
X0205033Y0066409D01*
X0205033Y0073786D01*
X0204272Y0074547D01*
X0204272Y0074703D02*
X0205033Y0075464D01*
X0205033Y0082841D01*
X0204391Y0083483D01*
X0205033Y0084126D01*
X0205033Y0091502D01*
X0204272Y0092264D01*
X0196896Y0092264D01*
X0196253Y0091621D01*
X0195610Y0092264D01*
X0188234Y0092264D01*
X0187611Y0091641D01*
X0186988Y0092264D01*
X0179612Y0092264D01*
X0178969Y0091621D01*
X0178327Y0092264D01*
X0170951Y0092264D01*
X0170189Y0091502D01*
X0170189Y0084126D01*
X0170832Y0083483D01*
X0170189Y0082841D01*
X0170189Y0075464D01*
X0170951Y0074703D01*
X0178327Y0074703D01*
X0178969Y0075346D01*
X0179612Y0074703D01*
X0186988Y0074703D01*
X0187611Y0075326D01*
X0188234Y0074703D01*
X0195610Y0074703D01*
X0196253Y0075346D01*
X0196896Y0074703D01*
X0204272Y0074703D01*
X0204959Y0075390D02*
X0205264Y0075390D01*
X0205189Y0076388D02*
X0205033Y0076388D01*
X0205033Y0077387D02*
X0205189Y0077387D01*
X0205189Y0078385D02*
X0205033Y0078385D01*
X0205033Y0079384D02*
X0205189Y0079384D01*
X0205189Y0080382D02*
X0205033Y0080382D01*
X0205033Y0081381D02*
X0205189Y0081381D01*
X0205189Y0082379D02*
X0205033Y0082379D01*
X0204496Y0083378D02*
X0205726Y0083378D01*
X0205189Y0084376D02*
X0205033Y0084376D01*
X0205033Y0085375D02*
X0205189Y0085375D01*
X0205189Y0086373D02*
X0205033Y0086373D01*
X0205033Y0087372D02*
X0205189Y0087372D01*
X0205189Y0088370D02*
X0205033Y0088370D01*
X0205033Y0089369D02*
X0205189Y0089369D01*
X0205189Y0090368D02*
X0205033Y0090368D01*
X0205033Y0091366D02*
X0205189Y0091366D01*
X0196740Y0074391D02*
X0195766Y0074391D01*
X0188078Y0074391D02*
X0187144Y0074391D01*
X0179456Y0074391D02*
X0178483Y0074391D01*
X0170795Y0074391D02*
X0169427Y0074391D01*
X0169959Y0075390D02*
X0170264Y0075390D01*
X0170189Y0076388D02*
X0170033Y0076388D01*
X0170033Y0077387D02*
X0170189Y0077387D01*
X0170189Y0078385D02*
X0170033Y0078385D01*
X0170033Y0079384D02*
X0170189Y0079384D01*
X0170189Y0080382D02*
X0170033Y0080382D01*
X0170033Y0081381D02*
X0170189Y0081381D01*
X0170189Y0082379D02*
X0170033Y0082379D01*
X0169496Y0083378D02*
X0170726Y0083378D01*
X0170189Y0084376D02*
X0170033Y0084376D01*
X0170033Y0085375D02*
X0170189Y0085375D01*
X0170189Y0086373D02*
X0170033Y0086373D01*
X0170033Y0087372D02*
X0170189Y0087372D01*
X0170189Y0088370D02*
X0170033Y0088370D01*
X0170033Y0089369D02*
X0170189Y0089369D01*
X0170189Y0090368D02*
X0170033Y0090368D01*
X0170033Y0091366D02*
X0170189Y0091366D01*
X0161740Y0074391D02*
X0160766Y0074391D01*
X0153078Y0074391D02*
X0152144Y0074391D01*
X0144456Y0074391D02*
X0143483Y0074391D01*
X0126740Y0074391D02*
X0125766Y0074391D01*
X0112486Y0081381D02*
X0111486Y0081381D01*
X0111486Y0082379D02*
X0112486Y0082379D01*
X0112486Y0083378D02*
X0111486Y0083378D01*
X0111486Y0084376D02*
X0112486Y0084376D01*
X0116871Y0086373D02*
X0117473Y0086373D01*
X0117473Y0087372D02*
X0116517Y0087372D01*
X0115899Y0088370D02*
X0117473Y0088370D01*
X0117473Y0089369D02*
X0114823Y0089369D01*
X0112486Y0089369D02*
X0111486Y0089369D01*
X0111486Y0088370D02*
X0112486Y0088370D01*
X0112486Y0087372D02*
X0111486Y0087372D01*
X0117473Y0096359D02*
X0068174Y0096359D01*
X0069067Y0097357D02*
X0117473Y0097357D01*
X0117473Y0098356D02*
X0070065Y0098356D01*
X0071384Y0099354D02*
X0117473Y0099354D01*
X0117558Y0100353D02*
X0073113Y0100353D01*
X0076448Y0101351D02*
X0117674Y0101351D01*
X0117473Y0102350D02*
X0088244Y0102350D01*
X0089465Y0102628D02*
X0089465Y0102628D01*
X0090959Y0103348D02*
X0117473Y0103348D01*
X0117473Y0104347D02*
X0093033Y0104347D01*
X0094033Y0104828D02*
X0094033Y0104828D01*
X0094681Y0105345D02*
X0117473Y0105345D01*
X0117473Y0106344D02*
X0095933Y0106344D01*
X0097185Y0107342D02*
X0117473Y0107342D01*
X0117473Y0108341D02*
X0098277Y0108341D01*
X0097997Y0107989D02*
X0097997Y0107989D01*
X0097997Y0107989D01*
X0099073Y0109339D02*
X0117884Y0109339D01*
X0117742Y0110338D02*
X0099870Y0110338D01*
X0100666Y0111336D02*
X0117473Y0111336D01*
X0117473Y0112335D02*
X0101342Y0112335D01*
X0101158Y0111954D02*
X0101158Y0111954D01*
X0101822Y0113333D02*
X0117473Y0113333D01*
X0117473Y0114332D02*
X0102303Y0114332D01*
X0102784Y0115330D02*
X0117473Y0115330D01*
X0117473Y0116329D02*
X0103265Y0116329D01*
X0103358Y0116522D02*
X0103358Y0116522D01*
X0103542Y0117327D02*
X0117473Y0117327D01*
X0117815Y0118326D02*
X0103770Y0118326D01*
X0103998Y0119324D02*
X0117473Y0119324D01*
X0117473Y0120323D02*
X0104226Y0120323D01*
X0104453Y0121321D02*
X0117473Y0121321D01*
X0117473Y0122320D02*
X0104486Y0122320D01*
X0104486Y0123318D02*
X0117473Y0123318D01*
X0117473Y0124317D02*
X0104486Y0124317D01*
X0104486Y0125315D02*
X0117473Y0125315D01*
X0117473Y0126314D02*
X0104486Y0126314D01*
X0104486Y0127312D02*
X0117908Y0127312D01*
X0117473Y0128311D02*
X0104486Y0128311D01*
X0104486Y0129309D02*
X0110767Y0129309D01*
X0108890Y0130308D02*
X0105082Y0130308D01*
X0106066Y0131306D02*
X0107906Y0131306D01*
X0107493Y0132305D02*
X0106480Y0132305D01*
X0106786Y0133303D02*
X0107186Y0133303D01*
X0107186Y0134302D02*
X0106786Y0134302D01*
X0106643Y0135301D02*
X0107329Y0135301D01*
X0107743Y0136299D02*
X0106229Y0136299D01*
X0105477Y0137298D02*
X0108496Y0137298D01*
X0108990Y0138296D02*
X0104158Y0138296D01*
X0103861Y0139295D02*
X0108791Y0139295D01*
X0108592Y0140293D02*
X0103861Y0140293D01*
X0103861Y0141292D02*
X0108347Y0141292D01*
X0107934Y0142290D02*
X0103861Y0142290D01*
X0103832Y0143289D02*
X0107520Y0143289D01*
X0107106Y0144287D02*
X0103564Y0144287D01*
X0103297Y0145286D02*
X0106693Y0145286D01*
X0106078Y0146284D02*
X0103029Y0146284D01*
X0102762Y0147283D02*
X0105410Y0147283D01*
X0104743Y0148281D02*
X0102293Y0148281D01*
X0102669Y0147630D02*
X0102669Y0147630D01*
X0101716Y0149280D02*
X0104076Y0149280D01*
X0103138Y0150278D02*
X0101140Y0150278D01*
X0100563Y0151277D02*
X0102140Y0151277D01*
X0101141Y0152275D02*
X0099710Y0152275D01*
X0099929Y0153274D02*
X0098711Y0153274D01*
X0098434Y0154272D02*
X0097713Y0154272D01*
X0097106Y0154878D02*
X0097106Y0154878D01*
X0096940Y0155271D02*
X0096427Y0155271D01*
X0094737Y0156269D02*
X0094698Y0156269D01*
X0098467Y0160263D02*
X0117473Y0160263D01*
X0117473Y0159265D02*
X0100173Y0159265D01*
X0099025Y0160032D02*
X0099025Y0160032D01*
X0100326Y0162611D02*
X0107702Y0162611D01*
X0108344Y0163254D01*
X0108987Y0162611D01*
X0116363Y0162611D01*
X0117125Y0163373D01*
X0117125Y0170749D01*
X0116482Y0171392D01*
X0117125Y0172034D01*
X0117125Y0179411D01*
X0116363Y0180172D01*
X0108987Y0180172D01*
X0108344Y0179529D01*
X0107702Y0180172D01*
X0100326Y0180172D01*
X0099564Y0179411D01*
X0099564Y0172034D01*
X0100207Y0171392D01*
X0099564Y0170749D01*
X0099564Y0163373D01*
X0100326Y0162611D01*
X0099678Y0163259D02*
X0099294Y0163259D01*
X0099408Y0164257D02*
X0099564Y0164257D01*
X0099564Y0165256D02*
X0099408Y0165256D01*
X0099408Y0166254D02*
X0099564Y0166254D01*
X0099564Y0167253D02*
X0099408Y0167253D01*
X0099408Y0168251D02*
X0099564Y0168251D01*
X0099564Y0169250D02*
X0099408Y0169250D01*
X0099408Y0170248D02*
X0099564Y0170248D01*
X0100062Y0171247D02*
X0098910Y0171247D01*
X0099408Y0172245D02*
X0099564Y0172245D01*
X0099564Y0173244D02*
X0099408Y0173244D01*
X0099408Y0174242D02*
X0099564Y0174242D01*
X0099564Y0175241D02*
X0099408Y0175241D01*
X0099408Y0176239D02*
X0099564Y0176239D01*
X0099564Y0177238D02*
X0099408Y0177238D01*
X0099408Y0178237D02*
X0099564Y0178237D01*
X0099564Y0179235D02*
X0099408Y0179235D01*
X0098647Y0180328D02*
X0099408Y0181089D01*
X0099408Y0188466D01*
X0098766Y0189108D01*
X0099408Y0189751D01*
X0099408Y0197127D01*
X0098647Y0197889D01*
X0091271Y0197889D01*
X0090628Y0197246D01*
X0089985Y0197889D01*
X0082609Y0197889D01*
X0081848Y0197127D01*
X0081848Y0189751D01*
X0082490Y0189108D01*
X0081848Y0188466D01*
X0081848Y0181089D01*
X0082609Y0180328D01*
X0089985Y0180328D01*
X0090628Y0180971D01*
X0091271Y0180328D01*
X0098647Y0180328D01*
X0099408Y0181232D02*
X0099564Y0181232D01*
X0099564Y0181089D02*
X0100326Y0180328D01*
X0107702Y0180328D01*
X0108344Y0180971D01*
X0108987Y0180328D01*
X0116363Y0180328D01*
X0117125Y0181089D01*
X0117125Y0188466D01*
X0116482Y0189108D01*
X0117125Y0189751D01*
X0117125Y0197127D01*
X0116363Y0197889D01*
X0108987Y0197889D01*
X0108344Y0197246D01*
X0107702Y0197889D01*
X0100326Y0197889D01*
X0099564Y0197127D01*
X0099564Y0189751D01*
X0100207Y0189108D01*
X0099564Y0188466D01*
X0099564Y0181089D01*
X0099564Y0182231D02*
X0099408Y0182231D01*
X0099408Y0183229D02*
X0099564Y0183229D01*
X0099564Y0184228D02*
X0099408Y0184228D01*
X0099408Y0185226D02*
X0099564Y0185226D01*
X0099564Y0186225D02*
X0099408Y0186225D01*
X0099408Y0187223D02*
X0099564Y0187223D01*
X0099564Y0188222D02*
X0099408Y0188222D01*
X0098877Y0189220D02*
X0100095Y0189220D01*
X0099564Y0190219D02*
X0099408Y0190219D01*
X0099408Y0191217D02*
X0099564Y0191217D01*
X0099564Y0192216D02*
X0099408Y0192216D01*
X0099408Y0193214D02*
X0099564Y0193214D01*
X0099564Y0194213D02*
X0099408Y0194213D01*
X0099408Y0195211D02*
X0099564Y0195211D01*
X0099564Y0196210D02*
X0099408Y0196210D01*
X0099327Y0197208D02*
X0099645Y0197208D01*
X0117044Y0197208D02*
X0117554Y0197208D01*
X0117473Y0196210D02*
X0117125Y0196210D01*
X0117125Y0195211D02*
X0117473Y0195211D01*
X0117473Y0194213D02*
X0117125Y0194213D01*
X0117125Y0193214D02*
X0117473Y0193214D01*
X0117473Y0192216D02*
X0117125Y0192216D01*
X0117125Y0191217D02*
X0117473Y0191217D01*
X0117473Y0190219D02*
X0117125Y0190219D01*
X0116594Y0189220D02*
X0118003Y0189220D01*
X0117473Y0188222D02*
X0117125Y0188222D01*
X0117125Y0187223D02*
X0117473Y0187223D01*
X0117473Y0186225D02*
X0117125Y0186225D01*
X0117125Y0185226D02*
X0117473Y0185226D01*
X0117473Y0184228D02*
X0117125Y0184228D01*
X0117125Y0183229D02*
X0117473Y0183229D01*
X0117473Y0182231D02*
X0117125Y0182231D01*
X0117125Y0181232D02*
X0117473Y0181232D01*
X0117473Y0179235D02*
X0117125Y0179235D01*
X0117125Y0178237D02*
X0117473Y0178237D01*
X0117473Y0177238D02*
X0117125Y0177238D01*
X0117125Y0176239D02*
X0117473Y0176239D01*
X0117473Y0175241D02*
X0117125Y0175241D01*
X0117125Y0174242D02*
X0117473Y0174242D01*
X0117473Y0173244D02*
X0117125Y0173244D01*
X0117125Y0172245D02*
X0117473Y0172245D01*
X0117970Y0171247D02*
X0116627Y0171247D01*
X0117125Y0170248D02*
X0117473Y0170248D01*
X0117473Y0169250D02*
X0117125Y0169250D01*
X0117125Y0168251D02*
X0117473Y0168251D01*
X0117473Y0167253D02*
X0117125Y0167253D01*
X0117125Y0166254D02*
X0117473Y0166254D01*
X0117473Y0165256D02*
X0117125Y0165256D01*
X0117125Y0164257D02*
X0117473Y0164257D01*
X0117587Y0163259D02*
X0117011Y0163259D01*
X0118231Y0162260D02*
X0093608Y0162260D01*
X0096056Y0161262D02*
X0117473Y0161262D01*
X0117473Y0158266D02*
X0101668Y0158266D01*
X0103162Y0157268D02*
X0117473Y0157268D01*
X0117473Y0156269D02*
X0104384Y0156269D01*
X0105383Y0155271D02*
X0117473Y0155271D01*
X0117473Y0154272D02*
X0106381Y0154272D01*
X0107380Y0153274D02*
X0117906Y0153274D01*
X0117473Y0152275D02*
X0108229Y0152275D01*
X0108896Y0151277D02*
X0117473Y0151277D01*
X0117473Y0150278D02*
X0109563Y0150278D01*
X0110231Y0149280D02*
X0117473Y0149280D01*
X0117473Y0148281D02*
X0110898Y0148281D01*
X0111405Y0147283D02*
X0117473Y0147283D01*
X0117473Y0146284D02*
X0111818Y0146284D01*
X0112232Y0145286D02*
X0117651Y0145286D01*
X0117974Y0144287D02*
X0112645Y0144287D01*
X0113059Y0143289D02*
X0117473Y0143289D01*
X0117473Y0142290D02*
X0113413Y0142290D01*
X0113611Y0141292D02*
X0117473Y0141292D01*
X0117473Y0140293D02*
X0113810Y0140293D01*
X0114009Y0139295D02*
X0117473Y0139295D01*
X0117473Y0138296D02*
X0114207Y0138296D01*
X0115477Y0137298D02*
X0117473Y0137298D01*
X0117583Y0136299D02*
X0116229Y0136299D01*
X0116643Y0135301D02*
X0117649Y0135301D01*
X0117473Y0134302D02*
X0116786Y0134302D01*
X0116786Y0133303D02*
X0117473Y0133303D01*
X0117473Y0132305D02*
X0116480Y0132305D01*
X0116066Y0131306D02*
X0117473Y0131306D01*
X0117473Y0130308D02*
X0115082Y0130308D01*
X0113205Y0129309D02*
X0117473Y0129309D01*
X0099486Y0129309D02*
X0093205Y0129309D01*
X0095082Y0130308D02*
X0098890Y0130308D01*
X0097906Y0131306D02*
X0096066Y0131306D01*
X0096480Y0132305D02*
X0097493Y0132305D01*
X0097186Y0133303D02*
X0096786Y0133303D01*
X0096786Y0134302D02*
X0097186Y0134302D01*
X0097329Y0135301D02*
X0096643Y0135301D01*
X0096229Y0136299D02*
X0097743Y0136299D01*
X0098496Y0137298D02*
X0095477Y0137298D01*
X0094158Y0138296D02*
X0098861Y0138296D01*
X0098861Y0139295D02*
X0093861Y0139295D01*
X0093861Y0140293D02*
X0098861Y0140293D01*
X0098834Y0141292D02*
X0093861Y0141292D01*
X0093861Y0142290D02*
X0098768Y0142290D01*
X0098545Y0143289D02*
X0093861Y0143289D01*
X0093861Y0144287D02*
X0098277Y0144287D01*
X0098010Y0145286D02*
X0093861Y0145286D01*
X0093837Y0146284D02*
X0097549Y0146284D01*
X0096972Y0147283D02*
X0093512Y0147283D01*
X0093188Y0148281D02*
X0096396Y0148281D01*
X0095483Y0149280D02*
X0092840Y0149280D01*
X0092115Y0150278D02*
X0094484Y0150278D01*
X0093131Y0151277D02*
X0091389Y0151277D01*
X0091020Y0151784D02*
X0091020Y0151784D01*
X0091402Y0152275D02*
X0090345Y0152275D01*
X0087231Y0148281D02*
X0059597Y0148281D01*
X0059607Y0148276D02*
X0058906Y0148634D01*
X0058157Y0148877D01*
X0057486Y0148983D01*
X0057486Y0144500D01*
X0056486Y0144500D01*
X0056486Y0143500D01*
X0052003Y0143500D01*
X0052109Y0142829D01*
X0052353Y0142081D01*
X0052710Y0141379D01*
X0053172Y0140743D01*
X0053729Y0140186D01*
X0054366Y0139724D01*
X0055067Y0139366D01*
X0055815Y0139123D01*
X0056486Y0139017D01*
X0056486Y0143500D01*
X0057486Y0143500D01*
X0057486Y0139017D01*
X0058157Y0139123D01*
X0058906Y0139366D01*
X0059607Y0139724D01*
X0060243Y0140186D01*
X0060800Y0140743D01*
X0061263Y0141379D01*
X0061620Y0142081D01*
X0061863Y0142829D01*
X0061969Y0143500D01*
X0057486Y0143500D01*
X0057486Y0144500D01*
X0061969Y0144500D01*
X0061863Y0145171D01*
X0061620Y0145919D01*
X0061263Y0146621D01*
X0060800Y0147257D01*
X0060243Y0147814D01*
X0059607Y0148276D01*
X0060775Y0147283D02*
X0088035Y0147283D01*
X0088515Y0146284D02*
X0061434Y0146284D01*
X0061826Y0145286D02*
X0088809Y0145286D01*
X0088861Y0144287D02*
X0057486Y0144287D01*
X0057486Y0143289D02*
X0056486Y0143289D01*
X0056486Y0144287D02*
X0051786Y0144287D01*
X0052003Y0144500D02*
X0056486Y0144500D01*
X0056486Y0148983D01*
X0055815Y0148877D01*
X0055067Y0148634D01*
X0054366Y0148276D01*
X0053729Y0147814D01*
X0053172Y0147257D01*
X0052710Y0146621D01*
X0052353Y0145919D01*
X0052109Y0145171D01*
X0052003Y0144500D01*
X0051786Y0144955D02*
X0051786Y0143045D01*
X0051055Y0141281D01*
X0049705Y0139931D01*
X0047941Y0139200D01*
X0047836Y0139200D01*
X0047836Y0123762D01*
X0048351Y0123247D01*
X0048820Y0122113D01*
X0048820Y0120886D01*
X0048351Y0119753D01*
X0047483Y0118885D01*
X0046350Y0118416D01*
X0045123Y0118416D01*
X0043989Y0118885D01*
X0043122Y0119753D01*
X0042652Y0120886D01*
X0042652Y0122113D01*
X0043122Y0123247D01*
X0043636Y0123762D01*
X0043636Y0140562D01*
X0042917Y0141281D01*
X0042186Y0143045D01*
X0042186Y0144955D01*
X0042917Y0146719D01*
X0044267Y0148069D01*
X0046031Y0148800D01*
X0047941Y0148800D01*
X0049705Y0148069D01*
X0051055Y0146719D01*
X0051786Y0144955D01*
X0051649Y0145286D02*
X0052147Y0145286D01*
X0052538Y0146284D02*
X0051236Y0146284D01*
X0050492Y0147283D02*
X0053198Y0147283D01*
X0054375Y0148281D02*
X0049194Y0148281D01*
X0046319Y0150278D02*
X0015236Y0150278D01*
X0015236Y0149280D02*
X0085517Y0149280D01*
X0088861Y0143289D02*
X0061936Y0143289D01*
X0061688Y0142290D02*
X0088861Y0142290D01*
X0088861Y0141292D02*
X0061199Y0141292D01*
X0060350Y0140293D02*
X0088861Y0140293D01*
X0088861Y0139295D02*
X0058685Y0139295D01*
X0057486Y0139295D02*
X0056486Y0139295D01*
X0056486Y0140293D02*
X0057486Y0140293D01*
X0057486Y0141292D02*
X0056486Y0141292D01*
X0056486Y0142290D02*
X0057486Y0142290D01*
X0055288Y0139295D02*
X0048169Y0139295D01*
X0047836Y0138296D02*
X0079815Y0138296D01*
X0079267Y0138069D02*
X0077917Y0136719D01*
X0077186Y0134955D01*
X0077186Y0133045D01*
X0077917Y0131281D01*
X0079267Y0129931D01*
X0081031Y0129200D01*
X0082941Y0129200D01*
X0084705Y0129931D01*
X0086055Y0131281D01*
X0086786Y0133045D01*
X0086786Y0134955D01*
X0086055Y0136719D01*
X0084705Y0138069D01*
X0082941Y0138800D01*
X0081031Y0138800D01*
X0079267Y0138069D01*
X0078496Y0137298D02*
X0056550Y0137298D01*
X0056351Y0137496D02*
X0054777Y0137496D01*
X0053664Y0136383D01*
X0053664Y0135482D01*
X0052976Y0134794D01*
X0051174Y0134794D01*
X0050061Y0133681D01*
X0050061Y0132107D01*
X0050962Y0131207D01*
X0050061Y0130306D01*
X0050061Y0126931D01*
X0050850Y0126142D01*
X0050061Y0125354D01*
X0050061Y0123780D01*
X0050962Y0122879D01*
X0051394Y0122447D01*
X0051426Y0122415D01*
X0051174Y0122415D01*
X0050061Y0121302D01*
X0050061Y0117927D01*
X0050962Y0117026D01*
X0050061Y0116126D01*
X0050061Y0112750D01*
X0050962Y0111850D01*
X0052075Y0110737D01*
X0053664Y0110737D01*
X0053664Y0110161D01*
X0052976Y0109472D01*
X0051174Y0109472D01*
X0050061Y0108359D01*
X0050061Y0106785D01*
X0050511Y0106335D01*
X0050061Y0105885D01*
X0050061Y0104311D01*
X0051076Y0103297D01*
X0050061Y0102282D01*
X0050061Y0100708D01*
X0050511Y0100258D01*
X0050061Y0099808D01*
X0050061Y0095532D01*
X0051174Y0094419D01*
X0051412Y0094181D01*
X0051394Y0094163D01*
X0050962Y0093731D01*
X0050962Y0093731D01*
X0050742Y0093511D01*
X0050061Y0092830D01*
X0050061Y0089455D01*
X0050794Y0088722D01*
X0050061Y0087990D01*
X0050061Y0085515D01*
X0050962Y0084615D01*
X0050742Y0084395D01*
X0050061Y0083714D01*
X0050061Y0080339D01*
X0052075Y0078325D01*
X0053649Y0078325D01*
X0054213Y0078889D01*
X0054777Y0078325D01*
X0057252Y0078325D01*
X0057933Y0079006D01*
X0058153Y0079226D01*
X0058585Y0079658D01*
X0059266Y0080339D01*
X0059266Y0083714D01*
X0058153Y0084827D01*
X0057252Y0085728D01*
X0055678Y0085728D01*
X0055114Y0085164D01*
X0054762Y0085516D01*
X0054762Y0087456D01*
X0054777Y0087441D01*
X0057252Y0087441D01*
X0057933Y0088122D01*
X0058153Y0088342D01*
X0058585Y0088774D01*
X0059266Y0089455D01*
X0059266Y0092830D01*
X0058153Y0093943D01*
X0057252Y0094844D01*
X0056776Y0094844D01*
X0056783Y0094851D01*
X0057464Y0095532D01*
X0057464Y0099595D01*
X0058153Y0099595D01*
X0059266Y0100708D01*
X0059266Y0102282D01*
X0058153Y0103395D01*
X0057464Y0103395D01*
X0057464Y0104984D01*
X0056564Y0105885D01*
X0057464Y0106785D01*
X0057464Y0108359D01*
X0057351Y0108473D01*
X0057464Y0108587D01*
X0057464Y0111062D01*
X0056620Y0111906D01*
X0056803Y0112089D01*
X0057464Y0112750D01*
X0057464Y0116126D01*
X0056564Y0117026D01*
X0057252Y0117715D01*
X0059054Y0117715D01*
X0060167Y0118828D01*
X0060167Y0120402D01*
X0059054Y0121515D01*
X0057001Y0121515D01*
X0057464Y0121978D01*
X0058365Y0122879D01*
X0058365Y0124453D01*
X0057464Y0125354D01*
X0056676Y0126142D01*
X0056803Y0126269D01*
X0057464Y0126931D01*
X0057464Y0130306D01*
X0056564Y0131207D01*
X0057464Y0132107D01*
X0057464Y0133681D01*
X0057351Y0133795D01*
X0057464Y0133908D01*
X0057464Y0136383D01*
X0056351Y0137496D01*
X0057464Y0136299D02*
X0077743Y0136299D01*
X0077329Y0135301D02*
X0057464Y0135301D01*
X0057464Y0134302D02*
X0077186Y0134302D01*
X0077186Y0133303D02*
X0057464Y0133303D01*
X0057464Y0132305D02*
X0077493Y0132305D01*
X0077906Y0131306D02*
X0056664Y0131306D01*
X0057462Y0130308D02*
X0078890Y0130308D01*
X0080767Y0129309D02*
X0057464Y0129309D01*
X0057464Y0128311D02*
X0099486Y0128311D01*
X0099486Y0127312D02*
X0057464Y0127312D01*
X0056848Y0126314D02*
X0099486Y0126314D01*
X0099486Y0125315D02*
X0057503Y0125315D01*
X0057464Y0125354D02*
X0057464Y0125354D01*
X0058365Y0124317D02*
X0099486Y0124317D01*
X0099448Y0123318D02*
X0058365Y0123318D01*
X0057806Y0122320D02*
X0099392Y0122320D01*
X0099212Y0121321D02*
X0059247Y0121321D01*
X0060167Y0120323D02*
X0098984Y0120323D01*
X0098756Y0119324D02*
X0060167Y0119324D01*
X0059665Y0118326D02*
X0098528Y0118326D01*
X0098074Y0117327D02*
X0056865Y0117327D01*
X0057261Y0116329D02*
X0097593Y0116329D01*
X0097113Y0115330D02*
X0057464Y0115330D01*
X0057464Y0114332D02*
X0096519Y0114332D01*
X0095722Y0113333D02*
X0057464Y0113333D01*
X0057049Y0112335D02*
X0094926Y0112335D01*
X0093998Y0111336D02*
X0057190Y0111336D01*
X0057464Y0110338D02*
X0092746Y0110338D01*
X0091494Y0109339D02*
X0057464Y0109339D01*
X0057464Y0108341D02*
X0089549Y0108341D01*
X0087153Y0107342D02*
X0057464Y0107342D01*
X0057023Y0106344D02*
X0075349Y0106344D01*
X0071622Y0105345D02*
X0057104Y0105345D01*
X0057464Y0104347D02*
X0069817Y0104347D01*
X0071481Y0105307D02*
X0071481Y0105307D01*
X0068088Y0103348D02*
X0058200Y0103348D01*
X0059198Y0102350D02*
X0066837Y0102350D01*
X0067491Y0103003D02*
X0067491Y0103003D01*
X0065839Y0101351D02*
X0059266Y0101351D01*
X0058910Y0100353D02*
X0064840Y0100353D01*
X0064233Y0099745D02*
X0064233Y0099745D01*
X0064007Y0099354D02*
X0057464Y0099354D01*
X0057464Y0098356D02*
X0063430Y0098356D01*
X0062854Y0097357D02*
X0057464Y0097357D01*
X0057464Y0096359D02*
X0062277Y0096359D01*
X0061929Y0095755D02*
X0061929Y0095755D01*
X0061823Y0095360D02*
X0057293Y0095360D01*
X0057734Y0094362D02*
X0061556Y0094362D01*
X0061288Y0093363D02*
X0058733Y0093363D01*
X0059266Y0092365D02*
X0061020Y0092365D01*
X0060753Y0091366D02*
X0059266Y0091366D01*
X0059266Y0090368D02*
X0060736Y0090368D01*
X0060736Y0089369D02*
X0059180Y0089369D01*
X0058182Y0088370D02*
X0060736Y0088370D01*
X0060736Y0087372D02*
X0054762Y0087372D01*
X0054762Y0086373D02*
X0060736Y0086373D01*
X0060736Y0085375D02*
X0057605Y0085375D01*
X0058604Y0084376D02*
X0060736Y0084376D01*
X0060736Y0083378D02*
X0059266Y0083378D01*
X0059266Y0082379D02*
X0060736Y0082379D01*
X0060736Y0081381D02*
X0059266Y0081381D01*
X0059266Y0080382D02*
X0060736Y0080382D01*
X0060845Y0079384D02*
X0058311Y0079384D01*
X0058153Y0079226D02*
X0058153Y0079226D01*
X0057312Y0078385D02*
X0061169Y0078385D01*
X0061494Y0077387D02*
X0015236Y0077387D01*
X0015236Y0078385D02*
X0052015Y0078385D01*
X0051016Y0079384D02*
X0015236Y0079384D01*
X0015236Y0080382D02*
X0050061Y0080382D01*
X0050061Y0081381D02*
X0015236Y0081381D01*
X0015236Y0082379D02*
X0050061Y0082379D01*
X0050061Y0083378D02*
X0015236Y0083378D01*
X0015236Y0084376D02*
X0050723Y0084376D01*
X0050201Y0085375D02*
X0015236Y0085375D01*
X0015236Y0086373D02*
X0050061Y0086373D01*
X0050061Y0087372D02*
X0015236Y0087372D01*
X0015506Y0088370D02*
X0050442Y0088370D01*
X0050147Y0089369D02*
X0016880Y0089369D01*
X0018061Y0090032D02*
X0018061Y0090032D01*
X0023451Y0090032D02*
X0023451Y0090032D01*
X0024089Y0090368D02*
X0030311Y0090368D01*
X0030140Y0090423D02*
X0030779Y0090215D01*
X0031394Y0090118D01*
X0031394Y0099539D01*
X0032165Y0099539D01*
X0032165Y0090118D01*
X0032780Y0090215D01*
X0033419Y0090423D01*
X0034018Y0090728D01*
X0034562Y0091124D01*
X0035038Y0091599D01*
X0035433Y0092143D01*
X0035738Y0092742D01*
X0035946Y0093382D01*
X0036051Y0094046D01*
X0036051Y0099539D01*
X0032165Y0099539D01*
X0032165Y0100311D01*
X0031394Y0100311D01*
X0031394Y0104189D01*
X0030779Y0104092D01*
X0030140Y0103884D01*
X0029541Y0103579D01*
X0028997Y0103183D01*
X0028521Y0102708D01*
X0028126Y0102164D01*
X0027821Y0101565D01*
X0027613Y0100925D01*
X0027516Y0100311D01*
X0031394Y0100311D01*
X0031394Y0099539D01*
X0027508Y0099539D01*
X0027508Y0094046D01*
X0027613Y0093382D01*
X0027821Y0092742D01*
X0028126Y0092143D01*
X0028521Y0091599D01*
X0028997Y0091124D01*
X0029541Y0090728D01*
X0030140Y0090423D01*
X0031394Y0090368D02*
X0032165Y0090368D01*
X0032165Y0091366D02*
X0031394Y0091366D01*
X0031394Y0092365D02*
X0032165Y0092365D01*
X0032165Y0093363D02*
X0031394Y0093363D01*
X0031394Y0094362D02*
X0032165Y0094362D01*
X0032165Y0095360D02*
X0031394Y0095360D01*
X0031394Y0096359D02*
X0032165Y0096359D01*
X0032165Y0097357D02*
X0031394Y0097357D01*
X0031394Y0098356D02*
X0032165Y0098356D01*
X0032165Y0099354D02*
X0031394Y0099354D01*
X0031394Y0100353D02*
X0032165Y0100353D01*
X0032165Y0100311D02*
X0032165Y0104189D01*
X0032780Y0104092D01*
X0033419Y0103884D01*
X0034018Y0103579D01*
X0034562Y0103183D01*
X0035038Y0102708D01*
X0035433Y0102164D01*
X0035738Y0101565D01*
X0035946Y0100925D01*
X0036043Y0100311D01*
X0032165Y0100311D01*
X0032165Y0101351D02*
X0031394Y0101351D01*
X0031394Y0102350D02*
X0032165Y0102350D01*
X0032165Y0103348D02*
X0031394Y0103348D01*
X0029223Y0103348D02*
X0019611Y0103348D01*
X0019611Y0102350D02*
X0028261Y0102350D01*
X0027751Y0101351D02*
X0019611Y0101351D01*
X0019611Y0104347D02*
X0050061Y0104347D01*
X0050061Y0105345D02*
X0019611Y0105345D01*
X0019611Y0106344D02*
X0050503Y0106344D01*
X0050061Y0107342D02*
X0019611Y0107342D01*
X0019611Y0108341D02*
X0050061Y0108341D01*
X0051041Y0109339D02*
X0019611Y0109339D01*
X0019611Y0110338D02*
X0053664Y0110338D01*
X0051475Y0111336D02*
X0019611Y0111336D01*
X0019611Y0112335D02*
X0050477Y0112335D01*
X0050061Y0113333D02*
X0019611Y0113333D01*
X0019611Y0114332D02*
X0050061Y0114332D01*
X0050061Y0115330D02*
X0019611Y0115330D01*
X0019611Y0116329D02*
X0029029Y0116329D01*
X0028997Y0116352D02*
X0029541Y0115957D01*
X0030140Y0115652D01*
X0030779Y0115444D01*
X0031394Y0115346D01*
X0031394Y0119224D01*
X0032165Y0119224D01*
X0032165Y0115346D01*
X0032780Y0115444D01*
X0033419Y0115652D01*
X0034018Y0115957D01*
X0034562Y0116352D01*
X0035038Y0116827D01*
X0035433Y0117371D01*
X0035738Y0117970D01*
X0035946Y0118610D01*
X0036043Y0119224D01*
X0032165Y0119224D01*
X0032165Y0119996D01*
X0031394Y0119996D01*
X0031394Y0129417D01*
X0030779Y0129320D01*
X0030140Y0129112D01*
X0029541Y0128807D01*
X0028997Y0128412D01*
X0028521Y0127936D01*
X0028126Y0127392D01*
X0027821Y0126793D01*
X0027613Y0126154D01*
X0027508Y0125490D01*
X0027508Y0119996D01*
X0031394Y0119996D01*
X0031394Y0119224D01*
X0027516Y0119224D01*
X0027613Y0118610D01*
X0027821Y0117970D01*
X0028126Y0117371D01*
X0028521Y0116827D01*
X0028997Y0116352D01*
X0028158Y0117327D02*
X0019611Y0117327D01*
X0022991Y0118326D02*
X0027705Y0118326D01*
X0027508Y0120323D02*
X0026178Y0120323D01*
X0026905Y0121321D02*
X0027508Y0121321D01*
X0027508Y0122320D02*
X0027216Y0122320D01*
X0027503Y0123242D02*
X0027503Y0123242D01*
X0027496Y0123318D02*
X0027508Y0123318D01*
X0027474Y0124317D02*
X0027508Y0124317D01*
X0027508Y0125315D02*
X0027293Y0125315D01*
X0026982Y0126314D02*
X0027665Y0126314D01*
X0028085Y0127312D02*
X0026384Y0127312D01*
X0025554Y0128311D02*
X0028896Y0128311D01*
X0030747Y0129309D02*
X0023820Y0129309D01*
X0017692Y0129309D02*
X0017395Y0129309D01*
X0017090Y0129729D02*
X0017090Y0129729D01*
X0016293Y0130308D02*
X0043636Y0130308D01*
X0043636Y0131306D02*
X0015236Y0131306D01*
X0015236Y0132305D02*
X0043636Y0132305D01*
X0043636Y0133303D02*
X0015236Y0133303D01*
X0015236Y0134302D02*
X0043636Y0134302D01*
X0043636Y0135301D02*
X0015236Y0135301D01*
X0015236Y0136299D02*
X0043636Y0136299D01*
X0043636Y0137298D02*
X0015236Y0137298D01*
X0015236Y0138296D02*
X0043636Y0138296D01*
X0043636Y0139295D02*
X0015236Y0139295D01*
X0015236Y0140293D02*
X0043636Y0140293D01*
X0042913Y0141292D02*
X0015236Y0141292D01*
X0015236Y0142290D02*
X0042499Y0142290D01*
X0042186Y0143289D02*
X0015236Y0143289D01*
X0015236Y0144287D02*
X0042186Y0144287D01*
X0042323Y0145286D02*
X0015236Y0145286D01*
X0015236Y0146284D02*
X0042737Y0146284D01*
X0043481Y0147283D02*
X0015236Y0147283D01*
X0015236Y0148281D02*
X0044779Y0148281D01*
X0044940Y0150726D02*
X0044940Y0150726D01*
X0044183Y0151277D02*
X0015236Y0151277D01*
X0015236Y0152275D02*
X0042808Y0152275D01*
X0041728Y0153274D02*
X0015236Y0153274D01*
X0015236Y0154272D02*
X0041003Y0154272D01*
X0040277Y0155271D02*
X0015236Y0155271D01*
X0015236Y0156269D02*
X0039779Y0156269D01*
X0039962Y0155704D02*
X0039962Y0155704D01*
X0039454Y0157268D02*
X0033832Y0157268D01*
X0035377Y0158266D02*
X0038596Y0158266D01*
X0037915Y0159265D02*
X0036057Y0159265D01*
X0036411Y0160263D02*
X0037561Y0160263D01*
X0037561Y0161262D02*
X0036411Y0161262D01*
X0036150Y0162260D02*
X0037822Y0162260D01*
X0044900Y0162260D02*
X0046572Y0162260D01*
X0046337Y0163259D02*
X0045544Y0163259D01*
X0045658Y0164257D02*
X0046223Y0164257D01*
X0046223Y0165256D02*
X0045658Y0165256D01*
X0045658Y0166254D02*
X0046223Y0166254D01*
X0046223Y0167253D02*
X0045658Y0167253D01*
X0045658Y0168251D02*
X0046223Y0168251D01*
X0046223Y0169250D02*
X0045658Y0169250D01*
X0045658Y0170248D02*
X0046223Y0170248D01*
X0046720Y0171247D02*
X0045160Y0171247D01*
X0045658Y0172245D02*
X0046223Y0172245D01*
X0046223Y0173244D02*
X0045658Y0173244D01*
X0045658Y0174242D02*
X0046223Y0174242D01*
X0046223Y0175241D02*
X0045658Y0175241D01*
X0045658Y0176239D02*
X0046223Y0176239D01*
X0046223Y0177238D02*
X0045658Y0177238D01*
X0045658Y0178237D02*
X0046223Y0178237D01*
X0046223Y0179235D02*
X0045658Y0179235D01*
X0046984Y0180328D02*
X0054360Y0180328D01*
X0055003Y0180971D01*
X0055646Y0180328D01*
X0063022Y0180328D01*
X0063783Y0181089D01*
X0063783Y0188466D01*
X0063141Y0189108D01*
X0063783Y0189751D01*
X0063783Y0197127D01*
X0063022Y0197889D01*
X0055646Y0197889D01*
X0055003Y0197246D01*
X0054360Y0197889D01*
X0046984Y0197889D01*
X0046223Y0197127D01*
X0046223Y0189751D01*
X0046865Y0189108D01*
X0046223Y0188466D01*
X0046223Y0181089D01*
X0046984Y0180328D01*
X0046223Y0181232D02*
X0045658Y0181232D01*
X0045658Y0182231D02*
X0046223Y0182231D01*
X0046223Y0183229D02*
X0045658Y0183229D01*
X0045658Y0184228D02*
X0046223Y0184228D01*
X0046223Y0185226D02*
X0045658Y0185226D01*
X0045658Y0186225D02*
X0046223Y0186225D01*
X0046223Y0187223D02*
X0045658Y0187223D01*
X0045658Y0188222D02*
X0046223Y0188222D01*
X0046753Y0189220D02*
X0045127Y0189220D01*
X0045658Y0190219D02*
X0046223Y0190219D01*
X0046223Y0191217D02*
X0045658Y0191217D01*
X0045658Y0192216D02*
X0046223Y0192216D01*
X0046223Y0193214D02*
X0045658Y0193214D01*
X0045658Y0194213D02*
X0046223Y0194213D01*
X0046223Y0195211D02*
X0045658Y0195211D01*
X0045658Y0196210D02*
X0046223Y0196210D01*
X0046304Y0197208D02*
X0045577Y0197208D01*
X0063702Y0197208D02*
X0064020Y0197208D01*
X0063939Y0197127D02*
X0063939Y0189751D01*
X0064582Y0189108D01*
X0063939Y0188466D01*
X0063939Y0181089D01*
X0064701Y0180328D01*
X0072077Y0180328D01*
X0072719Y0180971D01*
X0073362Y0180328D01*
X0080738Y0180328D01*
X0081500Y0181089D01*
X0081500Y0188466D01*
X0080857Y0189108D01*
X0081500Y0189751D01*
X0081500Y0197127D01*
X0080738Y0197889D01*
X0073362Y0197889D01*
X0072719Y0197246D01*
X0072077Y0197889D01*
X0064701Y0197889D01*
X0063939Y0197127D01*
X0063939Y0196210D02*
X0063783Y0196210D01*
X0063783Y0195211D02*
X0063939Y0195211D01*
X0063939Y0194213D02*
X0063783Y0194213D01*
X0063783Y0193214D02*
X0063939Y0193214D01*
X0063939Y0192216D02*
X0063783Y0192216D01*
X0063783Y0191217D02*
X0063939Y0191217D01*
X0063939Y0190219D02*
X0063783Y0190219D01*
X0063252Y0189220D02*
X0064470Y0189220D01*
X0063939Y0188222D02*
X0063783Y0188222D01*
X0063783Y0187223D02*
X0063939Y0187223D01*
X0063939Y0186225D02*
X0063783Y0186225D01*
X0063783Y0185226D02*
X0063939Y0185226D01*
X0063939Y0184228D02*
X0063783Y0184228D01*
X0063783Y0183229D02*
X0063939Y0183229D01*
X0063939Y0182231D02*
X0063783Y0182231D01*
X0063783Y0181232D02*
X0063939Y0181232D01*
X0063939Y0179235D02*
X0063783Y0179235D01*
X0063783Y0178237D02*
X0063939Y0178237D01*
X0063939Y0177238D02*
X0063783Y0177238D01*
X0063783Y0176239D02*
X0063939Y0176239D01*
X0063939Y0175241D02*
X0063783Y0175241D01*
X0063783Y0174242D02*
X0063939Y0174242D01*
X0063939Y0173244D02*
X0063783Y0173244D01*
X0063783Y0172245D02*
X0063939Y0172245D01*
X0064437Y0171247D02*
X0063285Y0171247D01*
X0063783Y0170248D02*
X0063939Y0170248D01*
X0063939Y0169250D02*
X0063783Y0169250D01*
X0063783Y0168251D02*
X0063939Y0168251D01*
X0063939Y0167253D02*
X0063783Y0167253D01*
X0063783Y0166254D02*
X0063939Y0166254D01*
X0063939Y0165256D02*
X0063783Y0165256D01*
X0063783Y0164257D02*
X0063939Y0164257D01*
X0050325Y0154745D02*
X0050325Y0154745D01*
X0050325Y0154745D01*
X0049865Y0155271D02*
X0047383Y0155271D01*
X0045948Y0156269D02*
X0048991Y0156269D01*
X0048439Y0156900D02*
X0048439Y0156900D01*
X0048315Y0157268D02*
X0045102Y0157268D01*
X0044468Y0158266D02*
X0047346Y0158266D01*
X0046665Y0159265D02*
X0044807Y0159265D01*
X0045161Y0160263D02*
X0046311Y0160263D01*
X0046311Y0161262D02*
X0045161Y0161262D01*
X0031390Y0157268D02*
X0015236Y0157268D01*
X0015236Y0158266D02*
X0029846Y0158266D01*
X0029165Y0159265D02*
X0015236Y0159265D01*
X0015236Y0160263D02*
X0028811Y0160263D01*
X0028811Y0161262D02*
X0015236Y0161262D01*
X0015236Y0162260D02*
X0029072Y0162260D01*
X0028212Y0163259D02*
X0015236Y0163259D01*
X0015236Y0164257D02*
X0028098Y0164257D01*
X0028098Y0165256D02*
X0015236Y0165256D01*
X0015236Y0166254D02*
X0028098Y0166254D01*
X0028098Y0167253D02*
X0015236Y0167253D01*
X0015236Y0168251D02*
X0028098Y0168251D01*
X0028098Y0169250D02*
X0015236Y0169250D01*
X0015236Y0170248D02*
X0028098Y0170248D01*
X0028595Y0171247D02*
X0015236Y0171247D01*
X0015236Y0172245D02*
X0028098Y0172245D01*
X0028098Y0173244D02*
X0015236Y0173244D01*
X0015236Y0174242D02*
X0028098Y0174242D01*
X0028098Y0175241D02*
X0015236Y0175241D01*
X0015236Y0176239D02*
X0028098Y0176239D01*
X0028098Y0177238D02*
X0015236Y0177238D01*
X0015236Y0178237D02*
X0028098Y0178237D01*
X0028098Y0179235D02*
X0015236Y0179235D01*
X0015284Y0199205D02*
X0340834Y0199205D01*
X0340751Y0200204D02*
X0015367Y0200204D01*
X0015595Y0201202D02*
X0340524Y0201202D01*
X0340296Y0202201D02*
X0015822Y0202201D01*
X0016050Y0203199D02*
X0340068Y0203199D01*
X0339629Y0204198D02*
X0016489Y0204198D01*
X0016970Y0205196D02*
X0339148Y0205196D01*
X0338667Y0206195D02*
X0017451Y0206195D01*
X0018173Y0207193D02*
X0337945Y0207193D01*
X0337149Y0208192D02*
X0018969Y0208192D01*
X0019812Y0209190D02*
X0336306Y0209190D01*
X0335054Y0210189D02*
X0021064Y0210189D01*
X0022317Y0211187D02*
X0333802Y0211187D01*
X0331745Y0212186D02*
X0024373Y0212186D01*
X0027601Y0213184D02*
X0328517Y0213184D01*
X0144609Y0162260D02*
X0143330Y0162260D01*
X0126892Y0162260D02*
X0125614Y0162260D01*
X0126193Y0145286D02*
X0126313Y0145286D01*
X0126636Y0144287D02*
X0125870Y0144287D01*
X0143587Y0144287D02*
X0144352Y0144287D01*
X0144029Y0145286D02*
X0143910Y0145286D01*
X0090767Y0129309D02*
X0083205Y0129309D01*
X0085082Y0130308D02*
X0088890Y0130308D01*
X0087906Y0131306D02*
X0086066Y0131306D01*
X0086480Y0132305D02*
X0087493Y0132305D01*
X0087186Y0133303D02*
X0086786Y0133303D01*
X0086786Y0134302D02*
X0087186Y0134302D01*
X0087329Y0135301D02*
X0086643Y0135301D01*
X0086229Y0136299D02*
X0087743Y0136299D01*
X0088496Y0137298D02*
X0085477Y0137298D01*
X0084158Y0138296D02*
X0088861Y0138296D01*
X0057486Y0145286D02*
X0056486Y0145286D01*
X0056486Y0146284D02*
X0057486Y0146284D01*
X0057486Y0147283D02*
X0056486Y0147283D01*
X0056486Y0148281D02*
X0057486Y0148281D01*
X0052037Y0143289D02*
X0051786Y0143289D01*
X0051473Y0142290D02*
X0052284Y0142290D01*
X0052774Y0141292D02*
X0051060Y0141292D01*
X0050068Y0140293D02*
X0053622Y0140293D01*
X0054579Y0137298D02*
X0047836Y0137298D01*
X0047836Y0136299D02*
X0053664Y0136299D01*
X0053482Y0135301D02*
X0047836Y0135301D01*
X0047836Y0134302D02*
X0050682Y0134302D01*
X0050061Y0133303D02*
X0047836Y0133303D01*
X0047836Y0132305D02*
X0050061Y0132305D01*
X0050862Y0131306D02*
X0047836Y0131306D01*
X0047836Y0130308D02*
X0050063Y0130308D01*
X0050061Y0129309D02*
X0047836Y0129309D01*
X0047836Y0128311D02*
X0050061Y0128311D01*
X0050061Y0127312D02*
X0047836Y0127312D01*
X0047836Y0126314D02*
X0050678Y0126314D01*
X0050061Y0125315D02*
X0047836Y0125315D01*
X0047836Y0124317D02*
X0050061Y0124317D01*
X0050523Y0123318D02*
X0048280Y0123318D01*
X0048735Y0122320D02*
X0051079Y0122320D01*
X0050962Y0122879D02*
X0050962Y0122879D01*
X0050080Y0121321D02*
X0048820Y0121321D01*
X0048587Y0120323D02*
X0050061Y0120323D01*
X0050061Y0119324D02*
X0047922Y0119324D01*
X0050061Y0118326D02*
X0035854Y0118326D01*
X0035401Y0117327D02*
X0050661Y0117327D01*
X0050264Y0116329D02*
X0034530Y0116329D01*
X0032165Y0116329D02*
X0031394Y0116329D01*
X0031394Y0117327D02*
X0032165Y0117327D01*
X0032165Y0118326D02*
X0031394Y0118326D01*
X0031394Y0119324D02*
X0025347Y0119324D01*
X0031394Y0120323D02*
X0032165Y0120323D01*
X0032165Y0119996D02*
X0032165Y0129417D01*
X0032780Y0129320D01*
X0033419Y0129112D01*
X0034018Y0128807D01*
X0034562Y0128412D01*
X0035038Y0127936D01*
X0035433Y0127392D01*
X0035738Y0126793D01*
X0035946Y0126154D01*
X0036051Y0125490D01*
X0036051Y0119996D01*
X0032165Y0119996D01*
X0032165Y0119324D02*
X0043550Y0119324D01*
X0042885Y0120323D02*
X0036051Y0120323D01*
X0036051Y0121321D02*
X0042652Y0121321D01*
X0042737Y0122320D02*
X0036051Y0122320D01*
X0036051Y0123318D02*
X0043193Y0123318D01*
X0043636Y0124317D02*
X0036051Y0124317D01*
X0036051Y0125315D02*
X0043636Y0125315D01*
X0043636Y0126314D02*
X0035894Y0126314D01*
X0035474Y0127312D02*
X0043636Y0127312D01*
X0043636Y0128311D02*
X0034663Y0128311D01*
X0032812Y0129309D02*
X0043636Y0129309D01*
X0032165Y0129309D02*
X0031394Y0129309D01*
X0031394Y0128311D02*
X0032165Y0128311D01*
X0032165Y0127312D02*
X0031394Y0127312D01*
X0031394Y0126314D02*
X0032165Y0126314D01*
X0032165Y0125315D02*
X0031394Y0125315D01*
X0031394Y0124317D02*
X0032165Y0124317D01*
X0032165Y0123318D02*
X0031394Y0123318D01*
X0031394Y0122320D02*
X0032165Y0122320D01*
X0032165Y0121321D02*
X0031394Y0121321D01*
X0034336Y0103348D02*
X0051024Y0103348D01*
X0050129Y0102350D02*
X0035298Y0102350D01*
X0035808Y0101351D02*
X0050061Y0101351D01*
X0050417Y0100353D02*
X0036037Y0100353D01*
X0036051Y0099354D02*
X0050061Y0099354D01*
X0050061Y0098356D02*
X0036051Y0098356D01*
X0036051Y0097357D02*
X0050061Y0097357D01*
X0050061Y0096359D02*
X0036051Y0096359D01*
X0036051Y0095360D02*
X0050233Y0095360D01*
X0051174Y0094419D02*
X0051174Y0094419D01*
X0051231Y0094362D02*
X0036051Y0094362D01*
X0035940Y0093363D02*
X0050594Y0093363D01*
X0050061Y0092365D02*
X0035546Y0092365D01*
X0034805Y0091366D02*
X0050061Y0091366D01*
X0050061Y0090368D02*
X0033248Y0090368D01*
X0028754Y0091366D02*
X0025670Y0091366D01*
X0026502Y0092365D02*
X0028013Y0092365D01*
X0027619Y0093363D02*
X0027026Y0093363D01*
X0026842Y0092773D02*
X0026842Y0092773D01*
X0027337Y0094362D02*
X0027508Y0094362D01*
X0027503Y0094895D02*
X0027503Y0094895D01*
X0027508Y0095360D02*
X0027461Y0095360D01*
X0027503Y0096294D02*
X0027503Y0096294D01*
X0027508Y0096359D02*
X0027483Y0096359D01*
X0027508Y0097357D02*
X0027172Y0097357D01*
X0026861Y0098356D02*
X0027508Y0098356D01*
X0026842Y0098416D02*
X0026842Y0098416D01*
X0027508Y0099354D02*
X0026060Y0099354D01*
X0025195Y0100353D02*
X0027522Y0100353D01*
X0023451Y0101156D02*
X0023451Y0101156D01*
X0054903Y0085375D02*
X0055325Y0085375D01*
X0058153Y0088342D02*
X0058153Y0088342D01*
X0054717Y0078385D02*
X0053709Y0078385D01*
X0061818Y0076388D02*
X0015236Y0076388D01*
X0015236Y0075390D02*
X0062520Y0075390D01*
X0061837Y0076329D02*
X0061837Y0076329D01*
X0063245Y0074391D02*
X0015236Y0074391D01*
X0015236Y0073393D02*
X0064005Y0073393D01*
X0065379Y0072394D02*
X0015236Y0072394D01*
X0015236Y0071396D02*
X0066754Y0071396D01*
X0066815Y0071351D02*
X0066815Y0071351D01*
X0043081Y0070133D02*
X0043081Y0070133D01*
X0037417Y0039443D02*
X0036339Y0039443D01*
X0054464Y0039443D02*
X0055542Y0039443D01*
X0072180Y0039443D02*
X0073259Y0039443D01*
X0090089Y0039443D02*
X0091167Y0039443D01*
X0107805Y0039443D02*
X0108884Y0039443D01*
X0125714Y0039443D02*
X0126792Y0039443D01*
X0143430Y0039443D02*
X0144509Y0039443D01*
X0152092Y0039443D02*
X0153131Y0039443D01*
X0160714Y0039443D02*
X0161792Y0039443D01*
X0169375Y0039443D02*
X0170847Y0039443D01*
X0170951Y0039547D02*
X0170189Y0038786D01*
X0170189Y0031409D01*
X0170832Y0030767D01*
X0170189Y0030124D01*
X0170189Y0022748D01*
X0170951Y0021986D01*
X0178327Y0021986D01*
X0178969Y0022629D01*
X0179612Y0021986D01*
X0186988Y0021986D01*
X0187611Y0022609D01*
X0188234Y0021986D01*
X0195610Y0021986D01*
X0196253Y0022629D01*
X0196896Y0021986D01*
X0204272Y0021986D01*
X0205033Y0022748D01*
X0205033Y0030124D01*
X0204391Y0030767D01*
X0205033Y0031409D01*
X0205033Y0038786D01*
X0204272Y0039547D01*
X0196896Y0039547D01*
X0196253Y0038904D01*
X0195610Y0039547D01*
X0188234Y0039547D01*
X0187611Y0038924D01*
X0186988Y0039547D01*
X0179612Y0039547D01*
X0178969Y0038904D01*
X0178327Y0039547D01*
X0170951Y0039547D01*
X0170212Y0040442D02*
X0170011Y0040442D01*
X0170033Y0041440D02*
X0170189Y0041440D01*
X0170189Y0042439D02*
X0170033Y0042439D01*
X0170033Y0043437D02*
X0170189Y0043437D01*
X0170189Y0044436D02*
X0170033Y0044436D01*
X0170033Y0045434D02*
X0170189Y0045434D01*
X0170189Y0046433D02*
X0170033Y0046433D01*
X0170033Y0047432D02*
X0170189Y0047432D01*
X0170779Y0048430D02*
X0169444Y0048430D01*
X0170033Y0049429D02*
X0170189Y0049429D01*
X0170189Y0050427D02*
X0170033Y0050427D01*
X0170033Y0051426D02*
X0170189Y0051426D01*
X0170189Y0052424D02*
X0170033Y0052424D01*
X0170033Y0053423D02*
X0170189Y0053423D01*
X0170189Y0054421D02*
X0170033Y0054421D01*
X0170033Y0055420D02*
X0170189Y0055420D01*
X0170189Y0056418D02*
X0170033Y0056418D01*
X0169702Y0057417D02*
X0170520Y0057417D01*
X0170189Y0058415D02*
X0170033Y0058415D01*
X0170033Y0059414D02*
X0170189Y0059414D01*
X0170189Y0060412D02*
X0170033Y0060412D01*
X0170033Y0061411D02*
X0170189Y0061411D01*
X0170189Y0062409D02*
X0170033Y0062409D01*
X0170033Y0063408D02*
X0170189Y0063408D01*
X0170189Y0064406D02*
X0170033Y0064406D01*
X0169753Y0065405D02*
X0170470Y0065405D01*
X0170195Y0066403D02*
X0170027Y0066403D01*
X0170033Y0067402D02*
X0170189Y0067402D01*
X0170189Y0068400D02*
X0170033Y0068400D01*
X0170033Y0069399D02*
X0170189Y0069399D01*
X0170189Y0070397D02*
X0170033Y0070397D01*
X0170033Y0071396D02*
X0170189Y0071396D01*
X0170189Y0072394D02*
X0170033Y0072394D01*
X0170033Y0073393D02*
X0170189Y0073393D01*
X0204753Y0065405D02*
X0205470Y0065405D01*
X0205195Y0066403D02*
X0205027Y0066403D01*
X0205033Y0067402D02*
X0205189Y0067402D01*
X0205189Y0068400D02*
X0205033Y0068400D01*
X0205033Y0069399D02*
X0205189Y0069399D01*
X0205189Y0070397D02*
X0205033Y0070397D01*
X0205033Y0071396D02*
X0205189Y0071396D01*
X0205189Y0072394D02*
X0205033Y0072394D01*
X0205033Y0073393D02*
X0205189Y0073393D01*
X0205189Y0064406D02*
X0205033Y0064406D01*
X0205033Y0063408D02*
X0205189Y0063408D01*
X0205189Y0062409D02*
X0205033Y0062409D01*
X0205033Y0061411D02*
X0205189Y0061411D01*
X0205189Y0060412D02*
X0205033Y0060412D01*
X0205033Y0059414D02*
X0205189Y0059414D01*
X0205189Y0058415D02*
X0205033Y0058415D01*
X0204702Y0057417D02*
X0205520Y0057417D01*
X0205189Y0056418D02*
X0205033Y0056418D01*
X0205033Y0055420D02*
X0205189Y0055420D01*
X0205189Y0054421D02*
X0205033Y0054421D01*
X0205033Y0053423D02*
X0205189Y0053423D01*
X0205189Y0052424D02*
X0205033Y0052424D01*
X0205033Y0051426D02*
X0205189Y0051426D01*
X0205189Y0050427D02*
X0205033Y0050427D01*
X0205033Y0049429D02*
X0205189Y0049429D01*
X0205779Y0048430D02*
X0204444Y0048430D01*
X0205033Y0047432D02*
X0205189Y0047432D01*
X0205189Y0046433D02*
X0205033Y0046433D01*
X0205033Y0045434D02*
X0205189Y0045434D01*
X0205189Y0044436D02*
X0205033Y0044436D01*
X0205033Y0043437D02*
X0205189Y0043437D01*
X0205189Y0042439D02*
X0205033Y0042439D01*
X0205033Y0041440D02*
X0205189Y0041440D01*
X0205212Y0040442D02*
X0205011Y0040442D01*
X0204375Y0039443D02*
X0205847Y0039443D01*
X0205951Y0039547D02*
X0205189Y0038786D01*
X0205189Y0031409D01*
X0205832Y0030767D01*
X0205189Y0030124D01*
X0205189Y0022748D01*
X0205951Y0021986D01*
X0213327Y0021986D01*
X0213969Y0022629D01*
X0214612Y0021986D01*
X0221988Y0021986D01*
X0222611Y0022609D01*
X0223234Y0021986D01*
X0230610Y0021986D01*
X0231253Y0022629D01*
X0231896Y0021986D01*
X0239272Y0021986D01*
X0240033Y0022748D01*
X0240033Y0030124D01*
X0239391Y0030767D01*
X0240033Y0031409D01*
X0240033Y0038786D01*
X0239272Y0039547D01*
X0231896Y0039547D01*
X0231253Y0038904D01*
X0230610Y0039547D01*
X0223234Y0039547D01*
X0222611Y0038924D01*
X0221988Y0039547D01*
X0214612Y0039547D01*
X0213969Y0038904D01*
X0213327Y0039547D01*
X0205951Y0039547D01*
X0205189Y0038445D02*
X0205033Y0038445D01*
X0205033Y0037446D02*
X0205189Y0037446D01*
X0205189Y0036448D02*
X0205033Y0036448D01*
X0205033Y0035449D02*
X0205189Y0035449D01*
X0205189Y0034451D02*
X0205033Y0034451D01*
X0205033Y0033452D02*
X0205189Y0033452D01*
X0205189Y0032454D02*
X0205033Y0032454D01*
X0205033Y0031455D02*
X0205189Y0031455D01*
X0205522Y0030457D02*
X0204701Y0030457D01*
X0205033Y0029458D02*
X0205189Y0029458D01*
X0205189Y0028460D02*
X0205033Y0028460D01*
X0205033Y0027461D02*
X0205189Y0027461D01*
X0205189Y0026463D02*
X0205033Y0026463D01*
X0205033Y0025464D02*
X0205189Y0025464D01*
X0205189Y0024466D02*
X0205033Y0024466D01*
X0205033Y0023467D02*
X0205189Y0023467D01*
X0205468Y0022469D02*
X0204754Y0022469D01*
X0196413Y0022469D02*
X0196093Y0022469D01*
X0187752Y0022469D02*
X0187471Y0022469D01*
X0179130Y0022469D02*
X0178809Y0022469D01*
X0170468Y0022469D02*
X0169754Y0022469D01*
X0170033Y0023467D02*
X0170189Y0023467D01*
X0170189Y0024466D02*
X0170033Y0024466D01*
X0170033Y0025464D02*
X0170189Y0025464D01*
X0170189Y0026463D02*
X0170033Y0026463D01*
X0170033Y0027461D02*
X0170189Y0027461D01*
X0170189Y0028460D02*
X0170033Y0028460D01*
X0170033Y0029458D02*
X0170189Y0029458D01*
X0170522Y0030457D02*
X0169701Y0030457D01*
X0170033Y0031455D02*
X0170189Y0031455D01*
X0170189Y0032454D02*
X0170033Y0032454D01*
X0170033Y0033452D02*
X0170189Y0033452D01*
X0170189Y0034451D02*
X0170033Y0034451D01*
X0170033Y0035449D02*
X0170189Y0035449D01*
X0170189Y0036448D02*
X0170033Y0036448D01*
X0170033Y0037446D02*
X0170189Y0037446D01*
X0170189Y0038445D02*
X0170033Y0038445D01*
X0178430Y0039443D02*
X0179509Y0039443D01*
X0187092Y0039443D02*
X0188131Y0039443D01*
X0195714Y0039443D02*
X0196792Y0039443D01*
X0213430Y0039443D02*
X0214509Y0039443D01*
X0222092Y0039443D02*
X0223131Y0039443D01*
X0230714Y0039443D02*
X0231792Y0039443D01*
X0239375Y0039443D02*
X0240847Y0039443D01*
X0240212Y0040442D02*
X0240011Y0040442D01*
X0240033Y0041440D02*
X0240189Y0041440D01*
X0240189Y0042439D02*
X0240033Y0042439D01*
X0240033Y0043437D02*
X0240189Y0043437D01*
X0240189Y0044436D02*
X0240033Y0044436D01*
X0240033Y0045434D02*
X0240189Y0045434D01*
X0240189Y0046433D02*
X0240033Y0046433D01*
X0240033Y0047432D02*
X0240189Y0047432D01*
X0240779Y0048430D02*
X0239444Y0048430D01*
X0240033Y0049429D02*
X0240189Y0049429D01*
X0240189Y0050427D02*
X0240033Y0050427D01*
X0240033Y0051426D02*
X0240189Y0051426D01*
X0240189Y0052424D02*
X0240033Y0052424D01*
X0240033Y0053423D02*
X0240189Y0053423D01*
X0240189Y0054421D02*
X0240033Y0054421D01*
X0240033Y0055420D02*
X0240189Y0055420D01*
X0240189Y0056418D02*
X0240033Y0056418D01*
X0239702Y0057417D02*
X0240520Y0057417D01*
X0240189Y0058415D02*
X0240033Y0058415D01*
X0240033Y0059414D02*
X0240189Y0059414D01*
X0240189Y0060412D02*
X0240033Y0060412D01*
X0240033Y0061411D02*
X0240189Y0061411D01*
X0240189Y0062409D02*
X0240033Y0062409D01*
X0240033Y0063408D02*
X0240189Y0063408D01*
X0240189Y0064406D02*
X0240033Y0064406D01*
X0239753Y0065405D02*
X0240470Y0065405D01*
X0240195Y0066403D02*
X0240027Y0066403D01*
X0240033Y0067402D02*
X0240189Y0067402D01*
X0240189Y0068400D02*
X0240033Y0068400D01*
X0240033Y0069399D02*
X0240189Y0069399D01*
X0240189Y0070397D02*
X0240033Y0070397D01*
X0240033Y0071396D02*
X0240189Y0071396D01*
X0240189Y0072394D02*
X0240033Y0072394D01*
X0240033Y0073393D02*
X0240189Y0073393D01*
X0283483Y0074391D02*
X0284456Y0074391D01*
X0301391Y0074391D02*
X0302365Y0074391D01*
X0319108Y0074391D02*
X0320081Y0074391D01*
X0275189Y0038445D02*
X0275033Y0038445D01*
X0275033Y0037446D02*
X0275189Y0037446D01*
X0275189Y0036448D02*
X0275033Y0036448D01*
X0275033Y0035449D02*
X0275189Y0035449D01*
X0275189Y0034451D02*
X0275033Y0034451D01*
X0275033Y0033452D02*
X0275189Y0033452D01*
X0275189Y0032454D02*
X0275033Y0032454D01*
X0275033Y0031455D02*
X0275189Y0031455D01*
X0275522Y0030457D02*
X0274701Y0030457D01*
X0275033Y0029458D02*
X0275189Y0029458D01*
X0275189Y0028460D02*
X0275033Y0028460D01*
X0275033Y0027461D02*
X0275189Y0027461D01*
X0275189Y0026463D02*
X0275033Y0026463D01*
X0275033Y0025464D02*
X0275189Y0025464D01*
X0275189Y0024466D02*
X0275033Y0024466D01*
X0275033Y0023467D02*
X0275189Y0023467D01*
X0275468Y0022469D02*
X0274754Y0022469D01*
X0283809Y0022469D02*
X0284130Y0022469D01*
X0266413Y0022469D02*
X0266093Y0022469D01*
X0257752Y0022469D02*
X0257471Y0022469D01*
X0249130Y0022469D02*
X0248809Y0022469D01*
X0240468Y0022469D02*
X0239754Y0022469D01*
X0240033Y0023467D02*
X0240189Y0023467D01*
X0240189Y0024466D02*
X0240033Y0024466D01*
X0240033Y0025464D02*
X0240189Y0025464D01*
X0240189Y0026463D02*
X0240033Y0026463D01*
X0240033Y0027461D02*
X0240189Y0027461D01*
X0240189Y0028460D02*
X0240033Y0028460D01*
X0240033Y0029458D02*
X0240189Y0029458D01*
X0240522Y0030457D02*
X0239701Y0030457D01*
X0240033Y0031455D02*
X0240189Y0031455D01*
X0240189Y0032454D02*
X0240033Y0032454D01*
X0240033Y0033452D02*
X0240189Y0033452D01*
X0240189Y0034451D02*
X0240033Y0034451D01*
X0240033Y0035449D02*
X0240189Y0035449D01*
X0240189Y0036448D02*
X0240033Y0036448D01*
X0240033Y0037446D02*
X0240189Y0037446D01*
X0240189Y0038445D02*
X0240033Y0038445D01*
X0248430Y0039443D02*
X0249509Y0039443D01*
X0257092Y0039443D02*
X0258131Y0039443D01*
X0265714Y0039443D02*
X0266792Y0039443D01*
X0231413Y0022469D02*
X0231093Y0022469D01*
X0222752Y0022469D02*
X0222471Y0022469D01*
X0214130Y0022469D02*
X0213809Y0022469D01*
X0161413Y0022469D02*
X0161093Y0022469D01*
X0152752Y0022469D02*
X0152471Y0022469D01*
X0144130Y0022469D02*
X0143809Y0022469D01*
X0108505Y0022469D02*
X0108184Y0022469D01*
X0072880Y0022469D02*
X0072559Y0022469D01*
X0037038Y0022469D02*
X0036718Y0022469D01*
X0125961Y0109339D02*
X0126545Y0109339D01*
X0126404Y0110338D02*
X0126102Y0110338D01*
X0143677Y0109339D02*
X0144262Y0109339D01*
X0144120Y0110338D02*
X0143819Y0110338D01*
X0081848Y0164257D02*
X0081500Y0164257D01*
X0081500Y0165256D02*
X0081848Y0165256D01*
X0081848Y0166254D02*
X0081500Y0166254D01*
X0081500Y0167253D02*
X0081848Y0167253D01*
X0081848Y0168251D02*
X0081500Y0168251D01*
X0081500Y0169250D02*
X0081848Y0169250D01*
X0081848Y0170248D02*
X0081500Y0170248D01*
X0081002Y0171247D02*
X0082345Y0171247D01*
X0081848Y0172245D02*
X0081500Y0172245D01*
X0081500Y0173244D02*
X0081848Y0173244D01*
X0081848Y0174242D02*
X0081500Y0174242D01*
X0081500Y0175241D02*
X0081848Y0175241D01*
X0081848Y0176239D02*
X0081500Y0176239D01*
X0081500Y0177238D02*
X0081848Y0177238D01*
X0081848Y0178237D02*
X0081500Y0178237D01*
X0081500Y0179235D02*
X0081848Y0179235D01*
X0081848Y0181232D02*
X0081500Y0181232D01*
X0081500Y0182231D02*
X0081848Y0182231D01*
X0081848Y0183229D02*
X0081500Y0183229D01*
X0081500Y0184228D02*
X0081848Y0184228D01*
X0081848Y0185226D02*
X0081500Y0185226D01*
X0081500Y0186225D02*
X0081848Y0186225D01*
X0081848Y0187223D02*
X0081500Y0187223D01*
X0081500Y0188222D02*
X0081848Y0188222D01*
X0082378Y0189220D02*
X0080969Y0189220D01*
X0081500Y0190219D02*
X0081848Y0190219D01*
X0081848Y0191217D02*
X0081500Y0191217D01*
X0081500Y0192216D02*
X0081848Y0192216D01*
X0081848Y0193214D02*
X0081500Y0193214D01*
X0081500Y0194213D02*
X0081848Y0194213D01*
X0081848Y0195211D02*
X0081500Y0195211D01*
X0081500Y0196210D02*
X0081848Y0196210D01*
X0081929Y0197208D02*
X0081419Y0197208D01*
X0134952Y0197208D02*
X0135270Y0197208D01*
X0135189Y0196210D02*
X0135033Y0196210D01*
X0135033Y0195211D02*
X0135189Y0195211D01*
X0135189Y0194213D02*
X0135033Y0194213D01*
X0135033Y0193214D02*
X0135189Y0193214D01*
X0135189Y0192216D02*
X0135033Y0192216D01*
X0135033Y0191217D02*
X0135189Y0191217D01*
X0135189Y0190219D02*
X0135033Y0190219D01*
D16*
X0045736Y0121500D03*
X0069486Y0108375D03*
X0078236Y0098375D03*
X0051986Y0074000D03*
D17*
X0050736Y0059000D03*
X0059486Y0059000D03*
X0041361Y0059000D03*
X0032611Y0059000D03*
X0032611Y0160875D03*
X0041361Y0160875D03*
X0050111Y0160875D03*
X0059486Y0160875D03*
D18*
X0046986Y0144000D02*
X0046918Y0143998D01*
X0046851Y0143993D01*
X0046784Y0143984D01*
X0046717Y0143971D01*
X0046652Y0143954D01*
X0046587Y0143935D01*
X0046523Y0143911D01*
X0046461Y0143884D01*
X0046400Y0143854D01*
X0046342Y0143821D01*
X0046285Y0143785D01*
X0046230Y0143745D01*
X0046177Y0143703D01*
X0046126Y0143657D01*
X0046079Y0143610D01*
X0046033Y0143559D01*
X0045991Y0143506D01*
X0045951Y0143451D01*
X0045915Y0143394D01*
X0045882Y0143336D01*
X0045852Y0143275D01*
X0045825Y0143213D01*
X0045801Y0143149D01*
X0045782Y0143084D01*
X0045765Y0143019D01*
X0045752Y0142952D01*
X0045743Y0142885D01*
X0045738Y0142818D01*
X0045736Y0142750D01*
X0045736Y0121500D01*
D19*
X0078236Y0104000D02*
X0081986Y0104000D01*
X0073861Y0092750D02*
X0094486Y0092750D01*
X0094667Y0092748D01*
X0094848Y0092741D01*
X0095029Y0092730D01*
X0095210Y0092715D01*
X0095390Y0092695D01*
X0095570Y0092671D01*
X0095749Y0092643D01*
X0095927Y0092610D01*
X0096104Y0092573D01*
X0096281Y0092532D01*
X0096456Y0092487D01*
X0096631Y0092437D01*
X0096804Y0092383D01*
X0096975Y0092325D01*
X0097146Y0092263D01*
X0097314Y0092196D01*
X0097481Y0092126D01*
X0097647Y0092052D01*
X0097810Y0091973D01*
X0097971Y0091891D01*
X0098131Y0091805D01*
X0098288Y0091715D01*
X0098443Y0091621D01*
X0098596Y0091524D01*
X0098746Y0091422D01*
X0098894Y0091318D01*
X0099040Y0091209D01*
X0099182Y0091098D01*
X0099322Y0090982D01*
X0099459Y0090864D01*
X0099594Y0090742D01*
X0099725Y0090617D01*
X0099853Y0090489D01*
X0099978Y0090358D01*
X0100100Y0090223D01*
X0100218Y0090086D01*
X0100334Y0089946D01*
X0100445Y0089804D01*
X0100554Y0089658D01*
X0100658Y0089510D01*
X0100760Y0089360D01*
X0100857Y0089207D01*
X0100951Y0089052D01*
X0101041Y0088895D01*
X0101127Y0088735D01*
X0101209Y0088574D01*
X0101288Y0088411D01*
X0101362Y0088245D01*
X0101432Y0088078D01*
X0101499Y0087910D01*
X0101561Y0087739D01*
X0101619Y0087568D01*
X0101673Y0087395D01*
X0101723Y0087220D01*
X0101768Y0087045D01*
X0101809Y0086868D01*
X0101846Y0086691D01*
X0101879Y0086513D01*
X0101907Y0086334D01*
X0101931Y0086154D01*
X0101951Y0085974D01*
X0101966Y0085793D01*
X0101977Y0085612D01*
X0101984Y0085431D01*
X0101986Y0085250D01*
X0101986Y0077125D01*
X0091986Y0081500D02*
X0091986Y0085250D01*
X0101986Y0077125D02*
X0101982Y0076808D01*
X0101971Y0076491D01*
X0101952Y0076174D01*
X0101925Y0075858D01*
X0101890Y0075543D01*
X0101848Y0075229D01*
X0101799Y0074915D01*
X0101741Y0074603D01*
X0101677Y0074293D01*
X0101605Y0073984D01*
X0101525Y0073677D01*
X0101438Y0073372D01*
X0101344Y0073069D01*
X0101242Y0072769D01*
X0101133Y0072471D01*
X0101017Y0072176D01*
X0100894Y0071883D01*
X0100764Y0071594D01*
X0100627Y0071308D01*
X0100483Y0071026D01*
X0100332Y0070746D01*
X0100174Y0070471D01*
X0100010Y0070200D01*
X0099840Y0069932D01*
X0099663Y0069669D01*
X0099479Y0069410D01*
X0099290Y0069156D01*
X0099094Y0068906D01*
X0098893Y0068661D01*
X0098685Y0068422D01*
X0098472Y0068187D01*
X0098253Y0067957D01*
X0098029Y0067733D01*
X0097799Y0067514D01*
X0097564Y0067301D01*
X0097325Y0067093D01*
X0097080Y0066892D01*
X0096830Y0066696D01*
X0096576Y0066507D01*
X0096317Y0066323D01*
X0096054Y0066146D01*
X0095786Y0065976D01*
X0095515Y0065812D01*
X0095240Y0065654D01*
X0094960Y0065503D01*
X0094678Y0065359D01*
X0094392Y0065222D01*
X0094103Y0065092D01*
X0093810Y0064969D01*
X0093515Y0064853D01*
X0093217Y0064744D01*
X0092917Y0064642D01*
X0092614Y0064548D01*
X0092309Y0064461D01*
X0092002Y0064381D01*
X0091693Y0064309D01*
X0091383Y0064245D01*
X0091071Y0064187D01*
X0090757Y0064138D01*
X0090443Y0064096D01*
X0090128Y0064061D01*
X0089812Y0064034D01*
X0089495Y0064015D01*
X0089178Y0064004D01*
X0088861Y0064000D01*
X0053236Y0064000D01*
X0053132Y0063986D01*
X0053027Y0063968D01*
X0052924Y0063947D01*
X0052821Y0063922D01*
X0052719Y0063893D01*
X0052618Y0063860D01*
X0052519Y0063823D01*
X0052421Y0063783D01*
X0052325Y0063739D01*
X0052230Y0063691D01*
X0052138Y0063640D01*
X0052047Y0063586D01*
X0051958Y0063528D01*
X0051872Y0063467D01*
X0051788Y0063402D01*
X0051706Y0063335D01*
X0051627Y0063265D01*
X0051551Y0063191D01*
X0051477Y0063115D01*
X0051407Y0063036D01*
X0051339Y0062955D01*
X0051275Y0062871D01*
X0051213Y0062785D01*
X0051155Y0062696D01*
X0051100Y0062606D01*
X0051049Y0062513D01*
X0051001Y0062419D01*
X0050957Y0062323D01*
X0050916Y0062225D01*
X0050879Y0062126D01*
X0050846Y0062025D01*
X0050817Y0061924D01*
X0050791Y0061821D01*
X0050769Y0061717D01*
X0050751Y0061613D01*
X0050737Y0061508D01*
X0050727Y0061403D01*
X0050721Y0061297D01*
X0050719Y0061191D01*
X0050721Y0061086D01*
X0050727Y0060980D01*
X0050736Y0060874D01*
X0050736Y0060875D02*
X0050736Y0059000D01*
X0041361Y0063999D02*
X0041353Y0064115D01*
X0041348Y0064230D01*
X0041347Y0064345D01*
X0041350Y0064460D01*
X0041357Y0064576D01*
X0041368Y0064690D01*
X0041382Y0064805D01*
X0041401Y0064919D01*
X0041423Y0065032D01*
X0041449Y0065144D01*
X0041479Y0065256D01*
X0041512Y0065366D01*
X0041549Y0065476D01*
X0041590Y0065584D01*
X0041634Y0065690D01*
X0041682Y0065795D01*
X0041733Y0065898D01*
X0041788Y0066000D01*
X0041846Y0066100D01*
X0041907Y0066197D01*
X0041972Y0066293D01*
X0042040Y0066386D01*
X0042111Y0066477D01*
X0042184Y0066566D01*
X0042261Y0066652D01*
X0042341Y0066736D01*
X0042423Y0066816D01*
X0042508Y0066894D01*
X0042596Y0066969D01*
X0042686Y0067042D01*
X0042778Y0067111D01*
X0042873Y0067177D01*
X0042970Y0067239D01*
X0043068Y0067299D01*
X0043169Y0067355D01*
X0043272Y0067408D01*
X0043376Y0067457D01*
X0043482Y0067503D01*
X0043589Y0067545D01*
X0043698Y0067584D01*
X0043808Y0067619D01*
X0043919Y0067650D01*
X0044031Y0067677D01*
X0044144Y0067701D01*
X0044258Y0067721D01*
X0044372Y0067737D01*
X0044486Y0067750D01*
X0078236Y0067750D01*
X0078861Y0072750D02*
X0071986Y0072750D01*
X0071775Y0072753D01*
X0071563Y0072760D01*
X0071352Y0072773D01*
X0071142Y0072791D01*
X0070931Y0072814D01*
X0070722Y0072842D01*
X0070513Y0072875D01*
X0070305Y0072913D01*
X0070098Y0072956D01*
X0069892Y0073004D01*
X0069687Y0073057D01*
X0069484Y0073115D01*
X0069282Y0073178D01*
X0069082Y0073246D01*
X0068883Y0073319D01*
X0068686Y0073396D01*
X0068492Y0073478D01*
X0068299Y0073565D01*
X0068108Y0073656D01*
X0067920Y0073752D01*
X0067734Y0073853D01*
X0067550Y0073958D01*
X0067369Y0074067D01*
X0067191Y0074181D01*
X0067015Y0074299D01*
X0066843Y0074421D01*
X0066673Y0074547D01*
X0066507Y0074678D01*
X0066344Y0074812D01*
X0066184Y0074951D01*
X0066027Y0075093D01*
X0065874Y0075239D01*
X0065725Y0075388D01*
X0065579Y0075541D01*
X0065437Y0075698D01*
X0065298Y0075858D01*
X0065164Y0076021D01*
X0065033Y0076187D01*
X0064907Y0076357D01*
X0064785Y0076529D01*
X0064667Y0076705D01*
X0064553Y0076883D01*
X0064444Y0077064D01*
X0064339Y0077248D01*
X0064238Y0077434D01*
X0064142Y0077622D01*
X0064051Y0077813D01*
X0063964Y0078006D01*
X0063882Y0078200D01*
X0063805Y0078397D01*
X0063732Y0078596D01*
X0063664Y0078796D01*
X0063601Y0078998D01*
X0063543Y0079201D01*
X0063490Y0079406D01*
X0063442Y0079612D01*
X0063399Y0079819D01*
X0063361Y0080027D01*
X0063328Y0080236D01*
X0063300Y0080445D01*
X0063277Y0080656D01*
X0063259Y0080866D01*
X0063246Y0081077D01*
X0063239Y0081289D01*
X0063236Y0081500D01*
X0063236Y0089000D01*
X0063240Y0089362D01*
X0063254Y0089725D01*
X0063275Y0090087D01*
X0063306Y0090448D01*
X0063345Y0090808D01*
X0063393Y0091167D01*
X0063450Y0091525D01*
X0063515Y0091882D01*
X0063589Y0092237D01*
X0063672Y0092590D01*
X0063763Y0092941D01*
X0063862Y0093289D01*
X0063970Y0093635D01*
X0064086Y0093979D01*
X0064211Y0094319D01*
X0064343Y0094656D01*
X0064484Y0094990D01*
X0064633Y0095321D01*
X0064790Y0095648D01*
X0064954Y0095971D01*
X0065126Y0096290D01*
X0065306Y0096604D01*
X0065494Y0096915D01*
X0065689Y0097220D01*
X0065891Y0097521D01*
X0066101Y0097817D01*
X0066317Y0098107D01*
X0066541Y0098393D01*
X0066771Y0098673D01*
X0067008Y0098947D01*
X0067252Y0099215D01*
X0067502Y0099478D01*
X0067758Y0099734D01*
X0068021Y0099984D01*
X0068289Y0100228D01*
X0068563Y0100465D01*
X0068843Y0100695D01*
X0069129Y0100919D01*
X0069419Y0101135D01*
X0069715Y0101345D01*
X0070016Y0101547D01*
X0070321Y0101742D01*
X0070632Y0101930D01*
X0070946Y0102110D01*
X0071265Y0102282D01*
X0071588Y0102446D01*
X0071915Y0102603D01*
X0072246Y0102752D01*
X0072580Y0102893D01*
X0072917Y0103025D01*
X0073257Y0103150D01*
X0073601Y0103266D01*
X0073947Y0103374D01*
X0074295Y0103473D01*
X0074646Y0103564D01*
X0074999Y0103647D01*
X0075354Y0103721D01*
X0075711Y0103786D01*
X0076069Y0103843D01*
X0076428Y0103891D01*
X0076788Y0103930D01*
X0077149Y0103961D01*
X0077511Y0103982D01*
X0077874Y0103996D01*
X0078236Y0104000D01*
X0081986Y0104000D02*
X0082469Y0104006D01*
X0082952Y0104023D01*
X0083435Y0104053D01*
X0083916Y0104093D01*
X0084397Y0104146D01*
X0084876Y0104210D01*
X0085353Y0104285D01*
X0085829Y0104373D01*
X0086302Y0104471D01*
X0086772Y0104581D01*
X0087240Y0104702D01*
X0087705Y0104835D01*
X0088166Y0104979D01*
X0088624Y0105134D01*
X0089078Y0105300D01*
X0089528Y0105477D01*
X0089973Y0105664D01*
X0090414Y0105863D01*
X0090850Y0106071D01*
X0091280Y0106291D01*
X0091706Y0106521D01*
X0092125Y0106761D01*
X0092539Y0107011D01*
X0092946Y0107271D01*
X0093347Y0107540D01*
X0093742Y0107820D01*
X0094129Y0108108D01*
X0094510Y0108407D01*
X0094883Y0108714D01*
X0095248Y0109030D01*
X0095606Y0109355D01*
X0095956Y0109688D01*
X0096298Y0110030D01*
X0096631Y0110380D01*
X0096956Y0110738D01*
X0097272Y0111103D01*
X0097579Y0111476D01*
X0097878Y0111857D01*
X0098166Y0112244D01*
X0098446Y0112639D01*
X0098715Y0113040D01*
X0098975Y0113447D01*
X0099225Y0113861D01*
X0099465Y0114280D01*
X0099695Y0114706D01*
X0099915Y0115136D01*
X0100123Y0115572D01*
X0100322Y0116013D01*
X0100509Y0116458D01*
X0100686Y0116908D01*
X0100852Y0117362D01*
X0101007Y0117820D01*
X0101151Y0118281D01*
X0101284Y0118746D01*
X0101405Y0119214D01*
X0101515Y0119684D01*
X0101613Y0120157D01*
X0101701Y0120633D01*
X0101776Y0121110D01*
X0101840Y0121589D01*
X0101893Y0122070D01*
X0101933Y0122551D01*
X0101963Y0123034D01*
X0101980Y0123517D01*
X0101986Y0124000D01*
X0101986Y0134000D01*
X0101937Y0134002D01*
X0101888Y0134008D01*
X0101840Y0134017D01*
X0101793Y0134031D01*
X0101747Y0134048D01*
X0101702Y0134068D01*
X0101659Y0134092D01*
X0101619Y0134119D01*
X0101580Y0134150D01*
X0101544Y0134183D01*
X0101511Y0134219D01*
X0101480Y0134258D01*
X0101453Y0134298D01*
X0101429Y0134341D01*
X0101409Y0134386D01*
X0101392Y0134432D01*
X0101378Y0134479D01*
X0101369Y0134527D01*
X0101363Y0134576D01*
X0101361Y0134625D01*
X0101361Y0140875D01*
X0091361Y0144625D02*
X0091361Y0134625D01*
X0091363Y0134576D01*
X0091369Y0134527D01*
X0091378Y0134479D01*
X0091392Y0134432D01*
X0091409Y0134386D01*
X0091429Y0134341D01*
X0091453Y0134298D01*
X0091480Y0134258D01*
X0091511Y0134219D01*
X0091544Y0134183D01*
X0091580Y0134150D01*
X0091619Y0134119D01*
X0091659Y0134092D01*
X0091702Y0134068D01*
X0091747Y0134048D01*
X0091793Y0134031D01*
X0091840Y0134017D01*
X0091888Y0134008D01*
X0091937Y0134002D01*
X0091986Y0134000D01*
X0111986Y0134000D02*
X0111978Y0134649D01*
X0111955Y0135298D01*
X0111915Y0135947D01*
X0111861Y0136594D01*
X0111790Y0137239D01*
X0111704Y0137883D01*
X0111602Y0138525D01*
X0111485Y0139163D01*
X0111353Y0139799D01*
X0111205Y0140432D01*
X0111042Y0141060D01*
X0110864Y0141685D01*
X0110671Y0142305D01*
X0110463Y0142920D01*
X0110240Y0143530D01*
X0110002Y0144134D01*
X0109750Y0144733D01*
X0109483Y0145325D01*
X0109202Y0145911D01*
X0108908Y0146489D01*
X0108599Y0147061D01*
X0108276Y0147625D01*
X0107940Y0148180D01*
X0107591Y0148728D01*
X0107229Y0149267D01*
X0106853Y0149797D01*
X0106465Y0150317D01*
X0106065Y0150829D01*
X0105652Y0151330D01*
X0105227Y0151821D01*
X0104791Y0152302D01*
X0104343Y0152772D01*
X0103883Y0153232D01*
X0103413Y0153680D01*
X0102932Y0154116D01*
X0102441Y0154541D01*
X0101940Y0154954D01*
X0101428Y0155354D01*
X0100908Y0155742D01*
X0100378Y0156118D01*
X0099839Y0156480D01*
X0099291Y0156829D01*
X0098736Y0157165D01*
X0098172Y0157488D01*
X0097600Y0157797D01*
X0097022Y0158091D01*
X0096436Y0158372D01*
X0095844Y0158639D01*
X0095245Y0158891D01*
X0094641Y0159129D01*
X0094031Y0159352D01*
X0093416Y0159560D01*
X0092796Y0159753D01*
X0092171Y0159931D01*
X0091543Y0160094D01*
X0090910Y0160242D01*
X0090274Y0160374D01*
X0089636Y0160491D01*
X0088994Y0160593D01*
X0088350Y0160679D01*
X0087705Y0160750D01*
X0087058Y0160804D01*
X0086409Y0160844D01*
X0085760Y0160867D01*
X0085111Y0160875D01*
X0059486Y0160875D01*
X0054486Y0155875D02*
X0054353Y0155886D01*
X0054219Y0155901D01*
X0054086Y0155919D01*
X0053954Y0155942D01*
X0053823Y0155968D01*
X0053692Y0155997D01*
X0053562Y0156031D01*
X0053433Y0156068D01*
X0053305Y0156109D01*
X0053179Y0156153D01*
X0053053Y0156201D01*
X0052929Y0156253D01*
X0052807Y0156308D01*
X0052686Y0156367D01*
X0052567Y0156429D01*
X0052450Y0156494D01*
X0052335Y0156563D01*
X0052222Y0156635D01*
X0052111Y0156710D01*
X0052002Y0156788D01*
X0051895Y0156870D01*
X0051791Y0156954D01*
X0051689Y0157042D01*
X0051590Y0157132D01*
X0051493Y0157225D01*
X0051399Y0157321D01*
X0051308Y0157419D01*
X0051220Y0157520D01*
X0051134Y0157624D01*
X0051052Y0157729D01*
X0050972Y0157838D01*
X0050896Y0157948D01*
X0050823Y0158061D01*
X0050753Y0158175D01*
X0050687Y0158292D01*
X0050623Y0158410D01*
X0050564Y0158530D01*
X0050507Y0158652D01*
X0050454Y0158775D01*
X0050405Y0158900D01*
X0050359Y0159026D01*
X0050317Y0159154D01*
X0050279Y0159282D01*
X0050244Y0159412D01*
X0050213Y0159542D01*
X0050186Y0159674D01*
X0050162Y0159806D01*
X0050143Y0159938D01*
X0050127Y0160072D01*
X0050115Y0160205D01*
X0050106Y0160339D01*
X0050102Y0160473D01*
X0050101Y0160607D01*
X0050104Y0160742D01*
X0050111Y0160876D01*
X0041361Y0160875D02*
X0041364Y0160664D01*
X0041371Y0160452D01*
X0041384Y0160241D01*
X0041402Y0160031D01*
X0041425Y0159820D01*
X0041453Y0159611D01*
X0041486Y0159402D01*
X0041524Y0159194D01*
X0041567Y0158987D01*
X0041615Y0158781D01*
X0041668Y0158576D01*
X0041726Y0158373D01*
X0041789Y0158171D01*
X0041857Y0157971D01*
X0041930Y0157772D01*
X0042007Y0157575D01*
X0042089Y0157381D01*
X0042176Y0157188D01*
X0042267Y0156997D01*
X0042363Y0156809D01*
X0042464Y0156623D01*
X0042569Y0156439D01*
X0042678Y0156258D01*
X0042792Y0156080D01*
X0042910Y0155904D01*
X0043032Y0155732D01*
X0043158Y0155562D01*
X0043289Y0155396D01*
X0043423Y0155233D01*
X0043562Y0155073D01*
X0043704Y0154916D01*
X0043850Y0154763D01*
X0043999Y0154614D01*
X0044152Y0154468D01*
X0044309Y0154326D01*
X0044469Y0154187D01*
X0044632Y0154053D01*
X0044798Y0153922D01*
X0044968Y0153796D01*
X0045140Y0153674D01*
X0045316Y0153556D01*
X0045494Y0153442D01*
X0045675Y0153333D01*
X0045859Y0153228D01*
X0046045Y0153127D01*
X0046233Y0153031D01*
X0046424Y0152940D01*
X0046617Y0152853D01*
X0046811Y0152771D01*
X0047008Y0152694D01*
X0047207Y0152621D01*
X0047407Y0152553D01*
X0047609Y0152490D01*
X0047812Y0152432D01*
X0048017Y0152379D01*
X0048223Y0152331D01*
X0048430Y0152288D01*
X0048638Y0152250D01*
X0048847Y0152217D01*
X0049056Y0152189D01*
X0049267Y0152166D01*
X0049477Y0152148D01*
X0049688Y0152135D01*
X0049900Y0152128D01*
X0050111Y0152125D01*
X0083861Y0152125D01*
X0086361Y0155875D02*
X0054486Y0155875D01*
X0083861Y0152125D02*
X0084042Y0152123D01*
X0084223Y0152116D01*
X0084404Y0152105D01*
X0084585Y0152090D01*
X0084765Y0152070D01*
X0084945Y0152046D01*
X0085124Y0152018D01*
X0085302Y0151985D01*
X0085479Y0151948D01*
X0085656Y0151907D01*
X0085831Y0151862D01*
X0086006Y0151812D01*
X0086179Y0151758D01*
X0086350Y0151700D01*
X0086521Y0151638D01*
X0086689Y0151571D01*
X0086856Y0151501D01*
X0087022Y0151427D01*
X0087185Y0151348D01*
X0087346Y0151266D01*
X0087506Y0151180D01*
X0087663Y0151090D01*
X0087818Y0150996D01*
X0087971Y0150899D01*
X0088121Y0150797D01*
X0088269Y0150693D01*
X0088415Y0150584D01*
X0088557Y0150473D01*
X0088697Y0150357D01*
X0088834Y0150239D01*
X0088969Y0150117D01*
X0089100Y0149992D01*
X0089228Y0149864D01*
X0089353Y0149733D01*
X0089475Y0149598D01*
X0089593Y0149461D01*
X0089709Y0149321D01*
X0089820Y0149179D01*
X0089929Y0149033D01*
X0090033Y0148885D01*
X0090135Y0148735D01*
X0090232Y0148582D01*
X0090326Y0148427D01*
X0090416Y0148270D01*
X0090502Y0148110D01*
X0090584Y0147949D01*
X0090663Y0147786D01*
X0090737Y0147620D01*
X0090807Y0147453D01*
X0090874Y0147285D01*
X0090936Y0147114D01*
X0090994Y0146943D01*
X0091048Y0146770D01*
X0091098Y0146595D01*
X0091143Y0146420D01*
X0091184Y0146243D01*
X0091221Y0146066D01*
X0091254Y0145888D01*
X0091282Y0145709D01*
X0091306Y0145529D01*
X0091326Y0145349D01*
X0091341Y0145168D01*
X0091352Y0144987D01*
X0091359Y0144806D01*
X0091361Y0144625D01*
X0101361Y0140875D02*
X0101357Y0141237D01*
X0101343Y0141600D01*
X0101322Y0141962D01*
X0101291Y0142323D01*
X0101252Y0142683D01*
X0101204Y0143042D01*
X0101147Y0143400D01*
X0101082Y0143757D01*
X0101008Y0144112D01*
X0100925Y0144465D01*
X0100834Y0144816D01*
X0100735Y0145164D01*
X0100627Y0145510D01*
X0100511Y0145854D01*
X0100386Y0146194D01*
X0100254Y0146531D01*
X0100113Y0146865D01*
X0099964Y0147196D01*
X0099807Y0147523D01*
X0099643Y0147846D01*
X0099471Y0148165D01*
X0099291Y0148479D01*
X0099103Y0148790D01*
X0098908Y0149095D01*
X0098706Y0149396D01*
X0098496Y0149692D01*
X0098280Y0149982D01*
X0098056Y0150268D01*
X0097826Y0150548D01*
X0097589Y0150822D01*
X0097345Y0151090D01*
X0097095Y0151353D01*
X0096839Y0151609D01*
X0096576Y0151859D01*
X0096308Y0152103D01*
X0096034Y0152340D01*
X0095754Y0152570D01*
X0095468Y0152794D01*
X0095178Y0153010D01*
X0094882Y0153220D01*
X0094581Y0153422D01*
X0094276Y0153617D01*
X0093965Y0153805D01*
X0093651Y0153985D01*
X0093332Y0154157D01*
X0093009Y0154321D01*
X0092682Y0154478D01*
X0092351Y0154627D01*
X0092017Y0154768D01*
X0091680Y0154900D01*
X0091340Y0155025D01*
X0090996Y0155141D01*
X0090650Y0155249D01*
X0090302Y0155348D01*
X0089951Y0155439D01*
X0089598Y0155522D01*
X0089243Y0155596D01*
X0088886Y0155661D01*
X0088528Y0155718D01*
X0088169Y0155766D01*
X0087809Y0155805D01*
X0087448Y0155836D01*
X0087086Y0155857D01*
X0086723Y0155871D01*
X0086361Y0155875D01*
X0091986Y0081500D02*
X0091982Y0081168D01*
X0091970Y0080836D01*
X0091950Y0080504D01*
X0091922Y0080173D01*
X0091886Y0079843D01*
X0091842Y0079513D01*
X0091790Y0079185D01*
X0091730Y0078858D01*
X0091662Y0078533D01*
X0091586Y0078209D01*
X0091503Y0077888D01*
X0091412Y0077568D01*
X0091313Y0077251D01*
X0091207Y0076936D01*
X0091092Y0076624D01*
X0090971Y0076315D01*
X0090842Y0076009D01*
X0090706Y0075706D01*
X0090562Y0075406D01*
X0090411Y0075110D01*
X0090253Y0074818D01*
X0090088Y0074529D01*
X0089916Y0074245D01*
X0089737Y0073965D01*
X0089552Y0073689D01*
X0089360Y0073418D01*
X0089161Y0073152D01*
X0088957Y0072890D01*
X0088745Y0072633D01*
X0088528Y0072382D01*
X0088305Y0072136D01*
X0088075Y0071895D01*
X0087841Y0071661D01*
X0087600Y0071431D01*
X0087354Y0071208D01*
X0087103Y0070991D01*
X0086846Y0070779D01*
X0086584Y0070575D01*
X0086318Y0070376D01*
X0086047Y0070184D01*
X0085771Y0069999D01*
X0085491Y0069820D01*
X0085207Y0069648D01*
X0084918Y0069483D01*
X0084626Y0069325D01*
X0084330Y0069174D01*
X0084030Y0069030D01*
X0083727Y0068894D01*
X0083421Y0068765D01*
X0083112Y0068644D01*
X0082800Y0068529D01*
X0082485Y0068423D01*
X0082168Y0068324D01*
X0081848Y0068233D01*
X0081527Y0068150D01*
X0081203Y0068074D01*
X0080878Y0068006D01*
X0080551Y0067946D01*
X0080223Y0067894D01*
X0079893Y0067850D01*
X0079563Y0067814D01*
X0079232Y0067786D01*
X0078900Y0067766D01*
X0078568Y0067754D01*
X0078236Y0067750D01*
X0041361Y0064000D02*
X0041361Y0059000D01*
D20*
X0078861Y0072750D03*
X0073861Y0092750D03*
M02*
